%TF.GenerationSoftware,KiCad,Pcbnew,8.0.6*%
%TF.CreationDate,2024-11-05T10:52:09-07:00*%
%TF.ProjectId,ProjectPCB,50726f6a-6563-4745-9043-422e6b696361,rev?*%
%TF.SameCoordinates,Original*%
%TF.FileFunction,Legend,Top*%
%TF.FilePolarity,Positive*%
%FSLAX46Y46*%
G04 Gerber Fmt 4.6, Leading zero omitted, Abs format (unit mm)*
G04 Created by KiCad (PCBNEW 8.0.6) date 2024-11-05 10:52:09*
%MOMM*%
%LPD*%
G01*
G04 APERTURE LIST*
%ADD10C,0.150000*%
%ADD11C,0.120000*%
%ADD12C,0.127000*%
%ADD13C,0.400000*%
G04 APERTURE END LIST*
D10*
X132738095Y-114554819D02*
X132738095Y-113554819D01*
X132738095Y-114031009D02*
X133309523Y-114031009D01*
X133309523Y-114554819D02*
X133309523Y-113554819D01*
X133690476Y-113554819D02*
X134309523Y-113554819D01*
X134309523Y-113554819D02*
X133976190Y-113935771D01*
X133976190Y-113935771D02*
X134119047Y-113935771D01*
X134119047Y-113935771D02*
X134214285Y-113983390D01*
X134214285Y-113983390D02*
X134261904Y-114031009D01*
X134261904Y-114031009D02*
X134309523Y-114126247D01*
X134309523Y-114126247D02*
X134309523Y-114364342D01*
X134309523Y-114364342D02*
X134261904Y-114459580D01*
X134261904Y-114459580D02*
X134214285Y-114507200D01*
X134214285Y-114507200D02*
X134119047Y-114554819D01*
X134119047Y-114554819D02*
X133833333Y-114554819D01*
X133833333Y-114554819D02*
X133738095Y-114507200D01*
X133738095Y-114507200D02*
X133690476Y-114459580D01*
X126238095Y-85954819D02*
X126238095Y-84954819D01*
X126238095Y-85431009D02*
X126809523Y-85431009D01*
X126809523Y-85954819D02*
X126809523Y-84954819D01*
X127238095Y-85050057D02*
X127285714Y-85002438D01*
X127285714Y-85002438D02*
X127380952Y-84954819D01*
X127380952Y-84954819D02*
X127619047Y-84954819D01*
X127619047Y-84954819D02*
X127714285Y-85002438D01*
X127714285Y-85002438D02*
X127761904Y-85050057D01*
X127761904Y-85050057D02*
X127809523Y-85145295D01*
X127809523Y-85145295D02*
X127809523Y-85240533D01*
X127809523Y-85240533D02*
X127761904Y-85383390D01*
X127761904Y-85383390D02*
X127190476Y-85954819D01*
X127190476Y-85954819D02*
X127809523Y-85954819D01*
X158238095Y-88954819D02*
X158238095Y-87954819D01*
X158238095Y-88431009D02*
X158809523Y-88431009D01*
X158809523Y-88954819D02*
X158809523Y-87954819D01*
X159809523Y-88954819D02*
X159238095Y-88954819D01*
X159523809Y-88954819D02*
X159523809Y-87954819D01*
X159523809Y-87954819D02*
X159428571Y-88097676D01*
X159428571Y-88097676D02*
X159333333Y-88192914D01*
X159333333Y-88192914D02*
X159238095Y-88240533D01*
X149833333Y-94604819D02*
X149500000Y-94128628D01*
X149261905Y-94604819D02*
X149261905Y-93604819D01*
X149261905Y-93604819D02*
X149642857Y-93604819D01*
X149642857Y-93604819D02*
X149738095Y-93652438D01*
X149738095Y-93652438D02*
X149785714Y-93700057D01*
X149785714Y-93700057D02*
X149833333Y-93795295D01*
X149833333Y-93795295D02*
X149833333Y-93938152D01*
X149833333Y-93938152D02*
X149785714Y-94033390D01*
X149785714Y-94033390D02*
X149738095Y-94081009D01*
X149738095Y-94081009D02*
X149642857Y-94128628D01*
X149642857Y-94128628D02*
X149261905Y-94128628D01*
X150690476Y-93938152D02*
X150690476Y-94604819D01*
X150452381Y-93557200D02*
X150214286Y-94271485D01*
X150214286Y-94271485D02*
X150833333Y-94271485D01*
X132223680Y-108820087D02*
X132938410Y-108820087D01*
X132938410Y-108820087D02*
X133081356Y-108867736D01*
X133081356Y-108867736D02*
X133176654Y-108963033D01*
X133176654Y-108963033D02*
X133224302Y-109105979D01*
X133224302Y-109105979D02*
X133224302Y-109201277D01*
X132223680Y-107867114D02*
X132223680Y-108343600D01*
X132223680Y-108343600D02*
X132700167Y-108391249D01*
X132700167Y-108391249D02*
X132652518Y-108343600D01*
X132652518Y-108343600D02*
X132604870Y-108248303D01*
X132604870Y-108248303D02*
X132604870Y-108010060D01*
X132604870Y-108010060D02*
X132652518Y-107914762D01*
X132652518Y-107914762D02*
X132700167Y-107867114D01*
X132700167Y-107867114D02*
X132795464Y-107819465D01*
X132795464Y-107819465D02*
X133033708Y-107819465D01*
X133033708Y-107819465D02*
X133129005Y-107867114D01*
X133129005Y-107867114D02*
X133176654Y-107914762D01*
X133176654Y-107914762D02*
X133224302Y-108010060D01*
X133224302Y-108010060D02*
X133224302Y-108248303D01*
X133224302Y-108248303D02*
X133176654Y-108343600D01*
X133176654Y-108343600D02*
X133129005Y-108391249D01*
X159454819Y-103308333D02*
X160169104Y-103308333D01*
X160169104Y-103308333D02*
X160311961Y-103355952D01*
X160311961Y-103355952D02*
X160407200Y-103451190D01*
X160407200Y-103451190D02*
X160454819Y-103594047D01*
X160454819Y-103594047D02*
X160454819Y-103689285D01*
X159454819Y-102927380D02*
X159454819Y-102308333D01*
X159454819Y-102308333D02*
X159835771Y-102641666D01*
X159835771Y-102641666D02*
X159835771Y-102498809D01*
X159835771Y-102498809D02*
X159883390Y-102403571D01*
X159883390Y-102403571D02*
X159931009Y-102355952D01*
X159931009Y-102355952D02*
X160026247Y-102308333D01*
X160026247Y-102308333D02*
X160264342Y-102308333D01*
X160264342Y-102308333D02*
X160359580Y-102355952D01*
X160359580Y-102355952D02*
X160407200Y-102403571D01*
X160407200Y-102403571D02*
X160454819Y-102498809D01*
X160454819Y-102498809D02*
X160454819Y-102784523D01*
X160454819Y-102784523D02*
X160407200Y-102879761D01*
X160407200Y-102879761D02*
X160359580Y-102927380D01*
X139523809Y-89478628D02*
X139523809Y-89954819D01*
X139190476Y-88954819D02*
X139523809Y-89478628D01*
X139523809Y-89478628D02*
X139857142Y-88954819D01*
X140714285Y-89954819D02*
X140142857Y-89954819D01*
X140428571Y-89954819D02*
X140428571Y-88954819D01*
X140428571Y-88954819D02*
X140333333Y-89097676D01*
X140333333Y-89097676D02*
X140238095Y-89192914D01*
X140238095Y-89192914D02*
X140142857Y-89240533D01*
X148166667Y-119407200D02*
X148309524Y-119454819D01*
X148309524Y-119454819D02*
X148547619Y-119454819D01*
X148547619Y-119454819D02*
X148642857Y-119407200D01*
X148642857Y-119407200D02*
X148690476Y-119359580D01*
X148690476Y-119359580D02*
X148738095Y-119264342D01*
X148738095Y-119264342D02*
X148738095Y-119169104D01*
X148738095Y-119169104D02*
X148690476Y-119073866D01*
X148690476Y-119073866D02*
X148642857Y-119026247D01*
X148642857Y-119026247D02*
X148547619Y-118978628D01*
X148547619Y-118978628D02*
X148357143Y-118931009D01*
X148357143Y-118931009D02*
X148261905Y-118883390D01*
X148261905Y-118883390D02*
X148214286Y-118835771D01*
X148214286Y-118835771D02*
X148166667Y-118740533D01*
X148166667Y-118740533D02*
X148166667Y-118645295D01*
X148166667Y-118645295D02*
X148214286Y-118550057D01*
X148214286Y-118550057D02*
X148261905Y-118502438D01*
X148261905Y-118502438D02*
X148357143Y-118454819D01*
X148357143Y-118454819D02*
X148595238Y-118454819D01*
X148595238Y-118454819D02*
X148738095Y-118502438D01*
X149071429Y-118454819D02*
X149309524Y-119454819D01*
X149309524Y-119454819D02*
X149500000Y-118740533D01*
X149500000Y-118740533D02*
X149690476Y-119454819D01*
X149690476Y-119454819D02*
X149928572Y-118454819D01*
X150833333Y-119454819D02*
X150261905Y-119454819D01*
X150547619Y-119454819D02*
X150547619Y-118454819D01*
X150547619Y-118454819D02*
X150452381Y-118597676D01*
X150452381Y-118597676D02*
X150357143Y-118692914D01*
X150357143Y-118692914D02*
X150261905Y-118740533D01*
X132787200Y-102233332D02*
X132834819Y-102090475D01*
X132834819Y-102090475D02*
X132834819Y-101852380D01*
X132834819Y-101852380D02*
X132787200Y-101757142D01*
X132787200Y-101757142D02*
X132739580Y-101709523D01*
X132739580Y-101709523D02*
X132644342Y-101661904D01*
X132644342Y-101661904D02*
X132549104Y-101661904D01*
X132549104Y-101661904D02*
X132453866Y-101709523D01*
X132453866Y-101709523D02*
X132406247Y-101757142D01*
X132406247Y-101757142D02*
X132358628Y-101852380D01*
X132358628Y-101852380D02*
X132311009Y-102042856D01*
X132311009Y-102042856D02*
X132263390Y-102138094D01*
X132263390Y-102138094D02*
X132215771Y-102185713D01*
X132215771Y-102185713D02*
X132120533Y-102233332D01*
X132120533Y-102233332D02*
X132025295Y-102233332D01*
X132025295Y-102233332D02*
X131930057Y-102185713D01*
X131930057Y-102185713D02*
X131882438Y-102138094D01*
X131882438Y-102138094D02*
X131834819Y-102042856D01*
X131834819Y-102042856D02*
X131834819Y-101804761D01*
X131834819Y-101804761D02*
X131882438Y-101661904D01*
X131834819Y-101328570D02*
X132834819Y-101090475D01*
X132834819Y-101090475D02*
X132120533Y-100899999D01*
X132120533Y-100899999D02*
X132834819Y-100709523D01*
X132834819Y-100709523D02*
X131834819Y-100471428D01*
X131930057Y-100138094D02*
X131882438Y-100090475D01*
X131882438Y-100090475D02*
X131834819Y-99995237D01*
X131834819Y-99995237D02*
X131834819Y-99757142D01*
X131834819Y-99757142D02*
X131882438Y-99661904D01*
X131882438Y-99661904D02*
X131930057Y-99614285D01*
X131930057Y-99614285D02*
X132025295Y-99566666D01*
X132025295Y-99566666D02*
X132120533Y-99566666D01*
X132120533Y-99566666D02*
X132263390Y-99614285D01*
X132263390Y-99614285D02*
X132834819Y-100185713D01*
X132834819Y-100185713D02*
X132834819Y-99566666D01*
X136683333Y-89959580D02*
X136635714Y-90007200D01*
X136635714Y-90007200D02*
X136492857Y-90054819D01*
X136492857Y-90054819D02*
X136397619Y-90054819D01*
X136397619Y-90054819D02*
X136254762Y-90007200D01*
X136254762Y-90007200D02*
X136159524Y-89911961D01*
X136159524Y-89911961D02*
X136111905Y-89816723D01*
X136111905Y-89816723D02*
X136064286Y-89626247D01*
X136064286Y-89626247D02*
X136064286Y-89483390D01*
X136064286Y-89483390D02*
X136111905Y-89292914D01*
X136111905Y-89292914D02*
X136159524Y-89197676D01*
X136159524Y-89197676D02*
X136254762Y-89102438D01*
X136254762Y-89102438D02*
X136397619Y-89054819D01*
X136397619Y-89054819D02*
X136492857Y-89054819D01*
X136492857Y-89054819D02*
X136635714Y-89102438D01*
X136635714Y-89102438D02*
X136683333Y-89150057D01*
X137064286Y-89150057D02*
X137111905Y-89102438D01*
X137111905Y-89102438D02*
X137207143Y-89054819D01*
X137207143Y-89054819D02*
X137445238Y-89054819D01*
X137445238Y-89054819D02*
X137540476Y-89102438D01*
X137540476Y-89102438D02*
X137588095Y-89150057D01*
X137588095Y-89150057D02*
X137635714Y-89245295D01*
X137635714Y-89245295D02*
X137635714Y-89340533D01*
X137635714Y-89340533D02*
X137588095Y-89483390D01*
X137588095Y-89483390D02*
X137016667Y-90054819D01*
X137016667Y-90054819D02*
X137635714Y-90054819D01*
X149833333Y-97604819D02*
X149500000Y-97128628D01*
X149261905Y-97604819D02*
X149261905Y-96604819D01*
X149261905Y-96604819D02*
X149642857Y-96604819D01*
X149642857Y-96604819D02*
X149738095Y-96652438D01*
X149738095Y-96652438D02*
X149785714Y-96700057D01*
X149785714Y-96700057D02*
X149833333Y-96795295D01*
X149833333Y-96795295D02*
X149833333Y-96938152D01*
X149833333Y-96938152D02*
X149785714Y-97033390D01*
X149785714Y-97033390D02*
X149738095Y-97081009D01*
X149738095Y-97081009D02*
X149642857Y-97128628D01*
X149642857Y-97128628D02*
X149261905Y-97128628D01*
X150738095Y-96604819D02*
X150261905Y-96604819D01*
X150261905Y-96604819D02*
X150214286Y-97081009D01*
X150214286Y-97081009D02*
X150261905Y-97033390D01*
X150261905Y-97033390D02*
X150357143Y-96985771D01*
X150357143Y-96985771D02*
X150595238Y-96985771D01*
X150595238Y-96985771D02*
X150690476Y-97033390D01*
X150690476Y-97033390D02*
X150738095Y-97081009D01*
X150738095Y-97081009D02*
X150785714Y-97176247D01*
X150785714Y-97176247D02*
X150785714Y-97414342D01*
X150785714Y-97414342D02*
X150738095Y-97509580D01*
X150738095Y-97509580D02*
X150690476Y-97557200D01*
X150690476Y-97557200D02*
X150595238Y-97604819D01*
X150595238Y-97604819D02*
X150357143Y-97604819D01*
X150357143Y-97604819D02*
X150261905Y-97557200D01*
X150261905Y-97557200D02*
X150214286Y-97509580D01*
X129383333Y-92659580D02*
X129335714Y-92707200D01*
X129335714Y-92707200D02*
X129192857Y-92754819D01*
X129192857Y-92754819D02*
X129097619Y-92754819D01*
X129097619Y-92754819D02*
X128954762Y-92707200D01*
X128954762Y-92707200D02*
X128859524Y-92611961D01*
X128859524Y-92611961D02*
X128811905Y-92516723D01*
X128811905Y-92516723D02*
X128764286Y-92326247D01*
X128764286Y-92326247D02*
X128764286Y-92183390D01*
X128764286Y-92183390D02*
X128811905Y-91992914D01*
X128811905Y-91992914D02*
X128859524Y-91897676D01*
X128859524Y-91897676D02*
X128954762Y-91802438D01*
X128954762Y-91802438D02*
X129097619Y-91754819D01*
X129097619Y-91754819D02*
X129192857Y-91754819D01*
X129192857Y-91754819D02*
X129335714Y-91802438D01*
X129335714Y-91802438D02*
X129383333Y-91850057D01*
X130240476Y-92088152D02*
X130240476Y-92754819D01*
X130002381Y-91707200D02*
X129764286Y-92421485D01*
X129764286Y-92421485D02*
X130383333Y-92421485D01*
X143183333Y-89939580D02*
X143135714Y-89987200D01*
X143135714Y-89987200D02*
X142992857Y-90034819D01*
X142992857Y-90034819D02*
X142897619Y-90034819D01*
X142897619Y-90034819D02*
X142754762Y-89987200D01*
X142754762Y-89987200D02*
X142659524Y-89891961D01*
X142659524Y-89891961D02*
X142611905Y-89796723D01*
X142611905Y-89796723D02*
X142564286Y-89606247D01*
X142564286Y-89606247D02*
X142564286Y-89463390D01*
X142564286Y-89463390D02*
X142611905Y-89272914D01*
X142611905Y-89272914D02*
X142659524Y-89177676D01*
X142659524Y-89177676D02*
X142754762Y-89082438D01*
X142754762Y-89082438D02*
X142897619Y-89034819D01*
X142897619Y-89034819D02*
X142992857Y-89034819D01*
X142992857Y-89034819D02*
X143135714Y-89082438D01*
X143135714Y-89082438D02*
X143183333Y-89130057D01*
X144135714Y-90034819D02*
X143564286Y-90034819D01*
X143850000Y-90034819D02*
X143850000Y-89034819D01*
X143850000Y-89034819D02*
X143754762Y-89177676D01*
X143754762Y-89177676D02*
X143659524Y-89272914D01*
X143659524Y-89272914D02*
X143564286Y-89320533D01*
X142941666Y-117954819D02*
X142941666Y-118669104D01*
X142941666Y-118669104D02*
X142894047Y-118811961D01*
X142894047Y-118811961D02*
X142798809Y-118907200D01*
X142798809Y-118907200D02*
X142655952Y-118954819D01*
X142655952Y-118954819D02*
X142560714Y-118954819D01*
X143941666Y-118954819D02*
X143370238Y-118954819D01*
X143655952Y-118954819D02*
X143655952Y-117954819D01*
X143655952Y-117954819D02*
X143560714Y-118097676D01*
X143560714Y-118097676D02*
X143465476Y-118192914D01*
X143465476Y-118192914D02*
X143370238Y-118240533D01*
X150333333Y-108454819D02*
X150000000Y-107978628D01*
X149761905Y-108454819D02*
X149761905Y-107454819D01*
X149761905Y-107454819D02*
X150142857Y-107454819D01*
X150142857Y-107454819D02*
X150238095Y-107502438D01*
X150238095Y-107502438D02*
X150285714Y-107550057D01*
X150285714Y-107550057D02*
X150333333Y-107645295D01*
X150333333Y-107645295D02*
X150333333Y-107788152D01*
X150333333Y-107788152D02*
X150285714Y-107883390D01*
X150285714Y-107883390D02*
X150238095Y-107931009D01*
X150238095Y-107931009D02*
X150142857Y-107978628D01*
X150142857Y-107978628D02*
X149761905Y-107978628D01*
X151285714Y-108454819D02*
X150714286Y-108454819D01*
X151000000Y-108454819D02*
X151000000Y-107454819D01*
X151000000Y-107454819D02*
X150904762Y-107597676D01*
X150904762Y-107597676D02*
X150809524Y-107692914D01*
X150809524Y-107692914D02*
X150714286Y-107740533D01*
X120909819Y-93621904D02*
X121719342Y-93621904D01*
X121719342Y-93621904D02*
X121814580Y-93574285D01*
X121814580Y-93574285D02*
X121862200Y-93526666D01*
X121862200Y-93526666D02*
X121909819Y-93431428D01*
X121909819Y-93431428D02*
X121909819Y-93240952D01*
X121909819Y-93240952D02*
X121862200Y-93145714D01*
X121862200Y-93145714D02*
X121814580Y-93098095D01*
X121814580Y-93098095D02*
X121719342Y-93050476D01*
X121719342Y-93050476D02*
X120909819Y-93050476D01*
X121005057Y-92621904D02*
X120957438Y-92574285D01*
X120957438Y-92574285D02*
X120909819Y-92479047D01*
X120909819Y-92479047D02*
X120909819Y-92240952D01*
X120909819Y-92240952D02*
X120957438Y-92145714D01*
X120957438Y-92145714D02*
X121005057Y-92098095D01*
X121005057Y-92098095D02*
X121100295Y-92050476D01*
X121100295Y-92050476D02*
X121195533Y-92050476D01*
X121195533Y-92050476D02*
X121338390Y-92098095D01*
X121338390Y-92098095D02*
X121909819Y-92669523D01*
X121909819Y-92669523D02*
X121909819Y-92050476D01*
X159454819Y-113253333D02*
X160169104Y-113253333D01*
X160169104Y-113253333D02*
X160311961Y-113300952D01*
X160311961Y-113300952D02*
X160407200Y-113396190D01*
X160407200Y-113396190D02*
X160454819Y-113539047D01*
X160454819Y-113539047D02*
X160454819Y-113634285D01*
X159550057Y-112824761D02*
X159502438Y-112777142D01*
X159502438Y-112777142D02*
X159454819Y-112681904D01*
X159454819Y-112681904D02*
X159454819Y-112443809D01*
X159454819Y-112443809D02*
X159502438Y-112348571D01*
X159502438Y-112348571D02*
X159550057Y-112300952D01*
X159550057Y-112300952D02*
X159645295Y-112253333D01*
X159645295Y-112253333D02*
X159740533Y-112253333D01*
X159740533Y-112253333D02*
X159883390Y-112300952D01*
X159883390Y-112300952D02*
X160454819Y-112872380D01*
X160454819Y-112872380D02*
X160454819Y-112253333D01*
X141954819Y-102761904D02*
X142764342Y-102761904D01*
X142764342Y-102761904D02*
X142859580Y-102714285D01*
X142859580Y-102714285D02*
X142907200Y-102666666D01*
X142907200Y-102666666D02*
X142954819Y-102571428D01*
X142954819Y-102571428D02*
X142954819Y-102380952D01*
X142954819Y-102380952D02*
X142907200Y-102285714D01*
X142907200Y-102285714D02*
X142859580Y-102238095D01*
X142859580Y-102238095D02*
X142764342Y-102190476D01*
X142764342Y-102190476D02*
X141954819Y-102190476D01*
X142954819Y-101190476D02*
X142954819Y-101761904D01*
X142954819Y-101476190D02*
X141954819Y-101476190D01*
X141954819Y-101476190D02*
X142097676Y-101571428D01*
X142097676Y-101571428D02*
X142192914Y-101666666D01*
X142192914Y-101666666D02*
X142240533Y-101761904D01*
X152254819Y-106706666D02*
X151778628Y-107039999D01*
X152254819Y-107278094D02*
X151254819Y-107278094D01*
X151254819Y-107278094D02*
X151254819Y-106897142D01*
X151254819Y-106897142D02*
X151302438Y-106801904D01*
X151302438Y-106801904D02*
X151350057Y-106754285D01*
X151350057Y-106754285D02*
X151445295Y-106706666D01*
X151445295Y-106706666D02*
X151588152Y-106706666D01*
X151588152Y-106706666D02*
X151683390Y-106754285D01*
X151683390Y-106754285D02*
X151731009Y-106801904D01*
X151731009Y-106801904D02*
X151778628Y-106897142D01*
X151778628Y-106897142D02*
X151778628Y-107278094D01*
X151254819Y-106373332D02*
X151254819Y-105754285D01*
X151254819Y-105754285D02*
X151635771Y-106087618D01*
X151635771Y-106087618D02*
X151635771Y-105944761D01*
X151635771Y-105944761D02*
X151683390Y-105849523D01*
X151683390Y-105849523D02*
X151731009Y-105801904D01*
X151731009Y-105801904D02*
X151826247Y-105754285D01*
X151826247Y-105754285D02*
X152064342Y-105754285D01*
X152064342Y-105754285D02*
X152159580Y-105801904D01*
X152159580Y-105801904D02*
X152207200Y-105849523D01*
X152207200Y-105849523D02*
X152254819Y-105944761D01*
X152254819Y-105944761D02*
X152254819Y-106230475D01*
X152254819Y-106230475D02*
X152207200Y-106325713D01*
X152207200Y-106325713D02*
X152159580Y-106373332D01*
X154761905Y-88954819D02*
X154761905Y-87954819D01*
X154761905Y-87954819D02*
X155000000Y-87954819D01*
X155000000Y-87954819D02*
X155142857Y-88002438D01*
X155142857Y-88002438D02*
X155238095Y-88097676D01*
X155238095Y-88097676D02*
X155285714Y-88192914D01*
X155285714Y-88192914D02*
X155333333Y-88383390D01*
X155333333Y-88383390D02*
X155333333Y-88526247D01*
X155333333Y-88526247D02*
X155285714Y-88716723D01*
X155285714Y-88716723D02*
X155238095Y-88811961D01*
X155238095Y-88811961D02*
X155142857Y-88907200D01*
X155142857Y-88907200D02*
X155000000Y-88954819D01*
X155000000Y-88954819D02*
X154761905Y-88954819D01*
X155714286Y-88050057D02*
X155761905Y-88002438D01*
X155761905Y-88002438D02*
X155857143Y-87954819D01*
X155857143Y-87954819D02*
X156095238Y-87954819D01*
X156095238Y-87954819D02*
X156190476Y-88002438D01*
X156190476Y-88002438D02*
X156238095Y-88050057D01*
X156238095Y-88050057D02*
X156285714Y-88145295D01*
X156285714Y-88145295D02*
X156285714Y-88240533D01*
X156285714Y-88240533D02*
X156238095Y-88383390D01*
X156238095Y-88383390D02*
X155666667Y-88954819D01*
X155666667Y-88954819D02*
X156285714Y-88954819D01*
X152254819Y-101366666D02*
X151778628Y-101699999D01*
X152254819Y-101938094D02*
X151254819Y-101938094D01*
X151254819Y-101938094D02*
X151254819Y-101557142D01*
X151254819Y-101557142D02*
X151302438Y-101461904D01*
X151302438Y-101461904D02*
X151350057Y-101414285D01*
X151350057Y-101414285D02*
X151445295Y-101366666D01*
X151445295Y-101366666D02*
X151588152Y-101366666D01*
X151588152Y-101366666D02*
X151683390Y-101414285D01*
X151683390Y-101414285D02*
X151731009Y-101461904D01*
X151731009Y-101461904D02*
X151778628Y-101557142D01*
X151778628Y-101557142D02*
X151778628Y-101938094D01*
X151350057Y-100985713D02*
X151302438Y-100938094D01*
X151302438Y-100938094D02*
X151254819Y-100842856D01*
X151254819Y-100842856D02*
X151254819Y-100604761D01*
X151254819Y-100604761D02*
X151302438Y-100509523D01*
X151302438Y-100509523D02*
X151350057Y-100461904D01*
X151350057Y-100461904D02*
X151445295Y-100414285D01*
X151445295Y-100414285D02*
X151540533Y-100414285D01*
X151540533Y-100414285D02*
X151683390Y-100461904D01*
X151683390Y-100461904D02*
X152254819Y-101033332D01*
X152254819Y-101033332D02*
X152254819Y-100414285D01*
X147261905Y-90454819D02*
X147261905Y-89454819D01*
X147261905Y-89454819D02*
X147500000Y-89454819D01*
X147500000Y-89454819D02*
X147642857Y-89502438D01*
X147642857Y-89502438D02*
X147738095Y-89597676D01*
X147738095Y-89597676D02*
X147785714Y-89692914D01*
X147785714Y-89692914D02*
X147833333Y-89883390D01*
X147833333Y-89883390D02*
X147833333Y-90026247D01*
X147833333Y-90026247D02*
X147785714Y-90216723D01*
X147785714Y-90216723D02*
X147738095Y-90311961D01*
X147738095Y-90311961D02*
X147642857Y-90407200D01*
X147642857Y-90407200D02*
X147500000Y-90454819D01*
X147500000Y-90454819D02*
X147261905Y-90454819D01*
X148785714Y-90454819D02*
X148214286Y-90454819D01*
X148500000Y-90454819D02*
X148500000Y-89454819D01*
X148500000Y-89454819D02*
X148404762Y-89597676D01*
X148404762Y-89597676D02*
X148309524Y-89692914D01*
X148309524Y-89692914D02*
X148214286Y-89740533D01*
X153954819Y-94293333D02*
X154669104Y-94293333D01*
X154669104Y-94293333D02*
X154811961Y-94340952D01*
X154811961Y-94340952D02*
X154907200Y-94436190D01*
X154907200Y-94436190D02*
X154954819Y-94579047D01*
X154954819Y-94579047D02*
X154954819Y-94674285D01*
X154288152Y-93388571D02*
X154954819Y-93388571D01*
X153907200Y-93626666D02*
X154621485Y-93864761D01*
X154621485Y-93864761D02*
X154621485Y-93245714D01*
X129333333Y-94179580D02*
X129285714Y-94227200D01*
X129285714Y-94227200D02*
X129142857Y-94274819D01*
X129142857Y-94274819D02*
X129047619Y-94274819D01*
X129047619Y-94274819D02*
X128904762Y-94227200D01*
X128904762Y-94227200D02*
X128809524Y-94131961D01*
X128809524Y-94131961D02*
X128761905Y-94036723D01*
X128761905Y-94036723D02*
X128714286Y-93846247D01*
X128714286Y-93846247D02*
X128714286Y-93703390D01*
X128714286Y-93703390D02*
X128761905Y-93512914D01*
X128761905Y-93512914D02*
X128809524Y-93417676D01*
X128809524Y-93417676D02*
X128904762Y-93322438D01*
X128904762Y-93322438D02*
X129047619Y-93274819D01*
X129047619Y-93274819D02*
X129142857Y-93274819D01*
X129142857Y-93274819D02*
X129285714Y-93322438D01*
X129285714Y-93322438D02*
X129333333Y-93370057D01*
X129666667Y-93274819D02*
X130285714Y-93274819D01*
X130285714Y-93274819D02*
X129952381Y-93655771D01*
X129952381Y-93655771D02*
X130095238Y-93655771D01*
X130095238Y-93655771D02*
X130190476Y-93703390D01*
X130190476Y-93703390D02*
X130238095Y-93751009D01*
X130238095Y-93751009D02*
X130285714Y-93846247D01*
X130285714Y-93846247D02*
X130285714Y-94084342D01*
X130285714Y-94084342D02*
X130238095Y-94179580D01*
X130238095Y-94179580D02*
X130190476Y-94227200D01*
X130190476Y-94227200D02*
X130095238Y-94274819D01*
X130095238Y-94274819D02*
X129809524Y-94274819D01*
X129809524Y-94274819D02*
X129714286Y-94227200D01*
X129714286Y-94227200D02*
X129666667Y-94179580D01*
D11*
%TO.C,R4*%
X150227064Y-91765000D02*
X149772936Y-91765000D01*
X150227064Y-93235000D02*
X149772936Y-93235000D01*
D12*
%TO.C,J5*%
X121500000Y-105300000D02*
X123350000Y-105300000D01*
X121500000Y-119700000D02*
X121500000Y-105300000D01*
X128550000Y-105300000D02*
X130500000Y-105300000D01*
X130500000Y-105300000D02*
X130500000Y-106450000D01*
X130500000Y-111550000D02*
X130500000Y-119700000D01*
X130500000Y-119700000D02*
X121500000Y-119700000D01*
D13*
X126200000Y-104000000D02*
G75*
G02*
X125800000Y-104000000I-200000J0D01*
G01*
X125800000Y-104000000D02*
G75*
G02*
X126200000Y-104000000I200000J0D01*
G01*
D11*
%TO.C,J3*%
X156170000Y-104730000D02*
X156170000Y-99590000D01*
X158830000Y-99590000D02*
X156170000Y-99590000D01*
X158830000Y-104730000D02*
X156170000Y-104730000D01*
X158830000Y-104730000D02*
X158830000Y-99590000D01*
X158830000Y-106000000D02*
X158830000Y-107330000D01*
X158830000Y-107330000D02*
X157500000Y-107330000D01*
%TO.C,Y1*%
X134100000Y-95550000D02*
X146700000Y-95550000D01*
X146700000Y-90450000D02*
X134100000Y-90450000D01*
X146700000Y-95550000D02*
X146700000Y-90450000D01*
%TO.C,SW1*%
X151400000Y-112650000D02*
X151400000Y-118850000D01*
X151860000Y-112650000D02*
X151400000Y-112650000D01*
X151860000Y-118850000D02*
X151400000Y-118850000D01*
X154640000Y-112650000D02*
X154640000Y-111650000D01*
X155100000Y-112650000D02*
X154640000Y-112650000D01*
X155100000Y-118850000D02*
X154640000Y-118850000D01*
X155100000Y-118850000D02*
X155100000Y-112650000D01*
X153800000Y-114250000D02*
X152750000Y-114250000D01*
X152750000Y-117100000D01*
X153800000Y-117100000D01*
X153800000Y-114250000D01*
%TO.C,SW2*%
X130140000Y-103350000D02*
X130140000Y-102040000D01*
X130140000Y-103350000D02*
X128757000Y-103350000D01*
X129900000Y-103110000D02*
X129900000Y-102040000D01*
X129900000Y-103110000D02*
X123079000Y-103110000D01*
X129900000Y-99960000D02*
X129900000Y-98890000D01*
X129900000Y-98890000D02*
X123079000Y-98890000D01*
X128300000Y-101635000D02*
X128300000Y-100365000D01*
X128300000Y-101515000D02*
X127093333Y-101515000D01*
X128300000Y-101395000D02*
X127093333Y-101395000D01*
X128300000Y-101275000D02*
X127093333Y-101275000D01*
X128300000Y-101155000D02*
X127093333Y-101155000D01*
X128300000Y-101035000D02*
X127093333Y-101035000D01*
X128300000Y-100915000D02*
X127093333Y-100915000D01*
X128300000Y-100795000D02*
X127093333Y-100795000D01*
X128300000Y-100675000D02*
X127093333Y-100675000D01*
X128300000Y-100555000D02*
X127093333Y-100555000D01*
X128300000Y-100435000D02*
X127093333Y-100435000D01*
X128300000Y-100365000D02*
X124680000Y-100365000D01*
X127093333Y-101635000D02*
X127093333Y-100365000D01*
X124680000Y-101635000D02*
X128300000Y-101635000D01*
X124680000Y-100365000D02*
X124680000Y-101635000D01*
X123079000Y-103110000D02*
X123079000Y-101990000D01*
X123079000Y-100010000D02*
X123079000Y-98890000D01*
%TO.C,C2*%
X136388748Y-87065000D02*
X136911252Y-87065000D01*
X136388748Y-88535000D02*
X136911252Y-88535000D01*
%TO.C,R5*%
X150227064Y-94765000D02*
X149772936Y-94765000D01*
X150227064Y-96235000D02*
X149772936Y-96235000D01*
%TO.C,C4*%
X129188748Y-91235000D02*
X129711252Y-91235000D01*
X129188748Y-89765000D02*
X129711252Y-89765000D01*
%TO.C,C1*%
X143611252Y-87165000D02*
X143088748Y-87165000D01*
X143611252Y-88635000D02*
X143088748Y-88635000D01*
%TO.C,J1*%
X136885000Y-111645000D02*
X136885000Y-116845000D01*
X147105000Y-111645000D02*
X136885000Y-111645000D01*
X147105000Y-111645000D02*
X147105000Y-114245000D01*
X147105000Y-114245000D02*
X149705000Y-114245000D01*
X148375000Y-111645000D02*
X149705000Y-111645000D01*
X149705000Y-111645000D02*
X149705000Y-112975000D01*
X149705000Y-114245000D02*
X149705000Y-116845000D01*
X149705000Y-116845000D02*
X136885000Y-116845000D01*
%TO.C,R1*%
X150727064Y-108765000D02*
X150272936Y-108765000D01*
X150727064Y-110235000D02*
X150272936Y-110235000D01*
%TO.C,U2*%
X122230000Y-87840000D02*
X126871000Y-87840000D01*
X122230000Y-91109000D02*
X123740000Y-91109000D01*
X122230000Y-94810000D02*
X123740000Y-94810000D01*
X126871000Y-98080000D02*
X126871000Y-87840000D01*
X123740000Y-98080000D02*
X123740000Y-87840000D01*
X122230000Y-98080000D02*
X122230000Y-87840000D01*
X122230000Y-98080000D02*
X126871000Y-98080000D01*
%TO.C,J2*%
X156170000Y-114230000D02*
X156170000Y-109090000D01*
X158830000Y-109090000D02*
X156170000Y-109090000D01*
X158830000Y-114230000D02*
X156170000Y-114230000D01*
X158830000Y-114230000D02*
X158830000Y-109090000D01*
X158830000Y-115500000D02*
X158830000Y-116830000D01*
X158830000Y-116830000D02*
X157500000Y-116830000D01*
D10*
%TO.C,U1*%
X138875000Y-98375000D02*
X138875000Y-98700000D01*
X138875000Y-98375000D02*
X139200000Y-98375000D01*
X138875000Y-105625000D02*
X138875000Y-105300000D01*
X138875000Y-105625000D02*
X139200000Y-105625000D01*
X146125000Y-98375000D02*
X145900000Y-98375000D01*
X146125000Y-98375000D02*
X146125000Y-98700000D01*
X146125000Y-105625000D02*
X145800000Y-105625000D01*
X146125000Y-105625000D02*
X146125000Y-105300000D01*
D11*
X146310000Y-97950000D02*
X145840000Y-97610000D01*
X146310000Y-97270000D01*
X146310000Y-97950000D01*
G36*
X146310000Y-97950000D02*
G01*
X145840000Y-97610000D01*
X146310000Y-97270000D01*
X146310000Y-97950000D01*
G37*
%TO.C,R3*%
X152765000Y-106312936D02*
X152765000Y-106767064D01*
X154235000Y-106312936D02*
X154235000Y-106767064D01*
%TO.C,D2*%
X151920000Y-84935000D02*
X151764000Y-84935000D01*
X154236000Y-84935000D02*
X154080000Y-84935000D01*
X151920163Y-87536130D02*
G75*
G02*
X151920000Y-85454039I1079837J1041130D01*
G01*
X151921392Y-88167335D02*
G75*
G02*
X151764484Y-84935000I1078608J1672335D01*
G01*
X154080000Y-85454039D02*
G75*
G02*
X154079837Y-87536130I-1080000J-1040961D01*
G01*
X154235516Y-84935000D02*
G75*
G02*
X154078608Y-88167335I-1235516J-1560000D01*
G01*
%TO.C,R2*%
X152765000Y-102727064D02*
X152765000Y-102272936D01*
X154235000Y-102727064D02*
X154235000Y-102272936D01*
%TO.C,D1*%
X146920000Y-84895000D02*
X146764000Y-84895000D01*
X149236000Y-84895000D02*
X149080000Y-84895000D01*
X146920163Y-87496130D02*
G75*
G02*
X146920000Y-85414039I1079837J1041130D01*
G01*
X146921392Y-88127335D02*
G75*
G02*
X146764484Y-84895000I1078608J1672335D01*
G01*
X149080000Y-85414039D02*
G75*
G02*
X149079837Y-87496130I-1080000J-1040961D01*
G01*
X149235516Y-84895000D02*
G75*
G02*
X149078608Y-88127335I-1235516J-1560000D01*
G01*
%TO.C,J4*%
X158830000Y-97830000D02*
X157500000Y-97830000D01*
X158830000Y-96500000D02*
X158830000Y-97830000D01*
X158830000Y-95230000D02*
X158830000Y-90090000D01*
X158830000Y-95230000D02*
X156170000Y-95230000D01*
X158830000Y-90090000D02*
X156170000Y-90090000D01*
X156170000Y-95230000D02*
X156170000Y-90090000D01*
%TO.C,C3*%
X129238748Y-96235000D02*
X129761252Y-96235000D01*
X129238748Y-94765000D02*
X129761252Y-94765000D01*
%TD*%
M02*
