%TF.GenerationSoftware,KiCad,Pcbnew,8.0.6*%
%TF.CreationDate,2024-11-05T10:52:09-07:00*%
%TF.ProjectId,ProjectPCB,50726f6a-6563-4745-9043-422e6b696361,rev?*%
%TF.SameCoordinates,Original*%
%TF.FileFunction,Copper,L3,Inr*%
%TF.FilePolarity,Positive*%
%FSLAX46Y46*%
G04 Gerber Fmt 4.6, Leading zero omitted, Abs format (unit mm)*
G04 Created by KiCad (PCBNEW 8.0.6) date 2024-11-05 10:52:09*
%MOMM*%
%LPD*%
G01*
G04 APERTURE LIST*
%TA.AperFunction,ComponentPad*%
%ADD10C,3.800000*%
%TD*%
%TA.AperFunction,ComponentPad*%
%ADD11O,5.000000X2.500000*%
%TD*%
%TA.AperFunction,ComponentPad*%
%ADD12O,4.500000X2.250000*%
%TD*%
%TA.AperFunction,ComponentPad*%
%ADD13O,2.250000X4.500000*%
%TD*%
%TA.AperFunction,ComponentPad*%
%ADD14R,1.700000X1.700000*%
%TD*%
%TA.AperFunction,ComponentPad*%
%ADD15O,1.700000X1.700000*%
%TD*%
%TA.AperFunction,ComponentPad*%
%ADD16R,2.250000X2.250000*%
%TD*%
%TA.AperFunction,ComponentPad*%
%ADD17C,2.250000*%
%TD*%
%TA.AperFunction,ComponentPad*%
%ADD18R,1.600000X1.600000*%
%TD*%
%TA.AperFunction,ComponentPad*%
%ADD19O,1.600000X1.600000*%
%TD*%
%TA.AperFunction,ComponentPad*%
%ADD20O,2.000000X1.905000*%
%TD*%
%TA.AperFunction,ComponentPad*%
%ADD21R,2.000000X1.905000*%
%TD*%
%TA.AperFunction,ComponentPad*%
%ADD22R,1.800000X1.800000*%
%TD*%
%TA.AperFunction,ComponentPad*%
%ADD23C,1.800000*%
%TD*%
%TA.AperFunction,ViaPad*%
%ADD24C,0.600000*%
%TD*%
G04 APERTURE END LIST*
D10*
%TO.N,GND*%
%TO.C,H3*%
X133500000Y-117000000D03*
%TD*%
%TO.N,GND*%
%TO.C,H2*%
X123500000Y-85500000D03*
%TD*%
%TO.N,GND*%
%TO.C,H1*%
X158000000Y-85500000D03*
%TD*%
D11*
%TO.N,Net-(SW2-A)*%
%TO.C,J5*%
X126000000Y-106000000D03*
D12*
%TO.N,GND*%
X126000000Y-112000000D03*
D13*
X130700000Y-109000000D03*
%TD*%
D14*
%TO.N,Net-(J3-Pin_1)*%
%TO.C,J3*%
X157500000Y-106000000D03*
D15*
%TO.N,Net-(J3-Pin_2)*%
X157500000Y-103460000D03*
%TO.N,GND*%
X157500000Y-100920000D03*
%TD*%
D16*
%TO.N,Net-(J1-Pin_5)*%
%TO.C,SW1*%
X153250000Y-112500000D03*
D17*
%TO.N,GND*%
X153250000Y-119000000D03*
%TD*%
D18*
%TO.N,Net-(SW2-A)*%
%TO.C,SW2*%
X130300000Y-101000000D03*
D19*
%TO.N,Net-(SW2-B)*%
X122680000Y-101000000D03*
%TD*%
D14*
%TO.N,Net-(J1-Pin_1)*%
%TO.C,J1*%
X148375000Y-112975000D03*
D15*
%TO.N,+5V*%
X148375000Y-115515000D03*
%TO.N,unconnected-(J1-Pin_3-Pad3)*%
X145835000Y-112975000D03*
%TO.N,GND*%
X145835000Y-115515000D03*
%TO.N,Net-(J1-Pin_5)*%
X143295000Y-112975000D03*
%TO.N,GND*%
X143295000Y-115515000D03*
%TO.N,Net-(J1-Pin_7)*%
X140755000Y-112975000D03*
%TO.N,GND*%
X140755000Y-115515000D03*
%TO.N,Net-(J1-Pin_9)*%
X138215000Y-112975000D03*
%TO.N,GND*%
X138215000Y-115515000D03*
%TD*%
D20*
%TO.N,+5V*%
%TO.C,U2*%
X125500000Y-90420000D03*
%TO.N,GND*%
X125500000Y-92960000D03*
D21*
%TO.N,Net-(SW2-B)*%
X125500000Y-95500000D03*
%TD*%
D14*
%TO.N,+5V*%
%TO.C,J2*%
X157500000Y-115500000D03*
D15*
%TO.N,Net-(J2-Pin_2)*%
X157500000Y-112960000D03*
%TO.N,GND*%
X157500000Y-110420000D03*
%TD*%
D22*
%TO.N,GND*%
%TO.C,D2*%
X153000000Y-85225000D03*
D23*
%TO.N,Net-(D2-A)*%
X153000000Y-87765000D03*
%TD*%
D22*
%TO.N,GND*%
%TO.C,D1*%
X148000000Y-85185000D03*
D23*
%TO.N,Net-(D1-A)*%
X148000000Y-87725000D03*
%TD*%
D14*
%TO.N,Net-(J4-Pin_1)*%
%TO.C,J4*%
X157500000Y-96500000D03*
D15*
%TO.N,+5V*%
X157500000Y-93960000D03*
%TO.N,GND*%
X157500000Y-91420000D03*
%TD*%
D24*
%TO.N,GND*%
X130450000Y-93000000D03*
X141500000Y-95500000D03*
X143600000Y-108950000D03*
%TO.N,+5V*%
X141300000Y-109050000D03*
X143500000Y-95500000D03*
X153400000Y-99600000D03*
X153500000Y-109500000D03*
%TO.N,Net-(J2-Pin_2)*%
X147500000Y-108000000D03*
%TD*%
%TA.AperFunction,Conductor*%
%TO.N,+5V*%
G36*
X160742539Y-82720185D02*
G01*
X160788294Y-82772989D01*
X160799500Y-82824500D01*
X160799500Y-120075500D01*
X160779815Y-120142539D01*
X160727011Y-120188294D01*
X160675500Y-120199500D01*
X154632181Y-120199500D01*
X154565142Y-120179815D01*
X154519387Y-120127011D01*
X154509443Y-120057853D01*
X154537890Y-119994969D01*
X154569122Y-119958400D01*
X154569121Y-119958400D01*
X154569123Y-119958399D01*
X154702809Y-119740243D01*
X154800722Y-119503860D01*
X154860452Y-119255070D01*
X154880526Y-119000000D01*
X154860452Y-118744930D01*
X154800722Y-118496140D01*
X154800720Y-118496135D01*
X154702811Y-118259760D01*
X154702809Y-118259757D01*
X154569123Y-118041601D01*
X154569122Y-118041600D01*
X154569121Y-118041598D01*
X154509319Y-117971579D01*
X154402956Y-117847044D01*
X154296591Y-117756200D01*
X154208401Y-117680878D01*
X154208396Y-117680875D01*
X153990242Y-117547190D01*
X153990239Y-117547188D01*
X153753864Y-117449279D01*
X153753860Y-117449278D01*
X153505070Y-117389548D01*
X153505067Y-117389547D01*
X153505064Y-117389547D01*
X153250000Y-117369474D01*
X152994935Y-117389547D01*
X152994931Y-117389547D01*
X152994930Y-117389548D01*
X152870535Y-117419413D01*
X152746135Y-117449279D01*
X152509760Y-117547188D01*
X152509757Y-117547190D01*
X152291603Y-117680875D01*
X152291598Y-117680878D01*
X152097044Y-117847044D01*
X151930878Y-118041598D01*
X151930875Y-118041603D01*
X151797190Y-118259757D01*
X151797188Y-118259760D01*
X151699279Y-118496135D01*
X151639547Y-118744935D01*
X151619474Y-119000000D01*
X151639547Y-119255064D01*
X151699279Y-119503864D01*
X151797188Y-119740239D01*
X151797190Y-119740242D01*
X151930875Y-119958396D01*
X151930877Y-119958400D01*
X151962110Y-119994969D01*
X151990680Y-120058730D01*
X151980243Y-120127816D01*
X151934112Y-120180292D01*
X151867819Y-120199500D01*
X120824500Y-120199500D01*
X120757461Y-120179815D01*
X120711706Y-120127011D01*
X120700500Y-120075500D01*
X120700500Y-116999994D01*
X131094754Y-116999994D01*
X131094754Y-117000005D01*
X131113718Y-117301446D01*
X131113719Y-117301453D01*
X131170320Y-117598164D01*
X131263659Y-117885431D01*
X131263661Y-117885436D01*
X131392265Y-118158732D01*
X131392268Y-118158738D01*
X131554111Y-118413763D01*
X131746652Y-118646505D01*
X131966836Y-118853272D01*
X131966846Y-118853280D01*
X132211193Y-119030808D01*
X132211198Y-119030810D01*
X132211205Y-119030816D01*
X132475896Y-119176332D01*
X132475901Y-119176334D01*
X132475903Y-119176335D01*
X132475904Y-119176336D01*
X132756734Y-119287524D01*
X132756737Y-119287525D01*
X132854259Y-119312564D01*
X133049302Y-119362642D01*
X133196039Y-119381179D01*
X133348963Y-119400499D01*
X133348969Y-119400499D01*
X133348973Y-119400500D01*
X133348975Y-119400500D01*
X133651025Y-119400500D01*
X133651027Y-119400500D01*
X133651032Y-119400499D01*
X133651036Y-119400499D01*
X133730591Y-119390448D01*
X133950698Y-119362642D01*
X134243262Y-119287525D01*
X134243265Y-119287524D01*
X134524095Y-119176336D01*
X134524096Y-119176335D01*
X134524094Y-119176335D01*
X134524104Y-119176332D01*
X134788795Y-119030816D01*
X135033162Y-118853274D01*
X135253349Y-118646504D01*
X135445885Y-118413768D01*
X135607733Y-118158736D01*
X135736341Y-117885430D01*
X135829681Y-117598160D01*
X135886280Y-117301457D01*
X135905246Y-117000000D01*
X135895534Y-116845634D01*
X135886281Y-116698553D01*
X135886280Y-116698546D01*
X135886280Y-116698543D01*
X135829681Y-116401840D01*
X135736341Y-116114570D01*
X135607733Y-115841264D01*
X135579828Y-115797293D01*
X135445888Y-115586236D01*
X135445885Y-115586232D01*
X135253349Y-115353496D01*
X135174649Y-115279592D01*
X135033163Y-115146727D01*
X135033153Y-115146719D01*
X134788806Y-114969191D01*
X134788799Y-114969186D01*
X134788795Y-114969184D01*
X134524104Y-114823668D01*
X134524101Y-114823666D01*
X134524096Y-114823664D01*
X134524095Y-114823663D01*
X134243265Y-114712475D01*
X134243262Y-114712474D01*
X133950695Y-114637357D01*
X133651036Y-114599500D01*
X133651027Y-114599500D01*
X133348973Y-114599500D01*
X133348963Y-114599500D01*
X133049304Y-114637357D01*
X132756737Y-114712474D01*
X132756734Y-114712475D01*
X132475904Y-114823663D01*
X132475903Y-114823664D01*
X132211205Y-114969184D01*
X132211193Y-114969191D01*
X131966846Y-115146719D01*
X131966836Y-115146727D01*
X131746652Y-115353494D01*
X131554111Y-115586236D01*
X131392268Y-115841261D01*
X131392265Y-115841267D01*
X131263661Y-116114563D01*
X131263659Y-116114568D01*
X131170320Y-116401835D01*
X131113719Y-116698546D01*
X131113718Y-116698553D01*
X131094754Y-116999994D01*
X120700500Y-116999994D01*
X120700500Y-111872070D01*
X123249500Y-111872070D01*
X123249500Y-112127929D01*
X123289526Y-112380640D01*
X123368588Y-112623972D01*
X123368589Y-112623975D01*
X123484750Y-112851950D01*
X123635132Y-113058935D01*
X123635136Y-113058940D01*
X123816059Y-113239863D01*
X123816064Y-113239867D01*
X123996607Y-113371038D01*
X124023053Y-113390252D01*
X124118065Y-113438663D01*
X124251024Y-113506410D01*
X124251027Y-113506411D01*
X124372693Y-113545942D01*
X124494361Y-113585474D01*
X124747070Y-113625500D01*
X124747071Y-113625500D01*
X127252929Y-113625500D01*
X127252930Y-113625500D01*
X127505639Y-113585474D01*
X127748975Y-113506410D01*
X127976947Y-113390252D01*
X128183942Y-113239862D01*
X128364862Y-113058942D01*
X128425850Y-112974999D01*
X136859341Y-112974999D01*
X136859341Y-112975000D01*
X136879936Y-113210403D01*
X136879938Y-113210413D01*
X136941094Y-113438655D01*
X136941096Y-113438659D01*
X136941097Y-113438663D01*
X136945000Y-113447032D01*
X137040965Y-113652830D01*
X137040967Y-113652834D01*
X137149281Y-113807521D01*
X137176501Y-113846396D01*
X137176506Y-113846402D01*
X137343597Y-114013493D01*
X137343603Y-114013498D01*
X137529158Y-114143425D01*
X137572783Y-114198002D01*
X137579977Y-114267500D01*
X137548454Y-114329855D01*
X137529158Y-114346575D01*
X137343597Y-114476505D01*
X137176505Y-114643597D01*
X137040965Y-114837169D01*
X137040964Y-114837171D01*
X136941098Y-115051335D01*
X136941094Y-115051344D01*
X136879938Y-115279586D01*
X136879936Y-115279596D01*
X136859341Y-115514999D01*
X136859341Y-115515000D01*
X136879936Y-115750403D01*
X136879938Y-115750413D01*
X136941094Y-115978655D01*
X136941096Y-115978659D01*
X136941097Y-115978663D01*
X137021004Y-116150023D01*
X137040965Y-116192830D01*
X137040967Y-116192834D01*
X137149281Y-116347521D01*
X137176505Y-116386401D01*
X137343599Y-116553495D01*
X137398713Y-116592086D01*
X137537165Y-116689032D01*
X137537167Y-116689033D01*
X137537170Y-116689035D01*
X137751337Y-116788903D01*
X137751343Y-116788904D01*
X137751344Y-116788905D01*
X137806285Y-116803626D01*
X137979592Y-116850063D01*
X138167918Y-116866539D01*
X138214999Y-116870659D01*
X138215000Y-116870659D01*
X138215001Y-116870659D01*
X138254234Y-116867226D01*
X138450408Y-116850063D01*
X138678663Y-116788903D01*
X138892830Y-116689035D01*
X139086401Y-116553495D01*
X139253495Y-116386401D01*
X139383425Y-116200842D01*
X139438002Y-116157217D01*
X139507500Y-116150023D01*
X139569855Y-116181546D01*
X139586575Y-116200842D01*
X139716500Y-116386395D01*
X139716505Y-116386401D01*
X139883599Y-116553495D01*
X139938713Y-116592086D01*
X140077165Y-116689032D01*
X140077167Y-116689033D01*
X140077170Y-116689035D01*
X140291337Y-116788903D01*
X140291343Y-116788904D01*
X140291344Y-116788905D01*
X140346285Y-116803626D01*
X140519592Y-116850063D01*
X140707918Y-116866539D01*
X140754999Y-116870659D01*
X140755000Y-116870659D01*
X140755001Y-116870659D01*
X140794234Y-116867226D01*
X140990408Y-116850063D01*
X141218663Y-116788903D01*
X141432830Y-116689035D01*
X141626401Y-116553495D01*
X141793495Y-116386401D01*
X141923425Y-116200842D01*
X141978002Y-116157217D01*
X142047500Y-116150023D01*
X142109855Y-116181546D01*
X142126575Y-116200842D01*
X142256500Y-116386395D01*
X142256505Y-116386401D01*
X142423599Y-116553495D01*
X142478713Y-116592086D01*
X142617165Y-116689032D01*
X142617167Y-116689033D01*
X142617170Y-116689035D01*
X142831337Y-116788903D01*
X142831343Y-116788904D01*
X142831344Y-116788905D01*
X142886285Y-116803626D01*
X143059592Y-116850063D01*
X143247918Y-116866539D01*
X143294999Y-116870659D01*
X143295000Y-116870659D01*
X143295001Y-116870659D01*
X143334234Y-116867226D01*
X143530408Y-116850063D01*
X143758663Y-116788903D01*
X143972830Y-116689035D01*
X144166401Y-116553495D01*
X144333495Y-116386401D01*
X144463425Y-116200842D01*
X144518002Y-116157217D01*
X144587500Y-116150023D01*
X144649855Y-116181546D01*
X144666575Y-116200842D01*
X144796500Y-116386395D01*
X144796505Y-116386401D01*
X144963599Y-116553495D01*
X145018713Y-116592086D01*
X145157165Y-116689032D01*
X145157167Y-116689033D01*
X145157170Y-116689035D01*
X145371337Y-116788903D01*
X145371343Y-116788904D01*
X145371344Y-116788905D01*
X145426285Y-116803626D01*
X145599592Y-116850063D01*
X145787918Y-116866539D01*
X145834999Y-116870659D01*
X145835000Y-116870659D01*
X145835001Y-116870659D01*
X145874234Y-116867226D01*
X146070408Y-116850063D01*
X146298663Y-116788903D01*
X146512830Y-116689035D01*
X146706401Y-116553495D01*
X146873495Y-116386401D01*
X147003730Y-116200405D01*
X147058307Y-116156781D01*
X147127805Y-116149587D01*
X147190160Y-116181110D01*
X147206879Y-116200405D01*
X147336890Y-116386078D01*
X147503917Y-116553105D01*
X147697421Y-116688600D01*
X147911507Y-116788429D01*
X147911516Y-116788433D01*
X148125000Y-116845634D01*
X148125000Y-115948012D01*
X148182007Y-115980925D01*
X148309174Y-116015000D01*
X148440826Y-116015000D01*
X148567993Y-115980925D01*
X148625000Y-115948012D01*
X148625000Y-116845633D01*
X148838483Y-116788433D01*
X148838492Y-116788429D01*
X149052578Y-116688600D01*
X149246082Y-116553105D01*
X149413105Y-116386082D01*
X149548600Y-116192578D01*
X149648429Y-115978492D01*
X149648432Y-115978486D01*
X149705636Y-115765000D01*
X148808012Y-115765000D01*
X148840925Y-115707993D01*
X148875000Y-115580826D01*
X148875000Y-115449174D01*
X148840925Y-115322007D01*
X148808012Y-115265000D01*
X149705636Y-115265000D01*
X149705635Y-115264999D01*
X149648432Y-115051513D01*
X149648429Y-115051507D01*
X149548600Y-114837422D01*
X149548599Y-114837420D01*
X149413113Y-114643926D01*
X149413108Y-114643920D01*
X149291053Y-114521865D01*
X149257568Y-114460542D01*
X149262552Y-114390850D01*
X149304424Y-114334917D01*
X149335400Y-114318002D01*
X149467331Y-114268796D01*
X149582546Y-114182546D01*
X149668796Y-114067331D01*
X149719091Y-113932483D01*
X149725500Y-113872873D01*
X149725499Y-112077128D01*
X149719091Y-112017517D01*
X149717810Y-112014083D01*
X149668797Y-111882671D01*
X149668793Y-111882664D01*
X149582547Y-111767455D01*
X149582544Y-111767452D01*
X149467335Y-111681206D01*
X149467328Y-111681202D01*
X149332482Y-111630908D01*
X149332483Y-111630908D01*
X149272883Y-111624501D01*
X149272881Y-111624500D01*
X149272873Y-111624500D01*
X149272864Y-111624500D01*
X147477129Y-111624500D01*
X147477123Y-111624501D01*
X147417516Y-111630908D01*
X147282671Y-111681202D01*
X147282664Y-111681206D01*
X147167455Y-111767452D01*
X147167452Y-111767455D01*
X147081206Y-111882664D01*
X147081203Y-111882669D01*
X147032189Y-112014083D01*
X146990317Y-112070016D01*
X146924853Y-112094433D01*
X146856580Y-112079581D01*
X146828326Y-112058430D01*
X146706402Y-111936506D01*
X146706395Y-111936501D01*
X146512834Y-111800967D01*
X146512830Y-111800965D01*
X146456837Y-111774855D01*
X146298663Y-111701097D01*
X146298659Y-111701096D01*
X146298655Y-111701094D01*
X146070413Y-111639938D01*
X146070403Y-111639936D01*
X145835001Y-111619341D01*
X145834999Y-111619341D01*
X145599596Y-111639936D01*
X145599586Y-111639938D01*
X145371344Y-111701094D01*
X145371335Y-111701098D01*
X145157171Y-111800964D01*
X145157169Y-111800965D01*
X144963597Y-111936505D01*
X144796505Y-112103597D01*
X144666575Y-112289158D01*
X144611998Y-112332783D01*
X144542500Y-112339977D01*
X144480145Y-112308454D01*
X144463425Y-112289158D01*
X144333494Y-112103597D01*
X144166402Y-111936506D01*
X144166395Y-111936501D01*
X143972834Y-111800967D01*
X143972830Y-111800965D01*
X143916837Y-111774855D01*
X143758663Y-111701097D01*
X143758659Y-111701096D01*
X143758655Y-111701094D01*
X143530413Y-111639938D01*
X143530403Y-111639936D01*
X143295001Y-111619341D01*
X143294999Y-111619341D01*
X143059596Y-111639936D01*
X143059586Y-111639938D01*
X142831344Y-111701094D01*
X142831335Y-111701098D01*
X142617171Y-111800964D01*
X142617169Y-111800965D01*
X142423597Y-111936505D01*
X142256505Y-112103597D01*
X142126575Y-112289158D01*
X142071998Y-112332783D01*
X142002500Y-112339977D01*
X141940145Y-112308454D01*
X141923425Y-112289158D01*
X141793494Y-112103597D01*
X141626402Y-111936506D01*
X141626395Y-111936501D01*
X141432834Y-111800967D01*
X141432830Y-111800965D01*
X141376837Y-111774855D01*
X141218663Y-111701097D01*
X141218659Y-111701096D01*
X141218655Y-111701094D01*
X140990413Y-111639938D01*
X140990403Y-111639936D01*
X140755001Y-111619341D01*
X140754999Y-111619341D01*
X140519596Y-111639936D01*
X140519586Y-111639938D01*
X140291344Y-111701094D01*
X140291335Y-111701098D01*
X140077171Y-111800964D01*
X140077169Y-111800965D01*
X139883597Y-111936505D01*
X139716505Y-112103597D01*
X139586575Y-112289158D01*
X139531998Y-112332783D01*
X139462500Y-112339977D01*
X139400145Y-112308454D01*
X139383425Y-112289158D01*
X139253494Y-112103597D01*
X139086402Y-111936506D01*
X139086395Y-111936501D01*
X138892834Y-111800967D01*
X138892830Y-111800965D01*
X138836837Y-111774855D01*
X138678663Y-111701097D01*
X138678659Y-111701096D01*
X138678655Y-111701094D01*
X138450413Y-111639938D01*
X138450403Y-111639936D01*
X138215001Y-111619341D01*
X138214999Y-111619341D01*
X137979596Y-111639936D01*
X137979586Y-111639938D01*
X137751344Y-111701094D01*
X137751335Y-111701098D01*
X137537171Y-111800964D01*
X137537169Y-111800965D01*
X137343597Y-111936505D01*
X137176505Y-112103597D01*
X137040965Y-112297169D01*
X137040964Y-112297171D01*
X136941098Y-112511335D01*
X136941094Y-112511344D01*
X136879938Y-112739586D01*
X136879936Y-112739596D01*
X136859341Y-112974999D01*
X128425850Y-112974999D01*
X128515252Y-112851947D01*
X128631410Y-112623975D01*
X128710474Y-112380639D01*
X128750500Y-112127930D01*
X128750500Y-111872070D01*
X128710474Y-111619361D01*
X128631410Y-111376025D01*
X128631410Y-111376024D01*
X128576122Y-111267517D01*
X128515252Y-111148053D01*
X128478763Y-111097830D01*
X128364867Y-110941064D01*
X128364863Y-110941059D01*
X128183940Y-110760136D01*
X128183935Y-110760132D01*
X127976950Y-110609750D01*
X127976949Y-110609749D01*
X127976947Y-110609748D01*
X127903910Y-110572533D01*
X127748975Y-110493589D01*
X127748972Y-110493588D01*
X127505640Y-110414526D01*
X127379284Y-110394513D01*
X127252930Y-110374500D01*
X124747070Y-110374500D01*
X124662833Y-110387842D01*
X124494359Y-110414526D01*
X124251027Y-110493588D01*
X124251024Y-110493589D01*
X124023049Y-110609750D01*
X123816064Y-110760132D01*
X123816059Y-110760136D01*
X123635136Y-110941059D01*
X123635132Y-110941064D01*
X123484750Y-111148049D01*
X123368589Y-111376024D01*
X123368588Y-111376027D01*
X123289526Y-111619359D01*
X123249500Y-111872070D01*
X120700500Y-111872070D01*
X120700500Y-105885258D01*
X122999500Y-105885258D01*
X122999500Y-106114741D01*
X123022512Y-106289526D01*
X123029452Y-106342238D01*
X123036513Y-106368589D01*
X123088842Y-106563887D01*
X123176650Y-106775876D01*
X123176657Y-106775890D01*
X123291392Y-106974617D01*
X123431081Y-107156661D01*
X123431089Y-107156670D01*
X123593330Y-107318911D01*
X123593338Y-107318918D01*
X123775382Y-107458607D01*
X123775385Y-107458608D01*
X123775388Y-107458611D01*
X123974112Y-107573344D01*
X123974117Y-107573346D01*
X123974123Y-107573349D01*
X124065480Y-107611190D01*
X124186113Y-107661158D01*
X124407762Y-107720548D01*
X124635266Y-107750500D01*
X124635273Y-107750500D01*
X127364727Y-107750500D01*
X127364734Y-107750500D01*
X127390787Y-107747070D01*
X129074500Y-107747070D01*
X129074500Y-110252929D01*
X129114526Y-110505640D01*
X129193588Y-110748972D01*
X129193589Y-110748975D01*
X129309750Y-110976950D01*
X129460132Y-111183935D01*
X129460136Y-111183940D01*
X129641059Y-111364863D01*
X129641064Y-111364867D01*
X129769933Y-111458495D01*
X129848053Y-111515252D01*
X129991663Y-111588425D01*
X130076024Y-111631410D01*
X130076027Y-111631411D01*
X130197693Y-111670942D01*
X130319361Y-111710474D01*
X130572070Y-111750500D01*
X130572071Y-111750500D01*
X130827929Y-111750500D01*
X130827930Y-111750500D01*
X131080639Y-111710474D01*
X131323975Y-111631410D01*
X131551947Y-111515252D01*
X131758942Y-111364862D01*
X131796669Y-111327135D01*
X151624500Y-111327135D01*
X151624500Y-113672870D01*
X151624501Y-113672876D01*
X151630908Y-113732483D01*
X151681202Y-113867328D01*
X151681206Y-113867335D01*
X151767452Y-113982544D01*
X151767455Y-113982547D01*
X151882664Y-114068793D01*
X151882671Y-114068797D01*
X152017517Y-114119091D01*
X152017516Y-114119091D01*
X152024444Y-114119835D01*
X152077127Y-114125500D01*
X154422872Y-114125499D01*
X154482483Y-114119091D01*
X154617331Y-114068796D01*
X154732546Y-113982546D01*
X154818796Y-113867331D01*
X154869091Y-113732483D01*
X154875500Y-113672873D01*
X154875499Y-111327128D01*
X154869091Y-111267517D01*
X154824532Y-111148049D01*
X154818797Y-111132671D01*
X154818793Y-111132664D01*
X154732547Y-111017455D01*
X154732544Y-111017452D01*
X154617335Y-110931206D01*
X154617328Y-110931202D01*
X154482482Y-110880908D01*
X154482483Y-110880908D01*
X154422883Y-110874501D01*
X154422881Y-110874500D01*
X154422873Y-110874500D01*
X154422864Y-110874500D01*
X152077129Y-110874500D01*
X152077123Y-110874501D01*
X152017516Y-110880908D01*
X151882671Y-110931202D01*
X151882664Y-110931206D01*
X151767455Y-111017452D01*
X151767452Y-111017455D01*
X151681206Y-111132664D01*
X151681202Y-111132671D01*
X151630908Y-111267517D01*
X151624501Y-111327116D01*
X151624501Y-111327123D01*
X151624500Y-111327135D01*
X131796669Y-111327135D01*
X131939862Y-111183942D01*
X132090252Y-110976947D01*
X132206410Y-110748975D01*
X132285474Y-110505639D01*
X132299038Y-110419999D01*
X156144341Y-110419999D01*
X156144341Y-110420000D01*
X156164936Y-110655403D01*
X156164938Y-110655413D01*
X156226094Y-110883655D01*
X156226096Y-110883659D01*
X156226097Y-110883663D01*
X156325965Y-111097830D01*
X156325967Y-111097834D01*
X156461501Y-111291395D01*
X156461506Y-111291402D01*
X156628597Y-111458493D01*
X156628603Y-111458498D01*
X156814158Y-111588425D01*
X156857783Y-111643002D01*
X156864977Y-111712500D01*
X156833454Y-111774855D01*
X156814158Y-111791575D01*
X156628597Y-111921505D01*
X156461505Y-112088597D01*
X156325965Y-112282169D01*
X156325964Y-112282171D01*
X156226098Y-112496335D01*
X156226094Y-112496344D01*
X156164938Y-112724586D01*
X156164936Y-112724596D01*
X156144341Y-112959999D01*
X156144341Y-112960000D01*
X156164936Y-113195403D01*
X156164938Y-113195413D01*
X156226094Y-113423655D01*
X156226096Y-113423659D01*
X156226097Y-113423663D01*
X156301551Y-113585474D01*
X156325965Y-113637830D01*
X156325967Y-113637834D01*
X156434281Y-113792521D01*
X156461501Y-113831396D01*
X156461506Y-113831402D01*
X156583818Y-113953714D01*
X156617303Y-114015037D01*
X156612319Y-114084729D01*
X156570447Y-114140662D01*
X156539471Y-114157577D01*
X156407912Y-114206646D01*
X156407906Y-114206649D01*
X156292812Y-114292809D01*
X156292809Y-114292812D01*
X156206649Y-114407906D01*
X156206645Y-114407913D01*
X156156403Y-114542620D01*
X156156401Y-114542627D01*
X156150000Y-114602155D01*
X156150000Y-115250000D01*
X157066988Y-115250000D01*
X157034075Y-115307007D01*
X157000000Y-115434174D01*
X157000000Y-115565826D01*
X157034075Y-115692993D01*
X157066988Y-115750000D01*
X156150000Y-115750000D01*
X156150000Y-116397844D01*
X156156401Y-116457372D01*
X156156403Y-116457379D01*
X156206645Y-116592086D01*
X156206649Y-116592093D01*
X156292809Y-116707187D01*
X156292812Y-116707190D01*
X156407906Y-116793350D01*
X156407913Y-116793354D01*
X156542620Y-116843596D01*
X156542627Y-116843598D01*
X156602155Y-116849999D01*
X156602172Y-116850000D01*
X157250000Y-116850000D01*
X157250000Y-115933012D01*
X157307007Y-115965925D01*
X157434174Y-116000000D01*
X157565826Y-116000000D01*
X157692993Y-115965925D01*
X157750000Y-115933012D01*
X157750000Y-116850000D01*
X158397828Y-116850000D01*
X158397844Y-116849999D01*
X158457372Y-116843598D01*
X158457379Y-116843596D01*
X158592086Y-116793354D01*
X158592093Y-116793350D01*
X158707187Y-116707190D01*
X158707190Y-116707187D01*
X158793350Y-116592093D01*
X158793354Y-116592086D01*
X158843596Y-116457379D01*
X158843598Y-116457372D01*
X158849999Y-116397844D01*
X158850000Y-116397827D01*
X158850000Y-115750000D01*
X157933012Y-115750000D01*
X157965925Y-115692993D01*
X158000000Y-115565826D01*
X158000000Y-115434174D01*
X157965925Y-115307007D01*
X157933012Y-115250000D01*
X158850000Y-115250000D01*
X158850000Y-114602172D01*
X158849999Y-114602155D01*
X158843598Y-114542627D01*
X158843596Y-114542620D01*
X158793354Y-114407913D01*
X158793350Y-114407906D01*
X158707190Y-114292812D01*
X158707187Y-114292809D01*
X158592093Y-114206649D01*
X158592088Y-114206646D01*
X158460528Y-114157577D01*
X158404595Y-114115705D01*
X158380178Y-114050241D01*
X158395030Y-113981968D01*
X158416175Y-113953720D01*
X158538495Y-113831401D01*
X158674035Y-113637830D01*
X158773903Y-113423663D01*
X158835063Y-113195408D01*
X158855659Y-112960000D01*
X158835063Y-112724592D01*
X158777922Y-112511335D01*
X158773905Y-112496344D01*
X158773904Y-112496343D01*
X158773903Y-112496337D01*
X158674035Y-112282171D01*
X158538495Y-112088599D01*
X158538494Y-112088597D01*
X158371402Y-111921506D01*
X158371396Y-111921501D01*
X158185842Y-111791575D01*
X158142217Y-111736998D01*
X158135023Y-111667500D01*
X158166546Y-111605145D01*
X158185842Y-111588425D01*
X158208026Y-111572891D01*
X158371401Y-111458495D01*
X158538495Y-111291401D01*
X158674035Y-111097830D01*
X158773903Y-110883663D01*
X158835063Y-110655408D01*
X158855659Y-110420000D01*
X158835063Y-110184592D01*
X158773903Y-109956337D01*
X158674035Y-109742171D01*
X158669273Y-109735369D01*
X158538494Y-109548597D01*
X158371402Y-109381506D01*
X158371395Y-109381501D01*
X158177834Y-109245967D01*
X158177830Y-109245965D01*
X158177828Y-109245964D01*
X157963663Y-109146097D01*
X157963659Y-109146096D01*
X157963655Y-109146094D01*
X157735413Y-109084938D01*
X157735403Y-109084936D01*
X157500001Y-109064341D01*
X157499999Y-109064341D01*
X157264596Y-109084936D01*
X157264586Y-109084938D01*
X157036344Y-109146094D01*
X157036335Y-109146098D01*
X156822171Y-109245964D01*
X156822169Y-109245965D01*
X156628597Y-109381505D01*
X156461505Y-109548597D01*
X156325965Y-109742169D01*
X156325964Y-109742171D01*
X156226098Y-109956335D01*
X156226094Y-109956344D01*
X156164938Y-110184586D01*
X156164936Y-110184596D01*
X156144341Y-110419999D01*
X132299038Y-110419999D01*
X132325500Y-110252930D01*
X132325500Y-108949996D01*
X142794435Y-108949996D01*
X142794435Y-108950003D01*
X142814630Y-109129249D01*
X142814631Y-109129254D01*
X142874211Y-109299523D01*
X142925722Y-109381501D01*
X142970184Y-109452262D01*
X143097738Y-109579816D01*
X143250478Y-109675789D01*
X143420745Y-109735368D01*
X143420750Y-109735369D01*
X143599996Y-109755565D01*
X143600000Y-109755565D01*
X143600004Y-109755565D01*
X143779249Y-109735369D01*
X143779252Y-109735368D01*
X143779255Y-109735368D01*
X143949522Y-109675789D01*
X144102262Y-109579816D01*
X144229816Y-109452262D01*
X144325789Y-109299522D01*
X144385368Y-109129255D01*
X144385369Y-109129249D01*
X144405565Y-108950003D01*
X144405565Y-108949996D01*
X144385369Y-108770750D01*
X144385368Y-108770745D01*
X144325788Y-108600476D01*
X144229815Y-108447737D01*
X144102262Y-108320184D01*
X143949523Y-108224211D01*
X143779254Y-108164631D01*
X143779249Y-108164630D01*
X143600004Y-108144435D01*
X143599996Y-108144435D01*
X143420750Y-108164630D01*
X143420745Y-108164631D01*
X143250476Y-108224211D01*
X143097737Y-108320184D01*
X142970184Y-108447737D01*
X142874211Y-108600476D01*
X142814631Y-108770745D01*
X142814630Y-108770750D01*
X142794435Y-108949996D01*
X132325500Y-108949996D01*
X132325500Y-107999996D01*
X146694435Y-107999996D01*
X146694435Y-108000003D01*
X146714630Y-108179249D01*
X146714631Y-108179254D01*
X146774211Y-108349523D01*
X146835924Y-108447738D01*
X146870184Y-108502262D01*
X146997738Y-108629816D01*
X147150478Y-108725789D01*
X147278955Y-108770745D01*
X147320745Y-108785368D01*
X147320750Y-108785369D01*
X147499996Y-108805565D01*
X147500000Y-108805565D01*
X147500004Y-108805565D01*
X147679249Y-108785369D01*
X147679252Y-108785368D01*
X147679255Y-108785368D01*
X147849522Y-108725789D01*
X148002262Y-108629816D01*
X148129816Y-108502262D01*
X148225789Y-108349522D01*
X148285368Y-108179255D01*
X148287016Y-108164630D01*
X148305565Y-108000003D01*
X148305565Y-107999996D01*
X148285369Y-107820750D01*
X148285368Y-107820745D01*
X148259588Y-107747070D01*
X148225789Y-107650478D01*
X148129816Y-107497738D01*
X148002262Y-107370184D01*
X147970932Y-107350498D01*
X147849523Y-107274211D01*
X147679254Y-107214631D01*
X147679249Y-107214630D01*
X147500004Y-107194435D01*
X147499996Y-107194435D01*
X147320750Y-107214630D01*
X147320745Y-107214631D01*
X147150476Y-107274211D01*
X146997737Y-107370184D01*
X146870184Y-107497737D01*
X146774211Y-107650476D01*
X146714631Y-107820745D01*
X146714630Y-107820750D01*
X146694435Y-107999996D01*
X132325500Y-107999996D01*
X132325500Y-107747070D01*
X132285474Y-107494361D01*
X132238731Y-107350499D01*
X132206411Y-107251027D01*
X132206410Y-107251024D01*
X132166185Y-107172080D01*
X132090252Y-107023053D01*
X131999302Y-106897870D01*
X131939867Y-106816064D01*
X131939863Y-106816059D01*
X131758940Y-106635136D01*
X131758935Y-106635132D01*
X131551950Y-106484750D01*
X131551949Y-106484749D01*
X131551947Y-106484748D01*
X131478910Y-106447533D01*
X131323975Y-106368589D01*
X131323972Y-106368588D01*
X131080640Y-106289526D01*
X130954284Y-106269513D01*
X130827930Y-106249500D01*
X130572070Y-106249500D01*
X130487833Y-106262842D01*
X130319359Y-106289526D01*
X130076027Y-106368588D01*
X130076024Y-106368589D01*
X129848049Y-106484750D01*
X129641064Y-106635132D01*
X129641059Y-106635136D01*
X129460136Y-106816059D01*
X129460132Y-106816064D01*
X129309750Y-107023049D01*
X129193589Y-107251024D01*
X129193588Y-107251027D01*
X129114526Y-107494359D01*
X129074500Y-107747070D01*
X127390787Y-107747070D01*
X127592238Y-107720548D01*
X127813887Y-107661158D01*
X128025888Y-107573344D01*
X128224612Y-107458611D01*
X128406661Y-107318919D01*
X128406665Y-107318914D01*
X128406670Y-107318911D01*
X128568911Y-107156670D01*
X128568914Y-107156665D01*
X128568919Y-107156661D01*
X128708611Y-106974612D01*
X128823344Y-106775888D01*
X128911158Y-106563887D01*
X128970548Y-106342238D01*
X129000500Y-106114734D01*
X129000500Y-105885266D01*
X128970548Y-105657762D01*
X128911158Y-105436113D01*
X128823344Y-105224112D01*
X128708611Y-105025388D01*
X128708608Y-105025385D01*
X128708607Y-105025382D01*
X128568918Y-104843338D01*
X128568911Y-104843330D01*
X128406670Y-104681089D01*
X128406661Y-104681081D01*
X128224617Y-104541392D01*
X128025890Y-104426657D01*
X128025876Y-104426650D01*
X127813887Y-104338842D01*
X127786094Y-104331395D01*
X127592238Y-104279452D01*
X127554215Y-104274446D01*
X127364741Y-104249500D01*
X127364734Y-104249500D01*
X124635266Y-104249500D01*
X124635258Y-104249500D01*
X124418715Y-104278009D01*
X124407762Y-104279452D01*
X124314076Y-104304554D01*
X124186112Y-104338842D01*
X123974123Y-104426650D01*
X123974109Y-104426657D01*
X123775382Y-104541392D01*
X123593338Y-104681081D01*
X123431081Y-104843338D01*
X123291392Y-105025382D01*
X123176657Y-105224109D01*
X123176650Y-105224123D01*
X123088842Y-105436112D01*
X123029453Y-105657759D01*
X123029451Y-105657770D01*
X122999500Y-105885258D01*
X120700500Y-105885258D01*
X120700500Y-100999998D01*
X121374532Y-100999998D01*
X121374532Y-101000001D01*
X121394364Y-101226686D01*
X121394366Y-101226697D01*
X121453258Y-101446488D01*
X121453261Y-101446497D01*
X121549431Y-101652732D01*
X121549432Y-101652734D01*
X121679954Y-101839141D01*
X121840858Y-102000045D01*
X121840861Y-102000047D01*
X122027266Y-102130568D01*
X122233504Y-102226739D01*
X122453308Y-102285635D01*
X122615230Y-102299801D01*
X122679998Y-102305468D01*
X122680000Y-102305468D01*
X122680002Y-102305468D01*
X122736807Y-102300498D01*
X122906692Y-102285635D01*
X123126496Y-102226739D01*
X123332734Y-102130568D01*
X123519139Y-102000047D01*
X123680047Y-101839139D01*
X123810568Y-101652734D01*
X123906739Y-101446496D01*
X123965635Y-101226692D01*
X123985468Y-101000000D01*
X123965635Y-100773308D01*
X123906739Y-100553504D01*
X123810568Y-100347266D01*
X123680047Y-100160861D01*
X123680045Y-100160858D01*
X123671322Y-100152135D01*
X128999500Y-100152135D01*
X128999500Y-101847870D01*
X128999501Y-101847876D01*
X129005908Y-101907483D01*
X129056202Y-102042328D01*
X129056206Y-102042335D01*
X129142452Y-102157544D01*
X129142455Y-102157547D01*
X129257664Y-102243793D01*
X129257671Y-102243797D01*
X129392517Y-102294091D01*
X129392516Y-102294091D01*
X129399444Y-102294835D01*
X129452127Y-102300500D01*
X131147872Y-102300499D01*
X131207483Y-102294091D01*
X131342331Y-102243796D01*
X131457546Y-102157546D01*
X131543796Y-102042331D01*
X131594091Y-101907483D01*
X131600500Y-101847873D01*
X131600499Y-100919999D01*
X156144341Y-100919999D01*
X156144341Y-100920000D01*
X156164936Y-101155403D01*
X156164938Y-101155413D01*
X156226094Y-101383655D01*
X156226096Y-101383659D01*
X156226097Y-101383663D01*
X156255393Y-101446488D01*
X156325965Y-101597830D01*
X156325967Y-101597834D01*
X156461501Y-101791395D01*
X156461506Y-101791402D01*
X156628597Y-101958493D01*
X156628603Y-101958498D01*
X156814158Y-102088425D01*
X156857783Y-102143002D01*
X156864977Y-102212500D01*
X156833454Y-102274855D01*
X156814158Y-102291575D01*
X156628597Y-102421505D01*
X156461505Y-102588597D01*
X156325965Y-102782169D01*
X156325964Y-102782171D01*
X156226098Y-102996335D01*
X156226094Y-102996344D01*
X156164938Y-103224586D01*
X156164936Y-103224596D01*
X156144341Y-103459999D01*
X156144341Y-103460000D01*
X156164936Y-103695403D01*
X156164938Y-103695413D01*
X156226094Y-103923655D01*
X156226096Y-103923659D01*
X156226097Y-103923663D01*
X156325965Y-104137830D01*
X156325967Y-104137834D01*
X156404157Y-104249500D01*
X156461501Y-104331396D01*
X156461506Y-104331402D01*
X156583430Y-104453326D01*
X156616915Y-104514649D01*
X156611931Y-104584341D01*
X156570059Y-104640274D01*
X156539083Y-104657189D01*
X156407669Y-104706203D01*
X156407664Y-104706206D01*
X156292455Y-104792452D01*
X156292452Y-104792455D01*
X156206206Y-104907664D01*
X156206202Y-104907671D01*
X156155908Y-105042517D01*
X156149501Y-105102116D01*
X156149501Y-105102123D01*
X156149500Y-105102135D01*
X156149500Y-106897870D01*
X156149501Y-106897876D01*
X156155908Y-106957483D01*
X156206202Y-107092328D01*
X156206206Y-107092335D01*
X156292452Y-107207544D01*
X156292455Y-107207547D01*
X156407664Y-107293793D01*
X156407671Y-107293797D01*
X156542517Y-107344091D01*
X156542516Y-107344091D01*
X156549444Y-107344835D01*
X156602127Y-107350500D01*
X158397872Y-107350499D01*
X158457483Y-107344091D01*
X158592331Y-107293796D01*
X158707546Y-107207546D01*
X158793796Y-107092331D01*
X158844091Y-106957483D01*
X158850500Y-106897873D01*
X158850499Y-105102128D01*
X158844091Y-105042517D01*
X158837702Y-105025388D01*
X158793797Y-104907671D01*
X158793793Y-104907664D01*
X158707547Y-104792455D01*
X158707544Y-104792452D01*
X158592335Y-104706206D01*
X158592328Y-104706202D01*
X158460917Y-104657189D01*
X158404983Y-104615318D01*
X158380566Y-104549853D01*
X158395418Y-104481580D01*
X158416563Y-104453332D01*
X158538495Y-104331401D01*
X158674035Y-104137830D01*
X158773903Y-103923663D01*
X158835063Y-103695408D01*
X158855659Y-103460000D01*
X158835063Y-103224592D01*
X158773903Y-102996337D01*
X158674035Y-102782171D01*
X158538495Y-102588599D01*
X158538494Y-102588597D01*
X158371402Y-102421506D01*
X158371396Y-102421501D01*
X158185842Y-102291575D01*
X158142217Y-102236998D01*
X158135023Y-102167500D01*
X158166546Y-102105145D01*
X158185842Y-102088425D01*
X158251675Y-102042328D01*
X158371401Y-101958495D01*
X158538495Y-101791401D01*
X158674035Y-101597830D01*
X158773903Y-101383663D01*
X158835063Y-101155408D01*
X158855659Y-100920000D01*
X158835063Y-100684592D01*
X158773903Y-100456337D01*
X158674035Y-100242171D01*
X158617102Y-100160861D01*
X158538494Y-100048597D01*
X158371402Y-99881506D01*
X158371395Y-99881501D01*
X158354157Y-99869431D01*
X158315632Y-99842455D01*
X158177834Y-99745967D01*
X158177830Y-99745965D01*
X158110066Y-99714366D01*
X157963663Y-99646097D01*
X157963659Y-99646096D01*
X157963655Y-99646094D01*
X157735413Y-99584938D01*
X157735403Y-99584936D01*
X157500001Y-99564341D01*
X157499999Y-99564341D01*
X157264596Y-99584936D01*
X157264586Y-99584938D01*
X157036344Y-99646094D01*
X157036335Y-99646098D01*
X156822171Y-99745964D01*
X156822169Y-99745965D01*
X156628597Y-99881505D01*
X156461505Y-100048597D01*
X156325965Y-100242169D01*
X156325964Y-100242171D01*
X156226098Y-100456335D01*
X156226094Y-100456344D01*
X156164938Y-100684586D01*
X156164936Y-100684596D01*
X156144341Y-100919999D01*
X131600499Y-100919999D01*
X131600499Y-100152128D01*
X131594091Y-100092517D01*
X131559567Y-99999954D01*
X131543797Y-99957671D01*
X131543793Y-99957664D01*
X131457547Y-99842455D01*
X131457544Y-99842452D01*
X131342335Y-99756206D01*
X131342328Y-99756202D01*
X131207482Y-99705908D01*
X131207483Y-99705908D01*
X131147883Y-99699501D01*
X131147881Y-99699500D01*
X131147873Y-99699500D01*
X131147864Y-99699500D01*
X129452129Y-99699500D01*
X129452123Y-99699501D01*
X129392516Y-99705908D01*
X129257671Y-99756202D01*
X129257664Y-99756206D01*
X129142455Y-99842452D01*
X129142452Y-99842455D01*
X129056206Y-99957664D01*
X129056202Y-99957671D01*
X129005908Y-100092517D01*
X128999501Y-100152116D01*
X128999501Y-100152123D01*
X128999500Y-100152135D01*
X123671322Y-100152135D01*
X123519141Y-99999954D01*
X123332734Y-99869432D01*
X123332732Y-99869431D01*
X123126497Y-99773261D01*
X123126488Y-99773258D01*
X122906697Y-99714366D01*
X122906693Y-99714365D01*
X122906692Y-99714365D01*
X122906691Y-99714364D01*
X122906686Y-99714364D01*
X122680002Y-99694532D01*
X122679998Y-99694532D01*
X122453313Y-99714364D01*
X122453302Y-99714366D01*
X122233511Y-99773258D01*
X122233502Y-99773261D01*
X122027267Y-99869431D01*
X122027265Y-99869432D01*
X121840858Y-99999954D01*
X121679954Y-100160858D01*
X121549432Y-100347265D01*
X121549431Y-100347267D01*
X121453261Y-100553502D01*
X121453258Y-100553511D01*
X121394366Y-100773302D01*
X121394364Y-100773313D01*
X121374532Y-100999998D01*
X120700500Y-100999998D01*
X120700500Y-92845646D01*
X123999500Y-92845646D01*
X123999500Y-93074353D01*
X124035278Y-93300246D01*
X124035278Y-93300249D01*
X124105950Y-93517755D01*
X124203904Y-93709999D01*
X124209783Y-93721538D01*
X124342525Y-93904242D01*
X124366005Y-93970046D01*
X124350180Y-94038100D01*
X124300074Y-94086795D01*
X124285541Y-94093308D01*
X124257670Y-94103703D01*
X124257664Y-94103706D01*
X124142455Y-94189952D01*
X124142452Y-94189955D01*
X124056206Y-94305164D01*
X124056202Y-94305171D01*
X124005908Y-94440017D01*
X123999501Y-94499616D01*
X123999501Y-94499623D01*
X123999500Y-94499635D01*
X123999500Y-96500370D01*
X123999501Y-96500376D01*
X124005908Y-96559983D01*
X124056202Y-96694828D01*
X124056206Y-96694835D01*
X124142452Y-96810044D01*
X124142455Y-96810047D01*
X124257664Y-96896293D01*
X124257671Y-96896297D01*
X124392517Y-96946591D01*
X124392516Y-96946591D01*
X124399444Y-96947335D01*
X124452127Y-96953000D01*
X126547872Y-96952999D01*
X126607483Y-96946591D01*
X126742331Y-96896296D01*
X126857546Y-96810046D01*
X126943796Y-96694831D01*
X126994091Y-96559983D01*
X127000500Y-96500373D01*
X127000499Y-95499996D01*
X140694435Y-95499996D01*
X140694435Y-95500003D01*
X140714630Y-95679249D01*
X140714631Y-95679254D01*
X140774211Y-95849523D01*
X140870184Y-96002262D01*
X140997738Y-96129816D01*
X141150478Y-96225789D01*
X141320745Y-96285368D01*
X141320750Y-96285369D01*
X141499996Y-96305565D01*
X141500000Y-96305565D01*
X141500004Y-96305565D01*
X141679249Y-96285369D01*
X141679252Y-96285368D01*
X141679255Y-96285368D01*
X141849522Y-96225789D01*
X142002262Y-96129816D01*
X142129816Y-96002262D01*
X142225789Y-95849522D01*
X142285368Y-95679255D01*
X142285369Y-95679249D01*
X142305565Y-95500003D01*
X142305565Y-95499996D01*
X142285369Y-95320750D01*
X142285368Y-95320745D01*
X142245288Y-95206204D01*
X142225789Y-95150478D01*
X142225174Y-95149500D01*
X142129815Y-94997737D01*
X142002262Y-94870184D01*
X141849523Y-94774211D01*
X141679254Y-94714631D01*
X141679249Y-94714630D01*
X141500004Y-94694435D01*
X141499996Y-94694435D01*
X141320750Y-94714630D01*
X141320745Y-94714631D01*
X141150476Y-94774211D01*
X140997737Y-94870184D01*
X140870184Y-94997737D01*
X140774211Y-95150476D01*
X140714631Y-95320745D01*
X140714630Y-95320750D01*
X140694435Y-95499996D01*
X127000499Y-95499996D01*
X127000499Y-94499628D01*
X126994091Y-94440017D01*
X126987925Y-94423486D01*
X126943797Y-94305171D01*
X126943793Y-94305164D01*
X126857547Y-94189955D01*
X126857544Y-94189952D01*
X126742335Y-94103706D01*
X126742328Y-94103702D01*
X126714459Y-94093308D01*
X126658525Y-94051437D01*
X126634108Y-93985973D01*
X126648960Y-93917700D01*
X126657460Y-93904260D01*
X126790217Y-93721538D01*
X126894048Y-93517758D01*
X126964722Y-93300245D01*
X127000500Y-93074354D01*
X127000500Y-92999996D01*
X129644435Y-92999996D01*
X129644435Y-93000003D01*
X129664630Y-93179249D01*
X129664631Y-93179254D01*
X129724211Y-93349523D01*
X129793629Y-93460000D01*
X129820184Y-93502262D01*
X129947738Y-93629816D01*
X129984624Y-93652993D01*
X130093712Y-93721538D01*
X130100478Y-93725789D01*
X130270745Y-93785368D01*
X130270750Y-93785369D01*
X130449996Y-93805565D01*
X130450000Y-93805565D01*
X130450004Y-93805565D01*
X130629249Y-93785369D01*
X130629252Y-93785368D01*
X130629255Y-93785368D01*
X130799522Y-93725789D01*
X130952262Y-93629816D01*
X131079816Y-93502262D01*
X131175789Y-93349522D01*
X131235368Y-93179255D01*
X131245546Y-93088926D01*
X131255565Y-93000003D01*
X131255565Y-92999996D01*
X131235369Y-92820750D01*
X131235368Y-92820745D01*
X131190984Y-92693903D01*
X131175789Y-92650478D01*
X131156484Y-92619755D01*
X131079815Y-92497737D01*
X130952262Y-92370184D01*
X130799523Y-92274211D01*
X130629254Y-92214631D01*
X130629249Y-92214630D01*
X130450004Y-92194435D01*
X130449996Y-92194435D01*
X130270750Y-92214630D01*
X130270745Y-92214631D01*
X130100476Y-92274211D01*
X129947737Y-92370184D01*
X129820184Y-92497737D01*
X129724211Y-92650476D01*
X129664631Y-92820745D01*
X129664630Y-92820750D01*
X129644435Y-92999996D01*
X127000500Y-92999996D01*
X127000500Y-92845646D01*
X126964722Y-92619755D01*
X126964721Y-92619751D01*
X126964721Y-92619750D01*
X126894049Y-92402244D01*
X126837572Y-92291402D01*
X126790217Y-92198462D01*
X126655786Y-92013434D01*
X126494066Y-91851714D01*
X126409134Y-91790007D01*
X126366470Y-91734678D01*
X126360491Y-91665064D01*
X126393097Y-91603269D01*
X126409137Y-91589371D01*
X126493739Y-91527905D01*
X126601645Y-91419999D01*
X156144341Y-91419999D01*
X156144341Y-91420000D01*
X156164936Y-91655403D01*
X156164938Y-91655413D01*
X156226094Y-91883655D01*
X156226096Y-91883659D01*
X156226097Y-91883663D01*
X156325965Y-92097830D01*
X156325967Y-92097834D01*
X156396428Y-92198462D01*
X156449468Y-92274211D01*
X156461501Y-92291395D01*
X156461506Y-92291402D01*
X156628597Y-92458493D01*
X156628603Y-92458498D01*
X156814594Y-92588730D01*
X156858219Y-92643307D01*
X156865413Y-92712805D01*
X156833890Y-92775160D01*
X156814595Y-92791880D01*
X156628922Y-92921890D01*
X156628920Y-92921891D01*
X156461891Y-93088920D01*
X156461886Y-93088926D01*
X156326400Y-93282420D01*
X156326399Y-93282422D01*
X156226570Y-93496507D01*
X156226567Y-93496513D01*
X156169364Y-93709999D01*
X156169364Y-93710000D01*
X157066988Y-93710000D01*
X157034075Y-93767007D01*
X157000000Y-93894174D01*
X157000000Y-94025826D01*
X157034075Y-94152993D01*
X157066988Y-94210000D01*
X156169364Y-94210000D01*
X156226567Y-94423486D01*
X156226570Y-94423492D01*
X156326399Y-94637578D01*
X156461894Y-94831082D01*
X156583946Y-94953134D01*
X156617431Y-95014457D01*
X156612447Y-95084149D01*
X156570575Y-95140082D01*
X156539598Y-95156997D01*
X156407671Y-95206202D01*
X156407664Y-95206206D01*
X156292455Y-95292452D01*
X156292452Y-95292455D01*
X156206206Y-95407664D01*
X156206202Y-95407671D01*
X156155908Y-95542517D01*
X156149501Y-95602116D01*
X156149501Y-95602123D01*
X156149500Y-95602135D01*
X156149500Y-97397870D01*
X156149501Y-97397876D01*
X156155908Y-97457483D01*
X156206202Y-97592328D01*
X156206206Y-97592335D01*
X156292452Y-97707544D01*
X156292455Y-97707547D01*
X156407664Y-97793793D01*
X156407671Y-97793797D01*
X156542517Y-97844091D01*
X156542516Y-97844091D01*
X156549444Y-97844835D01*
X156602127Y-97850500D01*
X158397872Y-97850499D01*
X158457483Y-97844091D01*
X158592331Y-97793796D01*
X158707546Y-97707546D01*
X158793796Y-97592331D01*
X158844091Y-97457483D01*
X158850500Y-97397873D01*
X158850499Y-95602128D01*
X158844091Y-95542517D01*
X158828234Y-95500003D01*
X158793797Y-95407671D01*
X158793793Y-95407664D01*
X158707547Y-95292455D01*
X158707544Y-95292452D01*
X158592335Y-95206206D01*
X158592328Y-95206202D01*
X158460401Y-95156997D01*
X158404467Y-95115126D01*
X158380050Y-95049662D01*
X158394902Y-94981389D01*
X158416053Y-94953133D01*
X158538108Y-94831078D01*
X158673600Y-94637578D01*
X158773429Y-94423492D01*
X158773432Y-94423486D01*
X158830636Y-94210000D01*
X157933012Y-94210000D01*
X157965925Y-94152993D01*
X158000000Y-94025826D01*
X158000000Y-93894174D01*
X157965925Y-93767007D01*
X157933012Y-93710000D01*
X158830636Y-93710000D01*
X158830635Y-93709999D01*
X158773432Y-93496513D01*
X158773429Y-93496507D01*
X158673600Y-93282422D01*
X158673599Y-93282420D01*
X158538113Y-93088926D01*
X158538108Y-93088920D01*
X158371078Y-92921890D01*
X158185405Y-92791879D01*
X158141780Y-92737302D01*
X158134588Y-92667804D01*
X158166110Y-92605449D01*
X158185406Y-92588730D01*
X158315356Y-92497738D01*
X158371401Y-92458495D01*
X158538495Y-92291401D01*
X158674035Y-92097830D01*
X158773903Y-91883663D01*
X158835063Y-91655408D01*
X158855659Y-91420000D01*
X158835063Y-91184592D01*
X158773903Y-90956337D01*
X158674035Y-90742171D01*
X158597098Y-90632292D01*
X158538494Y-90548597D01*
X158371402Y-90381506D01*
X158371395Y-90381501D01*
X158177834Y-90245967D01*
X158177830Y-90245965D01*
X158177828Y-90245964D01*
X157963663Y-90146097D01*
X157963659Y-90146096D01*
X157963655Y-90146094D01*
X157735413Y-90084938D01*
X157735403Y-90084936D01*
X157500001Y-90064341D01*
X157499999Y-90064341D01*
X157264596Y-90084936D01*
X157264586Y-90084938D01*
X157036344Y-90146094D01*
X157036335Y-90146098D01*
X156822171Y-90245964D01*
X156822169Y-90245965D01*
X156628597Y-90381505D01*
X156461505Y-90548597D01*
X156325965Y-90742169D01*
X156325964Y-90742171D01*
X156226098Y-90956335D01*
X156226094Y-90956344D01*
X156164938Y-91184586D01*
X156164936Y-91184596D01*
X156144341Y-91419999D01*
X126601645Y-91419999D01*
X126655402Y-91366242D01*
X126789788Y-91181276D01*
X126893582Y-90977570D01*
X126964234Y-90760128D01*
X126978509Y-90670000D01*
X125990748Y-90670000D01*
X126012518Y-90632292D01*
X126050000Y-90492409D01*
X126050000Y-90347591D01*
X126012518Y-90207708D01*
X125990748Y-90170000D01*
X126978509Y-90170000D01*
X126964234Y-90079871D01*
X126893582Y-89862429D01*
X126789788Y-89658723D01*
X126655402Y-89473757D01*
X126493742Y-89312097D01*
X126308776Y-89177711D01*
X126105068Y-89073917D01*
X125887625Y-89003265D01*
X125887626Y-89003265D01*
X125750000Y-88981467D01*
X125750000Y-89929252D01*
X125712292Y-89907482D01*
X125572409Y-89870000D01*
X125427591Y-89870000D01*
X125287708Y-89907482D01*
X125250000Y-89929252D01*
X125250000Y-88981467D01*
X125112374Y-89003265D01*
X124894931Y-89073917D01*
X124691223Y-89177711D01*
X124506257Y-89312097D01*
X124344597Y-89473757D01*
X124210211Y-89658723D01*
X124106417Y-89862429D01*
X124035765Y-90079871D01*
X124021491Y-90170000D01*
X125009252Y-90170000D01*
X124987482Y-90207708D01*
X124950000Y-90347591D01*
X124950000Y-90492409D01*
X124987482Y-90632292D01*
X125009252Y-90670000D01*
X124021491Y-90670000D01*
X124035765Y-90760128D01*
X124106417Y-90977570D01*
X124210211Y-91181276D01*
X124344597Y-91366242D01*
X124506257Y-91527902D01*
X124506263Y-91527907D01*
X124590863Y-91589372D01*
X124633529Y-91644701D01*
X124639508Y-91714315D01*
X124606903Y-91776110D01*
X124590864Y-91790007D01*
X124505940Y-91851709D01*
X124505931Y-91851716D01*
X124344216Y-92013431D01*
X124344216Y-92013432D01*
X124344214Y-92013434D01*
X124286480Y-92092896D01*
X124209783Y-92198461D01*
X124105950Y-92402244D01*
X124035278Y-92619750D01*
X124035278Y-92619753D01*
X123999500Y-92845646D01*
X120700500Y-92845646D01*
X120700500Y-85499994D01*
X121094754Y-85499994D01*
X121094754Y-85500005D01*
X121113718Y-85801446D01*
X121113719Y-85801453D01*
X121170320Y-86098164D01*
X121263659Y-86385431D01*
X121263661Y-86385436D01*
X121392265Y-86658732D01*
X121392268Y-86658738D01*
X121554111Y-86913763D01*
X121554114Y-86913767D01*
X121554115Y-86913768D01*
X121704995Y-87096151D01*
X121746652Y-87146505D01*
X121966836Y-87353272D01*
X121966846Y-87353280D01*
X122211193Y-87530808D01*
X122211198Y-87530810D01*
X122211205Y-87530816D01*
X122475896Y-87676332D01*
X122475901Y-87676334D01*
X122475903Y-87676335D01*
X122475904Y-87676336D01*
X122756734Y-87787524D01*
X122756737Y-87787525D01*
X122854259Y-87812564D01*
X123049302Y-87862642D01*
X123196039Y-87881179D01*
X123348963Y-87900499D01*
X123348969Y-87900499D01*
X123348973Y-87900500D01*
X123348975Y-87900500D01*
X123651025Y-87900500D01*
X123651027Y-87900500D01*
X123651032Y-87900499D01*
X123651036Y-87900499D01*
X123730591Y-87890448D01*
X123950698Y-87862642D01*
X124243262Y-87787525D01*
X124300154Y-87765000D01*
X124401201Y-87724993D01*
X146594700Y-87724993D01*
X146594700Y-87725006D01*
X146613864Y-87956297D01*
X146613866Y-87956308D01*
X146670842Y-88181300D01*
X146764075Y-88393848D01*
X146891016Y-88588147D01*
X146891019Y-88588151D01*
X146891021Y-88588153D01*
X147048216Y-88758913D01*
X147048219Y-88758915D01*
X147048222Y-88758918D01*
X147231365Y-88901464D01*
X147231371Y-88901468D01*
X147231374Y-88901470D01*
X147435497Y-89011936D01*
X147549487Y-89051068D01*
X147655015Y-89087297D01*
X147655017Y-89087297D01*
X147655019Y-89087298D01*
X147883951Y-89125500D01*
X147883952Y-89125500D01*
X148116048Y-89125500D01*
X148116049Y-89125500D01*
X148344981Y-89087298D01*
X148564503Y-89011936D01*
X148768626Y-88901470D01*
X148951784Y-88758913D01*
X149108979Y-88588153D01*
X149235924Y-88393849D01*
X149329157Y-88181300D01*
X149386134Y-87956305D01*
X149393895Y-87862642D01*
X149401987Y-87764993D01*
X151594700Y-87764993D01*
X151594700Y-87765006D01*
X151613864Y-87996297D01*
X151613866Y-87996308D01*
X151670842Y-88221300D01*
X151764075Y-88433848D01*
X151891016Y-88628147D01*
X151891019Y-88628151D01*
X151891021Y-88628153D01*
X152048216Y-88798913D01*
X152048219Y-88798915D01*
X152048222Y-88798918D01*
X152231365Y-88941464D01*
X152231371Y-88941468D01*
X152231374Y-88941470D01*
X152435497Y-89051936D01*
X152538500Y-89087297D01*
X152655015Y-89127297D01*
X152655017Y-89127297D01*
X152655019Y-89127298D01*
X152883951Y-89165500D01*
X152883952Y-89165500D01*
X153116048Y-89165500D01*
X153116049Y-89165500D01*
X153344981Y-89127298D01*
X153564503Y-89051936D01*
X153768626Y-88941470D01*
X153951784Y-88798913D01*
X154108979Y-88628153D01*
X154235924Y-88433849D01*
X154329157Y-88221300D01*
X154386134Y-87996305D01*
X154386135Y-87996297D01*
X154405300Y-87765006D01*
X154405300Y-87764993D01*
X154386135Y-87533702D01*
X154386133Y-87533691D01*
X154329157Y-87308699D01*
X154235924Y-87096151D01*
X154108983Y-86901852D01*
X154108980Y-86901849D01*
X154108979Y-86901847D01*
X154014195Y-86798884D01*
X153983275Y-86736232D01*
X153991135Y-86666806D01*
X154035283Y-86612651D01*
X154062095Y-86598722D01*
X154142326Y-86568798D01*
X154142326Y-86568797D01*
X154142331Y-86568796D01*
X154257546Y-86482546D01*
X154343796Y-86367331D01*
X154394091Y-86232483D01*
X154400500Y-86172873D01*
X154400500Y-85499994D01*
X155594754Y-85499994D01*
X155594754Y-85500005D01*
X155613718Y-85801446D01*
X155613719Y-85801453D01*
X155670320Y-86098164D01*
X155763659Y-86385431D01*
X155763661Y-86385436D01*
X155892265Y-86658732D01*
X155892268Y-86658738D01*
X156054111Y-86913763D01*
X156054114Y-86913767D01*
X156054115Y-86913768D01*
X156204995Y-87096151D01*
X156246652Y-87146505D01*
X156466836Y-87353272D01*
X156466846Y-87353280D01*
X156711193Y-87530808D01*
X156711198Y-87530810D01*
X156711205Y-87530816D01*
X156975896Y-87676332D01*
X156975901Y-87676334D01*
X156975903Y-87676335D01*
X156975904Y-87676336D01*
X157256734Y-87787524D01*
X157256737Y-87787525D01*
X157354259Y-87812564D01*
X157549302Y-87862642D01*
X157696039Y-87881179D01*
X157848963Y-87900499D01*
X157848969Y-87900499D01*
X157848973Y-87900500D01*
X157848975Y-87900500D01*
X158151025Y-87900500D01*
X158151027Y-87900500D01*
X158151032Y-87900499D01*
X158151036Y-87900499D01*
X158230591Y-87890448D01*
X158450698Y-87862642D01*
X158743262Y-87787525D01*
X158800154Y-87765000D01*
X159024095Y-87676336D01*
X159024096Y-87676335D01*
X159024094Y-87676335D01*
X159024104Y-87676332D01*
X159288795Y-87530816D01*
X159533162Y-87353274D01*
X159753349Y-87146504D01*
X159945885Y-86913768D01*
X160107733Y-86658736D01*
X160236341Y-86385430D01*
X160329681Y-86098160D01*
X160386280Y-85801457D01*
X160405246Y-85500000D01*
X160386280Y-85198543D01*
X160329681Y-84901840D01*
X160236341Y-84614570D01*
X160107733Y-84341264D01*
X160067031Y-84277128D01*
X159945888Y-84086236D01*
X159909848Y-84042671D01*
X159753349Y-83853496D01*
X159740259Y-83841204D01*
X159533163Y-83646727D01*
X159533153Y-83646719D01*
X159288806Y-83469191D01*
X159288799Y-83469186D01*
X159288795Y-83469184D01*
X159024104Y-83323668D01*
X159024101Y-83323666D01*
X159024096Y-83323664D01*
X159024095Y-83323663D01*
X158743265Y-83212475D01*
X158743262Y-83212474D01*
X158450695Y-83137357D01*
X158151036Y-83099500D01*
X158151027Y-83099500D01*
X157848973Y-83099500D01*
X157848963Y-83099500D01*
X157549304Y-83137357D01*
X157256737Y-83212474D01*
X157256734Y-83212475D01*
X156975904Y-83323663D01*
X156975903Y-83323664D01*
X156711205Y-83469184D01*
X156711193Y-83469191D01*
X156466846Y-83646719D01*
X156466836Y-83646727D01*
X156246652Y-83853494D01*
X156054111Y-84086236D01*
X155892268Y-84341261D01*
X155892265Y-84341267D01*
X155763661Y-84614563D01*
X155763659Y-84614568D01*
X155670320Y-84901835D01*
X155613719Y-85198546D01*
X155613718Y-85198553D01*
X155594754Y-85499994D01*
X154400500Y-85499994D01*
X154400499Y-84277128D01*
X154394091Y-84217517D01*
X154345126Y-84086236D01*
X154343797Y-84082671D01*
X154343793Y-84082664D01*
X154257547Y-83967455D01*
X154257544Y-83967452D01*
X154142335Y-83881206D01*
X154142328Y-83881202D01*
X154007482Y-83830908D01*
X154007483Y-83830908D01*
X153947883Y-83824501D01*
X153947881Y-83824500D01*
X153947873Y-83824500D01*
X153947864Y-83824500D01*
X152052129Y-83824500D01*
X152052123Y-83824501D01*
X151992516Y-83830908D01*
X151857671Y-83881202D01*
X151857664Y-83881206D01*
X151742455Y-83967452D01*
X151742452Y-83967455D01*
X151656206Y-84082664D01*
X151656202Y-84082671D01*
X151605908Y-84217517D01*
X151599501Y-84277116D01*
X151599501Y-84277123D01*
X151599500Y-84277135D01*
X151599500Y-86172870D01*
X151599501Y-86172876D01*
X151605908Y-86232483D01*
X151656202Y-86367328D01*
X151656206Y-86367335D01*
X151742452Y-86482544D01*
X151742455Y-86482547D01*
X151857664Y-86568793D01*
X151857673Y-86568798D01*
X151937904Y-86598722D01*
X151993838Y-86640593D01*
X152018256Y-86706057D01*
X152003405Y-86774330D01*
X151985802Y-86798886D01*
X151891019Y-86901849D01*
X151764075Y-87096151D01*
X151670842Y-87308699D01*
X151613866Y-87533691D01*
X151613864Y-87533702D01*
X151594700Y-87764993D01*
X149401987Y-87764993D01*
X149405300Y-87725006D01*
X149405300Y-87724993D01*
X149386135Y-87493702D01*
X149386133Y-87493691D01*
X149329157Y-87268699D01*
X149235924Y-87056151D01*
X149108983Y-86861852D01*
X149108980Y-86861849D01*
X149108979Y-86861847D01*
X149014195Y-86758884D01*
X148983275Y-86696232D01*
X148991135Y-86626806D01*
X149035283Y-86572651D01*
X149062095Y-86558722D01*
X149142326Y-86528798D01*
X149142326Y-86528797D01*
X149142331Y-86528796D01*
X149257546Y-86442546D01*
X149343796Y-86327331D01*
X149394091Y-86192483D01*
X149400500Y-86132873D01*
X149400499Y-84237128D01*
X149394091Y-84177517D01*
X149360045Y-84086236D01*
X149343797Y-84042671D01*
X149343793Y-84042664D01*
X149257547Y-83927455D01*
X149257544Y-83927452D01*
X149142335Y-83841206D01*
X149142328Y-83841202D01*
X149007482Y-83790908D01*
X149007483Y-83790908D01*
X148947883Y-83784501D01*
X148947881Y-83784500D01*
X148947873Y-83784500D01*
X148947864Y-83784500D01*
X147052129Y-83784500D01*
X147052123Y-83784501D01*
X146992516Y-83790908D01*
X146857671Y-83841202D01*
X146857664Y-83841206D01*
X146742455Y-83927452D01*
X146742452Y-83927455D01*
X146656206Y-84042664D01*
X146656202Y-84042671D01*
X146605908Y-84177517D01*
X146601608Y-84217516D01*
X146599501Y-84237123D01*
X146599500Y-84237135D01*
X146599500Y-86132870D01*
X146599501Y-86132876D01*
X146605908Y-86192483D01*
X146656202Y-86327328D01*
X146656206Y-86327335D01*
X146742452Y-86442544D01*
X146742455Y-86442547D01*
X146857664Y-86528793D01*
X146857673Y-86528798D01*
X146937904Y-86558722D01*
X146993838Y-86600593D01*
X147018256Y-86666057D01*
X147003405Y-86734330D01*
X146985802Y-86758886D01*
X146891019Y-86861849D01*
X146764075Y-87056151D01*
X146670842Y-87268699D01*
X146613866Y-87493691D01*
X146613864Y-87493702D01*
X146594700Y-87724993D01*
X124401201Y-87724993D01*
X124524095Y-87676336D01*
X124524096Y-87676335D01*
X124524094Y-87676335D01*
X124524104Y-87676332D01*
X124788795Y-87530816D01*
X125033162Y-87353274D01*
X125253349Y-87146504D01*
X125445885Y-86913768D01*
X125607733Y-86658736D01*
X125736341Y-86385430D01*
X125829681Y-86098160D01*
X125886280Y-85801457D01*
X125905246Y-85500000D01*
X125886280Y-85198543D01*
X125829681Y-84901840D01*
X125736341Y-84614570D01*
X125607733Y-84341264D01*
X125567031Y-84277128D01*
X125445888Y-84086236D01*
X125409848Y-84042671D01*
X125253349Y-83853496D01*
X125240259Y-83841204D01*
X125033163Y-83646727D01*
X125033153Y-83646719D01*
X124788806Y-83469191D01*
X124788799Y-83469186D01*
X124788795Y-83469184D01*
X124524104Y-83323668D01*
X124524101Y-83323666D01*
X124524096Y-83323664D01*
X124524095Y-83323663D01*
X124243265Y-83212475D01*
X124243262Y-83212474D01*
X123950695Y-83137357D01*
X123651036Y-83099500D01*
X123651027Y-83099500D01*
X123348973Y-83099500D01*
X123348963Y-83099500D01*
X123049304Y-83137357D01*
X122756737Y-83212474D01*
X122756734Y-83212475D01*
X122475904Y-83323663D01*
X122475903Y-83323664D01*
X122211205Y-83469184D01*
X122211193Y-83469191D01*
X121966846Y-83646719D01*
X121966836Y-83646727D01*
X121746652Y-83853494D01*
X121554111Y-84086236D01*
X121392268Y-84341261D01*
X121392265Y-84341267D01*
X121263661Y-84614563D01*
X121263659Y-84614568D01*
X121170320Y-84901835D01*
X121113719Y-85198546D01*
X121113718Y-85198553D01*
X121094754Y-85499994D01*
X120700500Y-85499994D01*
X120700500Y-82824500D01*
X120720185Y-82757461D01*
X120772989Y-82711706D01*
X120824500Y-82700500D01*
X160675500Y-82700500D01*
X160742539Y-82720185D01*
G37*
%TD.AperFunction*%
%TD*%
M02*
