%TF.GenerationSoftware,KiCad,Pcbnew,8.0.6*%
%TF.CreationDate,2024-11-05T10:52:09-07:00*%
%TF.ProjectId,ProjectPCB,50726f6a-6563-4745-9043-422e6b696361,rev?*%
%TF.SameCoordinates,Original*%
%TF.FileFunction,Soldermask,Top*%
%TF.FilePolarity,Negative*%
%FSLAX46Y46*%
G04 Gerber Fmt 4.6, Leading zero omitted, Abs format (unit mm)*
G04 Created by KiCad (PCBNEW 8.0.6) date 2024-11-05 10:52:09*
%MOMM*%
%LPD*%
G01*
G04 APERTURE LIST*
G04 Aperture macros list*
%AMRoundRect*
0 Rectangle with rounded corners*
0 $1 Rounding radius*
0 $2 $3 $4 $5 $6 $7 $8 $9 X,Y pos of 4 corners*
0 Add a 4 corners polygon primitive as box body*
4,1,4,$2,$3,$4,$5,$6,$7,$8,$9,$2,$3,0*
0 Add four circle primitives for the rounded corners*
1,1,$1+$1,$2,$3*
1,1,$1+$1,$4,$5*
1,1,$1+$1,$6,$7*
1,1,$1+$1,$8,$9*
0 Add four rect primitives between the rounded corners*
20,1,$1+$1,$2,$3,$4,$5,0*
20,1,$1+$1,$4,$5,$6,$7,0*
20,1,$1+$1,$6,$7,$8,$9,0*
20,1,$1+$1,$8,$9,$2,$3,0*%
G04 Aperture macros list end*
%ADD10C,3.800000*%
%ADD11RoundRect,0.250000X0.262500X0.450000X-0.262500X0.450000X-0.262500X-0.450000X0.262500X-0.450000X0*%
%ADD12O,5.204000X2.704000*%
%ADD13O,4.704000X2.454000*%
%ADD14O,2.454000X4.704000*%
%ADD15R,1.700000X1.700000*%
%ADD16O,1.700000X1.700000*%
%ADD17R,4.500000X2.000000*%
%ADD18R,2.250000X2.250000*%
%ADD19C,2.250000*%
%ADD20R,1.600000X1.600000*%
%ADD21O,1.600000X1.600000*%
%ADD22RoundRect,0.250000X-0.250000X-0.475000X0.250000X-0.475000X0.250000X0.475000X-0.250000X0.475000X0*%
%ADD23RoundRect,0.250000X0.250000X0.475000X-0.250000X0.475000X-0.250000X-0.475000X0.250000X-0.475000X0*%
%ADD24O,2.000000X1.905000*%
%ADD25R,2.000000X1.905000*%
%ADD26R,0.550000X1.600000*%
%ADD27R,1.600000X0.550000*%
%ADD28RoundRect,0.250000X-0.450000X0.262500X-0.450000X-0.262500X0.450000X-0.262500X0.450000X0.262500X0*%
%ADD29R,1.800000X1.800000*%
%ADD30C,1.800000*%
%ADD31RoundRect,0.250000X0.450000X-0.262500X0.450000X0.262500X-0.450000X0.262500X-0.450000X-0.262500X0*%
G04 APERTURE END LIST*
D10*
%TO.C,H3*%
X133500000Y-117000000D03*
%TD*%
%TO.C,H2*%
X123500000Y-85500000D03*
%TD*%
%TO.C,H1*%
X158000000Y-85500000D03*
%TD*%
D11*
%TO.C,R4*%
X150912500Y-92500000D03*
X149087500Y-92500000D03*
%TD*%
D12*
%TO.C,J5*%
X126000000Y-106000000D03*
D13*
X126000000Y-112000000D03*
D14*
X130700000Y-109000000D03*
%TD*%
D15*
%TO.C,J3*%
X157500000Y-106000000D03*
D16*
X157500000Y-103460000D03*
X157500000Y-100920000D03*
%TD*%
D17*
%TO.C,Y1*%
X144250000Y-93000000D03*
X135750000Y-93000000D03*
%TD*%
D18*
%TO.C,SW1*%
X153250000Y-112500000D03*
D19*
X153250000Y-119000000D03*
%TD*%
D20*
%TO.C,SW2*%
X130300000Y-101000000D03*
D21*
X122680000Y-101000000D03*
%TD*%
D22*
%TO.C,C2*%
X135700000Y-87800000D03*
X137600000Y-87800000D03*
%TD*%
D11*
%TO.C,R5*%
X150912500Y-95500000D03*
X149087500Y-95500000D03*
%TD*%
D22*
%TO.C,C4*%
X130400000Y-90500000D03*
X128500000Y-90500000D03*
%TD*%
D23*
%TO.C,C1*%
X144300000Y-87900000D03*
X142400000Y-87900000D03*
%TD*%
D15*
%TO.C,J1*%
X148375000Y-112975000D03*
D16*
X148375000Y-115515000D03*
X145835000Y-112975000D03*
X145835000Y-115515000D03*
X143295000Y-112975000D03*
X143295000Y-115515000D03*
X140755000Y-112975000D03*
X140755000Y-115515000D03*
X138215000Y-112975000D03*
X138215000Y-115515000D03*
%TD*%
D11*
%TO.C,R1*%
X151412500Y-109500000D03*
X149587500Y-109500000D03*
%TD*%
D24*
%TO.C,U2*%
X125500000Y-90420000D03*
X125500000Y-92960000D03*
D25*
X125500000Y-95500000D03*
%TD*%
D15*
%TO.C,J2*%
X157500000Y-115500000D03*
D16*
X157500000Y-112960000D03*
X157500000Y-110420000D03*
%TD*%
D26*
%TO.C,U1*%
X145300000Y-97750000D03*
X144500000Y-97750000D03*
X143700000Y-97750000D03*
X142900000Y-97750000D03*
X142100000Y-97750000D03*
X141300000Y-97750000D03*
X140500000Y-97750000D03*
X139700000Y-97750000D03*
D27*
X138250000Y-99200000D03*
X138250000Y-100000000D03*
X138250000Y-100800000D03*
X138250000Y-101600000D03*
X138250000Y-102400000D03*
X138250000Y-103200000D03*
X138250000Y-104000000D03*
X138250000Y-104800000D03*
D26*
X139700000Y-106250000D03*
X140500000Y-106250000D03*
X141300000Y-106250000D03*
X142100000Y-106250000D03*
X142900000Y-106250000D03*
X143700000Y-106250000D03*
X144500000Y-106250000D03*
X145300000Y-106250000D03*
D27*
X146750000Y-104800000D03*
X146750000Y-104000000D03*
X146750000Y-103200000D03*
X146750000Y-102400000D03*
X146750000Y-101600000D03*
X146750000Y-100800000D03*
X146750000Y-100000000D03*
X146750000Y-99200000D03*
%TD*%
D28*
%TO.C,R3*%
X153500000Y-105627500D03*
X153500000Y-107452500D03*
%TD*%
D29*
%TO.C,D2*%
X153000000Y-85225000D03*
D30*
X153000000Y-87765000D03*
%TD*%
D31*
%TO.C,R2*%
X153500000Y-103412500D03*
X153500000Y-101587500D03*
%TD*%
D29*
%TO.C,D1*%
X148000000Y-85185000D03*
D30*
X148000000Y-87725000D03*
%TD*%
D15*
%TO.C,J4*%
X157500000Y-96500000D03*
D16*
X157500000Y-93960000D03*
X157500000Y-91420000D03*
%TD*%
D22*
%TO.C,C3*%
X130450000Y-95500000D03*
X128550000Y-95500000D03*
%TD*%
M02*
