%TF.GenerationSoftware,KiCad,Pcbnew,8.0.6*%
%TF.CreationDate,2024-11-05T10:52:09-07:00*%
%TF.ProjectId,ProjectPCB,50726f6a-6563-4745-9043-422e6b696361,rev?*%
%TF.SameCoordinates,Original*%
%TF.FileFunction,Paste,Top*%
%TF.FilePolarity,Positive*%
%FSLAX46Y46*%
G04 Gerber Fmt 4.6, Leading zero omitted, Abs format (unit mm)*
G04 Created by KiCad (PCBNEW 8.0.6) date 2024-11-05 10:52:09*
%MOMM*%
%LPD*%
G01*
G04 APERTURE LIST*
G04 Aperture macros list*
%AMRoundRect*
0 Rectangle with rounded corners*
0 $1 Rounding radius*
0 $2 $3 $4 $5 $6 $7 $8 $9 X,Y pos of 4 corners*
0 Add a 4 corners polygon primitive as box body*
4,1,4,$2,$3,$4,$5,$6,$7,$8,$9,$2,$3,0*
0 Add four circle primitives for the rounded corners*
1,1,$1+$1,$2,$3*
1,1,$1+$1,$4,$5*
1,1,$1+$1,$6,$7*
1,1,$1+$1,$8,$9*
0 Add four rect primitives between the rounded corners*
20,1,$1+$1,$2,$3,$4,$5,0*
20,1,$1+$1,$4,$5,$6,$7,0*
20,1,$1+$1,$6,$7,$8,$9,0*
20,1,$1+$1,$8,$9,$2,$3,0*%
G04 Aperture macros list end*
%ADD10RoundRect,0.250000X0.262500X0.450000X-0.262500X0.450000X-0.262500X-0.450000X0.262500X-0.450000X0*%
%ADD11R,4.500000X2.000000*%
%ADD12RoundRect,0.250000X-0.250000X-0.475000X0.250000X-0.475000X0.250000X0.475000X-0.250000X0.475000X0*%
%ADD13RoundRect,0.250000X0.250000X0.475000X-0.250000X0.475000X-0.250000X-0.475000X0.250000X-0.475000X0*%
%ADD14R,0.550000X1.600000*%
%ADD15R,1.600000X0.550000*%
%ADD16RoundRect,0.250000X-0.450000X0.262500X-0.450000X-0.262500X0.450000X-0.262500X0.450000X0.262500X0*%
%ADD17RoundRect,0.250000X0.450000X-0.262500X0.450000X0.262500X-0.450000X0.262500X-0.450000X-0.262500X0*%
G04 APERTURE END LIST*
D10*
%TO.C,R4*%
X150912500Y-92500000D03*
X149087500Y-92500000D03*
%TD*%
D11*
%TO.C,Y1*%
X144250000Y-93000000D03*
X135750000Y-93000000D03*
%TD*%
D12*
%TO.C,C2*%
X135700000Y-87800000D03*
X137600000Y-87800000D03*
%TD*%
D10*
%TO.C,R5*%
X150912500Y-95500000D03*
X149087500Y-95500000D03*
%TD*%
D12*
%TO.C,C4*%
X130400000Y-90500000D03*
X128500000Y-90500000D03*
%TD*%
D13*
%TO.C,C1*%
X144300000Y-87900000D03*
X142400000Y-87900000D03*
%TD*%
D10*
%TO.C,R1*%
X151412500Y-109500000D03*
X149587500Y-109500000D03*
%TD*%
D14*
%TO.C,U1*%
X145300000Y-97750000D03*
X144500000Y-97750000D03*
X143700000Y-97750000D03*
X142900000Y-97750000D03*
X142100000Y-97750000D03*
X141300000Y-97750000D03*
X140500000Y-97750000D03*
X139700000Y-97750000D03*
D15*
X138250000Y-99200000D03*
X138250000Y-100000000D03*
X138250000Y-100800000D03*
X138250000Y-101600000D03*
X138250000Y-102400000D03*
X138250000Y-103200000D03*
X138250000Y-104000000D03*
X138250000Y-104800000D03*
D14*
X139700000Y-106250000D03*
X140500000Y-106250000D03*
X141300000Y-106250000D03*
X142100000Y-106250000D03*
X142900000Y-106250000D03*
X143700000Y-106250000D03*
X144500000Y-106250000D03*
X145300000Y-106250000D03*
D15*
X146750000Y-104800000D03*
X146750000Y-104000000D03*
X146750000Y-103200000D03*
X146750000Y-102400000D03*
X146750000Y-101600000D03*
X146750000Y-100800000D03*
X146750000Y-100000000D03*
X146750000Y-99200000D03*
%TD*%
D16*
%TO.C,R3*%
X153500000Y-105627500D03*
X153500000Y-107452500D03*
%TD*%
D17*
%TO.C,R2*%
X153500000Y-103412500D03*
X153500000Y-101587500D03*
%TD*%
D12*
%TO.C,C3*%
X130450000Y-95500000D03*
X128550000Y-95500000D03*
%TD*%
M02*
