%TF.GenerationSoftware,KiCad,Pcbnew,8.0.5*%
%TF.CreationDate,2024-11-04T19:37:20-07:00*%
%TF.ProjectId,ProjectPCB,50726f6a-6563-4745-9043-422e6b696361,rev?*%
%TF.SameCoordinates,Original*%
%TF.FileFunction,Drillmap*%
%TF.FilePolarity,Positive*%
%FSLAX45Y45*%
G04 Gerber Fmt 4.5, Leading zero omitted, Abs format (unit mm)*
G04 Created by KiCad (PCBNEW 8.0.5) date 2024-11-04 19:37:20*
%MOMM*%
%LPD*%
G01*
G04 APERTURE LIST*
%ADD10C,0.050000*%
%ADD11C,0.200000*%
%ADD12C,0.100000*%
%ADD13C,0.110000*%
%ADD14C,0.130000*%
%ADD15C,0.220000*%
G04 APERTURE END LIST*
D10*
X12020000Y-8220000D02*
X16130000Y-8220000D01*
X16130000Y-12070000D01*
X12020000Y-12070000D01*
X12020000Y-8220000D01*
D11*
D12*
X14125000Y-10785000D02*
X14155000Y-10815000D01*
X14155000Y-10785000D02*
X14125000Y-10815000D01*
X14135000Y-9535000D02*
X14165000Y-9565000D01*
X14165000Y-9535000D02*
X14135000Y-9565000D01*
X14325000Y-10785000D02*
X14355000Y-10815000D01*
X14355000Y-10785000D02*
X14325000Y-10815000D01*
X14335000Y-9535000D02*
X14365000Y-9565000D01*
X14365000Y-9535000D02*
X14335000Y-9565000D01*
X14735000Y-10785000D02*
X14765000Y-10815000D01*
X14765000Y-10785000D02*
X14735000Y-10815000D01*
X15325000Y-9945000D02*
X15355000Y-9975000D01*
X15355000Y-9945000D02*
X15325000Y-9975000D01*
X15335000Y-10935000D02*
X15365000Y-10965000D01*
X15365000Y-10935000D02*
X15335000Y-10965000D01*
X12406000Y-10100000D02*
G75*
G02*
X12326000Y-10100000I-40000J0D01*
G01*
X12326000Y-10100000D02*
G75*
G02*
X12406000Y-10100000I40000J0D01*
G01*
X13168000Y-10100000D02*
G75*
G02*
X13088000Y-10100000I-40000J0D01*
G01*
X13088000Y-10100000D02*
G75*
G02*
X13168000Y-10100000I40000J0D01*
G01*
X14800000Y-8473500D02*
X14800000Y-8563500D01*
X14755000Y-8518500D02*
X14845000Y-8518500D01*
X14800000Y-8727500D02*
X14800000Y-8817500D01*
X14755000Y-8772500D02*
X14845000Y-8772500D01*
X15300000Y-8477500D02*
X15300000Y-8567500D01*
X15255000Y-8522500D02*
X15345000Y-8522500D01*
X15300000Y-8731500D02*
X15300000Y-8821500D01*
X15255000Y-8776500D02*
X15345000Y-8776500D01*
X12635356Y-10635356D02*
X12635356Y-10564644D01*
X12564644Y-10564644D01*
X12564644Y-10635356D01*
X12635356Y-10635356D01*
X12725000Y-10550000D02*
X12475000Y-10550000D01*
X12475000Y-10650000D02*
G75*
G02*
X12475000Y-10550000I0J50000D01*
G01*
X12475000Y-10650000D02*
X12725000Y-10650000D01*
X12725000Y-10650000D02*
G75*
G03*
X12725000Y-10550000I0J50000D01*
G01*
X12635356Y-11235356D02*
X12635356Y-11164644D01*
X12564644Y-11164644D01*
X12564644Y-11235356D01*
X12635356Y-11235356D01*
X12700000Y-11150000D02*
X12500000Y-11150000D01*
X12500000Y-11250000D02*
G75*
G02*
X12500000Y-11150000I0J50000D01*
G01*
X12500000Y-11250000D02*
X12700000Y-11250000D01*
X12700000Y-11250000D02*
G75*
G03*
X12700000Y-11150000I0J50000D01*
G01*
X13105356Y-10935356D02*
X13105356Y-10864644D01*
X13034644Y-10864644D01*
X13034644Y-10935356D01*
X13105356Y-10935356D01*
X13020000Y-10800000D02*
X13020000Y-11000000D01*
X13120000Y-11000000D02*
G75*
G02*
X13020000Y-11000000I-50000J0D01*
G01*
X13120000Y-11000000D02*
X13120000Y-10800000D01*
X13120000Y-10800000D02*
G75*
G03*
X13020000Y-10800000I-50000J0D01*
G01*
X13856856Y-11332856D02*
X13856856Y-11262144D01*
X13786144Y-11262144D01*
X13786144Y-11332856D01*
X13856856Y-11332856D01*
X13856856Y-11586856D02*
X13856856Y-11516144D01*
X13786144Y-11516144D01*
X13786144Y-11586856D01*
X13856856Y-11586856D01*
X14110856Y-11332856D02*
X14110856Y-11262144D01*
X14040144Y-11262144D01*
X14040144Y-11332856D01*
X14110856Y-11332856D01*
X14110856Y-11586856D02*
X14110856Y-11516144D01*
X14040144Y-11516144D01*
X14040144Y-11586856D01*
X14110856Y-11586856D01*
X14364856Y-11332856D02*
X14364856Y-11262144D01*
X14294144Y-11262144D01*
X14294144Y-11332856D01*
X14364856Y-11332856D01*
X14364856Y-11586856D02*
X14364856Y-11516144D01*
X14294144Y-11516144D01*
X14294144Y-11586856D01*
X14364856Y-11586856D01*
X14618856Y-11332856D02*
X14618856Y-11262144D01*
X14548144Y-11262144D01*
X14548144Y-11332856D01*
X14618856Y-11332856D01*
X14618856Y-11586856D02*
X14618856Y-11516144D01*
X14548144Y-11516144D01*
X14548144Y-11586856D01*
X14618856Y-11586856D01*
X14872856Y-11332856D02*
X14872856Y-11262144D01*
X14802144Y-11262144D01*
X14802144Y-11332856D01*
X14872856Y-11332856D01*
X14872856Y-11586856D02*
X14872856Y-11516144D01*
X14802144Y-11516144D01*
X14802144Y-11586856D01*
X14872856Y-11586856D01*
X15785356Y-9177356D02*
X15785356Y-9106644D01*
X15714644Y-9106644D01*
X15714644Y-9177356D01*
X15785356Y-9177356D01*
X15785356Y-9431356D02*
X15785356Y-9360644D01*
X15714644Y-9360644D01*
X15714644Y-9431356D01*
X15785356Y-9431356D01*
X15785356Y-9685356D02*
X15785356Y-9614644D01*
X15714644Y-9614644D01*
X15714644Y-9685356D01*
X15785356Y-9685356D01*
X15785356Y-10127356D02*
X15785356Y-10056644D01*
X15714644Y-10056644D01*
X15714644Y-10127356D01*
X15785356Y-10127356D01*
X15785356Y-10381356D02*
X15785356Y-10310644D01*
X15714644Y-10310644D01*
X15714644Y-10381356D01*
X15785356Y-10381356D01*
X15785356Y-10635356D02*
X15785356Y-10564644D01*
X15714644Y-10564644D01*
X15714644Y-10635356D01*
X15785356Y-10635356D01*
X15785356Y-11077356D02*
X15785356Y-11006644D01*
X15714644Y-11006644D01*
X15714644Y-11077356D01*
X15785356Y-11077356D01*
X15785356Y-11331356D02*
X15785356Y-11260644D01*
X15714644Y-11260644D01*
X15714644Y-11331356D01*
X15785356Y-11331356D01*
X15785356Y-11585356D02*
X15785356Y-11514644D01*
X15714644Y-11514644D01*
X15714644Y-11585356D01*
X15785356Y-11585356D01*
D13*
X12492000Y-9705000D02*
X12547000Y-9650000D01*
X12492000Y-9595000D01*
X12437000Y-9650000D01*
X12492000Y-9705000D01*
X12746000Y-9705000D02*
X12801000Y-9650000D01*
X12746000Y-9595000D01*
X12691000Y-9650000D01*
X12746000Y-9705000D01*
X13000000Y-9705000D02*
X13055000Y-9650000D01*
X13000000Y-9595000D01*
X12945000Y-9650000D01*
X13000000Y-9705000D01*
D14*
X15260000Y-11185000D02*
X15390000Y-11315000D01*
X15390000Y-11185000D02*
X15260000Y-11315000D01*
X15390000Y-11250000D02*
G75*
G02*
X15260000Y-11250000I-65000J0D01*
G01*
X15260000Y-11250000D02*
G75*
G02*
X15390000Y-11250000I65000J0D01*
G01*
X15260000Y-11835000D02*
X15390000Y-11965000D01*
X15390000Y-11835000D02*
X15260000Y-11965000D01*
X15390000Y-11900000D02*
G75*
G02*
X15260000Y-11900000I-65000J0D01*
G01*
X15260000Y-11900000D02*
G75*
G02*
X15390000Y-11900000I65000J0D01*
G01*
D15*
X12290000Y-8490000D02*
X12510000Y-8710000D01*
X12510000Y-8490000D02*
X12290000Y-8710000D01*
X12400000Y-8490000D02*
X12400000Y-8710000D01*
X12290000Y-8600000D02*
X12510000Y-8600000D01*
X13210000Y-11610000D02*
X13430000Y-11830000D01*
X13430000Y-11610000D02*
X13210000Y-11830000D01*
X13320000Y-11610000D02*
X13320000Y-11830000D01*
X13210000Y-11720000D02*
X13430000Y-11720000D01*
X15690000Y-8490000D02*
X15910000Y-8710000D01*
X15910000Y-8490000D02*
X15690000Y-8710000D01*
X15800000Y-8490000D02*
X15800000Y-8710000D01*
X15690000Y-8600000D02*
X15910000Y-8600000D01*
D11*
X12278277Y-12383984D02*
X12278277Y-12183984D01*
X12278277Y-12183984D02*
X12325896Y-12183984D01*
X12325896Y-12183984D02*
X12354467Y-12193508D01*
X12354467Y-12193508D02*
X12373515Y-12212555D01*
X12373515Y-12212555D02*
X12383039Y-12231603D01*
X12383039Y-12231603D02*
X12392562Y-12269698D01*
X12392562Y-12269698D02*
X12392562Y-12298269D01*
X12392562Y-12298269D02*
X12383039Y-12336365D01*
X12383039Y-12336365D02*
X12373515Y-12355412D01*
X12373515Y-12355412D02*
X12354467Y-12374460D01*
X12354467Y-12374460D02*
X12325896Y-12383984D01*
X12325896Y-12383984D02*
X12278277Y-12383984D01*
X12478277Y-12383984D02*
X12478277Y-12250650D01*
X12478277Y-12288746D02*
X12487801Y-12269698D01*
X12487801Y-12269698D02*
X12497324Y-12260174D01*
X12497324Y-12260174D02*
X12516372Y-12250650D01*
X12516372Y-12250650D02*
X12535420Y-12250650D01*
X12602086Y-12383984D02*
X12602086Y-12250650D01*
X12602086Y-12183984D02*
X12592562Y-12193508D01*
X12592562Y-12193508D02*
X12602086Y-12203031D01*
X12602086Y-12203031D02*
X12611610Y-12193508D01*
X12611610Y-12193508D02*
X12602086Y-12183984D01*
X12602086Y-12183984D02*
X12602086Y-12203031D01*
X12725896Y-12383984D02*
X12706848Y-12374460D01*
X12706848Y-12374460D02*
X12697324Y-12355412D01*
X12697324Y-12355412D02*
X12697324Y-12183984D01*
X12830658Y-12383984D02*
X12811610Y-12374460D01*
X12811610Y-12374460D02*
X12802086Y-12355412D01*
X12802086Y-12355412D02*
X12802086Y-12183984D01*
X13059229Y-12383984D02*
X13059229Y-12183984D01*
X13059229Y-12183984D02*
X13125896Y-12326841D01*
X13125896Y-12326841D02*
X13192562Y-12183984D01*
X13192562Y-12183984D02*
X13192562Y-12383984D01*
X13373515Y-12383984D02*
X13373515Y-12279222D01*
X13373515Y-12279222D02*
X13363991Y-12260174D01*
X13363991Y-12260174D02*
X13344943Y-12250650D01*
X13344943Y-12250650D02*
X13306848Y-12250650D01*
X13306848Y-12250650D02*
X13287801Y-12260174D01*
X13373515Y-12374460D02*
X13354467Y-12383984D01*
X13354467Y-12383984D02*
X13306848Y-12383984D01*
X13306848Y-12383984D02*
X13287801Y-12374460D01*
X13287801Y-12374460D02*
X13278277Y-12355412D01*
X13278277Y-12355412D02*
X13278277Y-12336365D01*
X13278277Y-12336365D02*
X13287801Y-12317317D01*
X13287801Y-12317317D02*
X13306848Y-12307793D01*
X13306848Y-12307793D02*
X13354467Y-12307793D01*
X13354467Y-12307793D02*
X13373515Y-12298269D01*
X13468753Y-12250650D02*
X13468753Y-12450650D01*
X13468753Y-12260174D02*
X13487801Y-12250650D01*
X13487801Y-12250650D02*
X13525896Y-12250650D01*
X13525896Y-12250650D02*
X13544943Y-12260174D01*
X13544943Y-12260174D02*
X13554467Y-12269698D01*
X13554467Y-12269698D02*
X13563991Y-12288746D01*
X13563991Y-12288746D02*
X13563991Y-12345888D01*
X13563991Y-12345888D02*
X13554467Y-12364936D01*
X13554467Y-12364936D02*
X13544943Y-12374460D01*
X13544943Y-12374460D02*
X13525896Y-12383984D01*
X13525896Y-12383984D02*
X13487801Y-12383984D01*
X13487801Y-12383984D02*
X13468753Y-12374460D01*
X13649705Y-12364936D02*
X13659229Y-12374460D01*
X13659229Y-12374460D02*
X13649705Y-12383984D01*
X13649705Y-12383984D02*
X13640182Y-12374460D01*
X13640182Y-12374460D02*
X13649705Y-12364936D01*
X13649705Y-12364936D02*
X13649705Y-12383984D01*
X13649705Y-12260174D02*
X13659229Y-12269698D01*
X13659229Y-12269698D02*
X13649705Y-12279222D01*
X13649705Y-12279222D02*
X13640182Y-12269698D01*
X13640182Y-12269698D02*
X13649705Y-12260174D01*
X13649705Y-12260174D02*
X13649705Y-12279222D01*
D12*
X11987500Y-12697500D02*
X12017500Y-12727500D01*
X12017500Y-12697500D02*
X11987500Y-12727500D01*
D11*
X12316372Y-12603984D02*
X12335420Y-12603984D01*
X12335420Y-12603984D02*
X12354467Y-12613508D01*
X12354467Y-12613508D02*
X12363991Y-12623031D01*
X12363991Y-12623031D02*
X12373515Y-12642079D01*
X12373515Y-12642079D02*
X12383039Y-12680174D01*
X12383039Y-12680174D02*
X12383039Y-12727793D01*
X12383039Y-12727793D02*
X12373515Y-12765888D01*
X12373515Y-12765888D02*
X12363991Y-12784936D01*
X12363991Y-12784936D02*
X12354467Y-12794460D01*
X12354467Y-12794460D02*
X12335420Y-12803984D01*
X12335420Y-12803984D02*
X12316372Y-12803984D01*
X12316372Y-12803984D02*
X12297324Y-12794460D01*
X12297324Y-12794460D02*
X12287801Y-12784936D01*
X12287801Y-12784936D02*
X12278277Y-12765888D01*
X12278277Y-12765888D02*
X12268753Y-12727793D01*
X12268753Y-12727793D02*
X12268753Y-12680174D01*
X12268753Y-12680174D02*
X12278277Y-12642079D01*
X12278277Y-12642079D02*
X12287801Y-12623031D01*
X12287801Y-12623031D02*
X12297324Y-12613508D01*
X12297324Y-12613508D02*
X12316372Y-12603984D01*
X12468753Y-12784936D02*
X12478277Y-12794460D01*
X12478277Y-12794460D02*
X12468753Y-12803984D01*
X12468753Y-12803984D02*
X12459229Y-12794460D01*
X12459229Y-12794460D02*
X12468753Y-12784936D01*
X12468753Y-12784936D02*
X12468753Y-12803984D01*
X12544943Y-12603984D02*
X12668753Y-12603984D01*
X12668753Y-12603984D02*
X12602086Y-12680174D01*
X12602086Y-12680174D02*
X12630658Y-12680174D01*
X12630658Y-12680174D02*
X12649705Y-12689698D01*
X12649705Y-12689698D02*
X12659229Y-12699222D01*
X12659229Y-12699222D02*
X12668753Y-12718269D01*
X12668753Y-12718269D02*
X12668753Y-12765888D01*
X12668753Y-12765888D02*
X12659229Y-12784936D01*
X12659229Y-12784936D02*
X12649705Y-12794460D01*
X12649705Y-12794460D02*
X12630658Y-12803984D01*
X12630658Y-12803984D02*
X12573515Y-12803984D01*
X12573515Y-12803984D02*
X12554467Y-12794460D01*
X12554467Y-12794460D02*
X12544943Y-12784936D01*
X12792562Y-12603984D02*
X12811610Y-12603984D01*
X12811610Y-12603984D02*
X12830658Y-12613508D01*
X12830658Y-12613508D02*
X12840182Y-12623031D01*
X12840182Y-12623031D02*
X12849705Y-12642079D01*
X12849705Y-12642079D02*
X12859229Y-12680174D01*
X12859229Y-12680174D02*
X12859229Y-12727793D01*
X12859229Y-12727793D02*
X12849705Y-12765888D01*
X12849705Y-12765888D02*
X12840182Y-12784936D01*
X12840182Y-12784936D02*
X12830658Y-12794460D01*
X12830658Y-12794460D02*
X12811610Y-12803984D01*
X12811610Y-12803984D02*
X12792562Y-12803984D01*
X12792562Y-12803984D02*
X12773515Y-12794460D01*
X12773515Y-12794460D02*
X12763991Y-12784936D01*
X12763991Y-12784936D02*
X12754467Y-12765888D01*
X12754467Y-12765888D02*
X12744943Y-12727793D01*
X12744943Y-12727793D02*
X12744943Y-12680174D01*
X12744943Y-12680174D02*
X12754467Y-12642079D01*
X12754467Y-12642079D02*
X12763991Y-12623031D01*
X12763991Y-12623031D02*
X12773515Y-12613508D01*
X12773515Y-12613508D02*
X12792562Y-12603984D01*
X12983039Y-12603984D02*
X13002086Y-12603984D01*
X13002086Y-12603984D02*
X13021134Y-12613508D01*
X13021134Y-12613508D02*
X13030658Y-12623031D01*
X13030658Y-12623031D02*
X13040182Y-12642079D01*
X13040182Y-12642079D02*
X13049705Y-12680174D01*
X13049705Y-12680174D02*
X13049705Y-12727793D01*
X13049705Y-12727793D02*
X13040182Y-12765888D01*
X13040182Y-12765888D02*
X13030658Y-12784936D01*
X13030658Y-12784936D02*
X13021134Y-12794460D01*
X13021134Y-12794460D02*
X13002086Y-12803984D01*
X13002086Y-12803984D02*
X12983039Y-12803984D01*
X12983039Y-12803984D02*
X12963991Y-12794460D01*
X12963991Y-12794460D02*
X12954467Y-12784936D01*
X12954467Y-12784936D02*
X12944943Y-12765888D01*
X12944943Y-12765888D02*
X12935420Y-12727793D01*
X12935420Y-12727793D02*
X12935420Y-12680174D01*
X12935420Y-12680174D02*
X12944943Y-12642079D01*
X12944943Y-12642079D02*
X12954467Y-12623031D01*
X12954467Y-12623031D02*
X12963991Y-12613508D01*
X12963991Y-12613508D02*
X12983039Y-12603984D01*
X13135420Y-12803984D02*
X13135420Y-12670650D01*
X13135420Y-12689698D02*
X13144943Y-12680174D01*
X13144943Y-12680174D02*
X13163991Y-12670650D01*
X13163991Y-12670650D02*
X13192563Y-12670650D01*
X13192563Y-12670650D02*
X13211610Y-12680174D01*
X13211610Y-12680174D02*
X13221134Y-12699222D01*
X13221134Y-12699222D02*
X13221134Y-12803984D01*
X13221134Y-12699222D02*
X13230658Y-12680174D01*
X13230658Y-12680174D02*
X13249705Y-12670650D01*
X13249705Y-12670650D02*
X13278277Y-12670650D01*
X13278277Y-12670650D02*
X13297324Y-12680174D01*
X13297324Y-12680174D02*
X13306848Y-12699222D01*
X13306848Y-12699222D02*
X13306848Y-12803984D01*
X13402086Y-12803984D02*
X13402086Y-12670650D01*
X13402086Y-12689698D02*
X13411610Y-12680174D01*
X13411610Y-12680174D02*
X13430658Y-12670650D01*
X13430658Y-12670650D02*
X13459229Y-12670650D01*
X13459229Y-12670650D02*
X13478277Y-12680174D01*
X13478277Y-12680174D02*
X13487801Y-12699222D01*
X13487801Y-12699222D02*
X13487801Y-12803984D01*
X13487801Y-12699222D02*
X13497324Y-12680174D01*
X13497324Y-12680174D02*
X13516372Y-12670650D01*
X13516372Y-12670650D02*
X13544943Y-12670650D01*
X13544943Y-12670650D02*
X13563991Y-12680174D01*
X13563991Y-12680174D02*
X13573515Y-12699222D01*
X13573515Y-12699222D02*
X13573515Y-12803984D01*
X13963991Y-12594460D02*
X13792563Y-12851603D01*
X14221134Y-12603984D02*
X14240182Y-12603984D01*
X14240182Y-12603984D02*
X14259229Y-12613508D01*
X14259229Y-12613508D02*
X14268753Y-12623031D01*
X14268753Y-12623031D02*
X14278277Y-12642079D01*
X14278277Y-12642079D02*
X14287801Y-12680174D01*
X14287801Y-12680174D02*
X14287801Y-12727793D01*
X14287801Y-12727793D02*
X14278277Y-12765888D01*
X14278277Y-12765888D02*
X14268753Y-12784936D01*
X14268753Y-12784936D02*
X14259229Y-12794460D01*
X14259229Y-12794460D02*
X14240182Y-12803984D01*
X14240182Y-12803984D02*
X14221134Y-12803984D01*
X14221134Y-12803984D02*
X14202086Y-12794460D01*
X14202086Y-12794460D02*
X14192563Y-12784936D01*
X14192563Y-12784936D02*
X14183039Y-12765888D01*
X14183039Y-12765888D02*
X14173515Y-12727793D01*
X14173515Y-12727793D02*
X14173515Y-12680174D01*
X14173515Y-12680174D02*
X14183039Y-12642079D01*
X14183039Y-12642079D02*
X14192563Y-12623031D01*
X14192563Y-12623031D02*
X14202086Y-12613508D01*
X14202086Y-12613508D02*
X14221134Y-12603984D01*
X14373515Y-12784936D02*
X14383039Y-12794460D01*
X14383039Y-12794460D02*
X14373515Y-12803984D01*
X14373515Y-12803984D02*
X14363991Y-12794460D01*
X14363991Y-12794460D02*
X14373515Y-12784936D01*
X14373515Y-12784936D02*
X14373515Y-12803984D01*
X14506848Y-12603984D02*
X14525896Y-12603984D01*
X14525896Y-12603984D02*
X14544944Y-12613508D01*
X14544944Y-12613508D02*
X14554467Y-12623031D01*
X14554467Y-12623031D02*
X14563991Y-12642079D01*
X14563991Y-12642079D02*
X14573515Y-12680174D01*
X14573515Y-12680174D02*
X14573515Y-12727793D01*
X14573515Y-12727793D02*
X14563991Y-12765888D01*
X14563991Y-12765888D02*
X14554467Y-12784936D01*
X14554467Y-12784936D02*
X14544944Y-12794460D01*
X14544944Y-12794460D02*
X14525896Y-12803984D01*
X14525896Y-12803984D02*
X14506848Y-12803984D01*
X14506848Y-12803984D02*
X14487801Y-12794460D01*
X14487801Y-12794460D02*
X14478277Y-12784936D01*
X14478277Y-12784936D02*
X14468753Y-12765888D01*
X14468753Y-12765888D02*
X14459229Y-12727793D01*
X14459229Y-12727793D02*
X14459229Y-12680174D01*
X14459229Y-12680174D02*
X14468753Y-12642079D01*
X14468753Y-12642079D02*
X14478277Y-12623031D01*
X14478277Y-12623031D02*
X14487801Y-12613508D01*
X14487801Y-12613508D02*
X14506848Y-12603984D01*
X14763991Y-12803984D02*
X14649706Y-12803984D01*
X14706848Y-12803984D02*
X14706848Y-12603984D01*
X14706848Y-12603984D02*
X14687801Y-12632555D01*
X14687801Y-12632555D02*
X14668753Y-12651603D01*
X14668753Y-12651603D02*
X14649706Y-12661127D01*
X14954467Y-12803984D02*
X14840182Y-12803984D01*
X14897325Y-12803984D02*
X14897325Y-12603984D01*
X14897325Y-12603984D02*
X14878277Y-12632555D01*
X14878277Y-12632555D02*
X14859229Y-12651603D01*
X14859229Y-12651603D02*
X14840182Y-12661127D01*
X15068753Y-12689698D02*
X15049706Y-12680174D01*
X15049706Y-12680174D02*
X15040182Y-12670650D01*
X15040182Y-12670650D02*
X15030658Y-12651603D01*
X15030658Y-12651603D02*
X15030658Y-12642079D01*
X15030658Y-12642079D02*
X15040182Y-12623031D01*
X15040182Y-12623031D02*
X15049706Y-12613508D01*
X15049706Y-12613508D02*
X15068753Y-12603984D01*
X15068753Y-12603984D02*
X15106848Y-12603984D01*
X15106848Y-12603984D02*
X15125896Y-12613508D01*
X15125896Y-12613508D02*
X15135420Y-12623031D01*
X15135420Y-12623031D02*
X15144944Y-12642079D01*
X15144944Y-12642079D02*
X15144944Y-12651603D01*
X15144944Y-12651603D02*
X15135420Y-12670650D01*
X15135420Y-12670650D02*
X15125896Y-12680174D01*
X15125896Y-12680174D02*
X15106848Y-12689698D01*
X15106848Y-12689698D02*
X15068753Y-12689698D01*
X15068753Y-12689698D02*
X15049706Y-12699222D01*
X15049706Y-12699222D02*
X15040182Y-12708746D01*
X15040182Y-12708746D02*
X15030658Y-12727793D01*
X15030658Y-12727793D02*
X15030658Y-12765888D01*
X15030658Y-12765888D02*
X15040182Y-12784936D01*
X15040182Y-12784936D02*
X15049706Y-12794460D01*
X15049706Y-12794460D02*
X15068753Y-12803984D01*
X15068753Y-12803984D02*
X15106848Y-12803984D01*
X15106848Y-12803984D02*
X15125896Y-12794460D01*
X15125896Y-12794460D02*
X15135420Y-12784936D01*
X15135420Y-12784936D02*
X15144944Y-12765888D01*
X15144944Y-12765888D02*
X15144944Y-12727793D01*
X15144944Y-12727793D02*
X15135420Y-12708746D01*
X15135420Y-12708746D02*
X15125896Y-12699222D01*
X15125896Y-12699222D02*
X15106848Y-12689698D01*
X15221134Y-12603984D02*
X15221134Y-12642079D01*
X15297325Y-12603984D02*
X15297325Y-12642079D01*
X15592563Y-12880174D02*
X15583039Y-12870650D01*
X15583039Y-12870650D02*
X15563991Y-12842079D01*
X15563991Y-12842079D02*
X15554468Y-12823031D01*
X15554468Y-12823031D02*
X15544944Y-12794460D01*
X15544944Y-12794460D02*
X15535420Y-12746841D01*
X15535420Y-12746841D02*
X15535420Y-12708746D01*
X15535420Y-12708746D02*
X15544944Y-12661127D01*
X15544944Y-12661127D02*
X15554468Y-12632555D01*
X15554468Y-12632555D02*
X15563991Y-12613508D01*
X15563991Y-12613508D02*
X15583039Y-12584936D01*
X15583039Y-12584936D02*
X15592563Y-12575412D01*
X15649706Y-12603984D02*
X15783039Y-12603984D01*
X15783039Y-12603984D02*
X15697325Y-12803984D01*
X16011610Y-12803984D02*
X16011610Y-12603984D01*
X16097325Y-12803984D02*
X16097325Y-12699222D01*
X16097325Y-12699222D02*
X16087801Y-12680174D01*
X16087801Y-12680174D02*
X16068753Y-12670650D01*
X16068753Y-12670650D02*
X16040182Y-12670650D01*
X16040182Y-12670650D02*
X16021134Y-12680174D01*
X16021134Y-12680174D02*
X16011610Y-12689698D01*
X16221134Y-12803984D02*
X16202087Y-12794460D01*
X16202087Y-12794460D02*
X16192563Y-12784936D01*
X16192563Y-12784936D02*
X16183039Y-12765888D01*
X16183039Y-12765888D02*
X16183039Y-12708746D01*
X16183039Y-12708746D02*
X16192563Y-12689698D01*
X16192563Y-12689698D02*
X16202087Y-12680174D01*
X16202087Y-12680174D02*
X16221134Y-12670650D01*
X16221134Y-12670650D02*
X16249706Y-12670650D01*
X16249706Y-12670650D02*
X16268753Y-12680174D01*
X16268753Y-12680174D02*
X16278277Y-12689698D01*
X16278277Y-12689698D02*
X16287801Y-12708746D01*
X16287801Y-12708746D02*
X16287801Y-12765888D01*
X16287801Y-12765888D02*
X16278277Y-12784936D01*
X16278277Y-12784936D02*
X16268753Y-12794460D01*
X16268753Y-12794460D02*
X16249706Y-12803984D01*
X16249706Y-12803984D02*
X16221134Y-12803984D01*
X16402087Y-12803984D02*
X16383039Y-12794460D01*
X16383039Y-12794460D02*
X16373515Y-12775412D01*
X16373515Y-12775412D02*
X16373515Y-12603984D01*
X16554468Y-12794460D02*
X16535420Y-12803984D01*
X16535420Y-12803984D02*
X16497325Y-12803984D01*
X16497325Y-12803984D02*
X16478277Y-12794460D01*
X16478277Y-12794460D02*
X16468753Y-12775412D01*
X16468753Y-12775412D02*
X16468753Y-12699222D01*
X16468753Y-12699222D02*
X16478277Y-12680174D01*
X16478277Y-12680174D02*
X16497325Y-12670650D01*
X16497325Y-12670650D02*
X16535420Y-12670650D01*
X16535420Y-12670650D02*
X16554468Y-12680174D01*
X16554468Y-12680174D02*
X16563991Y-12699222D01*
X16563991Y-12699222D02*
X16563991Y-12718269D01*
X16563991Y-12718269D02*
X16468753Y-12737317D01*
X16640182Y-12794460D02*
X16659230Y-12803984D01*
X16659230Y-12803984D02*
X16697325Y-12803984D01*
X16697325Y-12803984D02*
X16716372Y-12794460D01*
X16716372Y-12794460D02*
X16725896Y-12775412D01*
X16725896Y-12775412D02*
X16725896Y-12765888D01*
X16725896Y-12765888D02*
X16716372Y-12746841D01*
X16716372Y-12746841D02*
X16697325Y-12737317D01*
X16697325Y-12737317D02*
X16668753Y-12737317D01*
X16668753Y-12737317D02*
X16649706Y-12727793D01*
X16649706Y-12727793D02*
X16640182Y-12708746D01*
X16640182Y-12708746D02*
X16640182Y-12699222D01*
X16640182Y-12699222D02*
X16649706Y-12680174D01*
X16649706Y-12680174D02*
X16668753Y-12670650D01*
X16668753Y-12670650D02*
X16697325Y-12670650D01*
X16697325Y-12670650D02*
X16716372Y-12680174D01*
X16792563Y-12880174D02*
X16802087Y-12870650D01*
X16802087Y-12870650D02*
X16821134Y-12842079D01*
X16821134Y-12842079D02*
X16830658Y-12823031D01*
X16830658Y-12823031D02*
X16840182Y-12794460D01*
X16840182Y-12794460D02*
X16849706Y-12746841D01*
X16849706Y-12746841D02*
X16849706Y-12708746D01*
X16849706Y-12708746D02*
X16840182Y-12661127D01*
X16840182Y-12661127D02*
X16830658Y-12632555D01*
X16830658Y-12632555D02*
X16821134Y-12613508D01*
X16821134Y-12613508D02*
X16802087Y-12584936D01*
X16802087Y-12584936D02*
X16792563Y-12575412D01*
D12*
X12017500Y-12976500D02*
G75*
G02*
X11937500Y-12976500I-40000J0D01*
G01*
X11937500Y-12976500D02*
G75*
G02*
X12017500Y-12976500I40000J0D01*
G01*
D11*
X12316372Y-12867984D02*
X12335420Y-12867984D01*
X12335420Y-12867984D02*
X12354467Y-12877508D01*
X12354467Y-12877508D02*
X12363991Y-12887031D01*
X12363991Y-12887031D02*
X12373515Y-12906079D01*
X12373515Y-12906079D02*
X12383039Y-12944174D01*
X12383039Y-12944174D02*
X12383039Y-12991793D01*
X12383039Y-12991793D02*
X12373515Y-13029888D01*
X12373515Y-13029888D02*
X12363991Y-13048936D01*
X12363991Y-13048936D02*
X12354467Y-13058460D01*
X12354467Y-13058460D02*
X12335420Y-13067984D01*
X12335420Y-13067984D02*
X12316372Y-13067984D01*
X12316372Y-13067984D02*
X12297324Y-13058460D01*
X12297324Y-13058460D02*
X12287801Y-13048936D01*
X12287801Y-13048936D02*
X12278277Y-13029888D01*
X12278277Y-13029888D02*
X12268753Y-12991793D01*
X12268753Y-12991793D02*
X12268753Y-12944174D01*
X12268753Y-12944174D02*
X12278277Y-12906079D01*
X12278277Y-12906079D02*
X12287801Y-12887031D01*
X12287801Y-12887031D02*
X12297324Y-12877508D01*
X12297324Y-12877508D02*
X12316372Y-12867984D01*
X12468753Y-13048936D02*
X12478277Y-13058460D01*
X12478277Y-13058460D02*
X12468753Y-13067984D01*
X12468753Y-13067984D02*
X12459229Y-13058460D01*
X12459229Y-13058460D02*
X12468753Y-13048936D01*
X12468753Y-13048936D02*
X12468753Y-13067984D01*
X12592562Y-12953698D02*
X12573515Y-12944174D01*
X12573515Y-12944174D02*
X12563991Y-12934650D01*
X12563991Y-12934650D02*
X12554467Y-12915603D01*
X12554467Y-12915603D02*
X12554467Y-12906079D01*
X12554467Y-12906079D02*
X12563991Y-12887031D01*
X12563991Y-12887031D02*
X12573515Y-12877508D01*
X12573515Y-12877508D02*
X12592562Y-12867984D01*
X12592562Y-12867984D02*
X12630658Y-12867984D01*
X12630658Y-12867984D02*
X12649705Y-12877508D01*
X12649705Y-12877508D02*
X12659229Y-12887031D01*
X12659229Y-12887031D02*
X12668753Y-12906079D01*
X12668753Y-12906079D02*
X12668753Y-12915603D01*
X12668753Y-12915603D02*
X12659229Y-12934650D01*
X12659229Y-12934650D02*
X12649705Y-12944174D01*
X12649705Y-12944174D02*
X12630658Y-12953698D01*
X12630658Y-12953698D02*
X12592562Y-12953698D01*
X12592562Y-12953698D02*
X12573515Y-12963222D01*
X12573515Y-12963222D02*
X12563991Y-12972746D01*
X12563991Y-12972746D02*
X12554467Y-12991793D01*
X12554467Y-12991793D02*
X12554467Y-13029888D01*
X12554467Y-13029888D02*
X12563991Y-13048936D01*
X12563991Y-13048936D02*
X12573515Y-13058460D01*
X12573515Y-13058460D02*
X12592562Y-13067984D01*
X12592562Y-13067984D02*
X12630658Y-13067984D01*
X12630658Y-13067984D02*
X12649705Y-13058460D01*
X12649705Y-13058460D02*
X12659229Y-13048936D01*
X12659229Y-13048936D02*
X12668753Y-13029888D01*
X12668753Y-13029888D02*
X12668753Y-12991793D01*
X12668753Y-12991793D02*
X12659229Y-12972746D01*
X12659229Y-12972746D02*
X12649705Y-12963222D01*
X12649705Y-12963222D02*
X12630658Y-12953698D01*
X12792562Y-12867984D02*
X12811610Y-12867984D01*
X12811610Y-12867984D02*
X12830658Y-12877508D01*
X12830658Y-12877508D02*
X12840182Y-12887031D01*
X12840182Y-12887031D02*
X12849705Y-12906079D01*
X12849705Y-12906079D02*
X12859229Y-12944174D01*
X12859229Y-12944174D02*
X12859229Y-12991793D01*
X12859229Y-12991793D02*
X12849705Y-13029888D01*
X12849705Y-13029888D02*
X12840182Y-13048936D01*
X12840182Y-13048936D02*
X12830658Y-13058460D01*
X12830658Y-13058460D02*
X12811610Y-13067984D01*
X12811610Y-13067984D02*
X12792562Y-13067984D01*
X12792562Y-13067984D02*
X12773515Y-13058460D01*
X12773515Y-13058460D02*
X12763991Y-13048936D01*
X12763991Y-13048936D02*
X12754467Y-13029888D01*
X12754467Y-13029888D02*
X12744943Y-12991793D01*
X12744943Y-12991793D02*
X12744943Y-12944174D01*
X12744943Y-12944174D02*
X12754467Y-12906079D01*
X12754467Y-12906079D02*
X12763991Y-12887031D01*
X12763991Y-12887031D02*
X12773515Y-12877508D01*
X12773515Y-12877508D02*
X12792562Y-12867984D01*
X12983039Y-12867984D02*
X13002086Y-12867984D01*
X13002086Y-12867984D02*
X13021134Y-12877508D01*
X13021134Y-12877508D02*
X13030658Y-12887031D01*
X13030658Y-12887031D02*
X13040182Y-12906079D01*
X13040182Y-12906079D02*
X13049705Y-12944174D01*
X13049705Y-12944174D02*
X13049705Y-12991793D01*
X13049705Y-12991793D02*
X13040182Y-13029888D01*
X13040182Y-13029888D02*
X13030658Y-13048936D01*
X13030658Y-13048936D02*
X13021134Y-13058460D01*
X13021134Y-13058460D02*
X13002086Y-13067984D01*
X13002086Y-13067984D02*
X12983039Y-13067984D01*
X12983039Y-13067984D02*
X12963991Y-13058460D01*
X12963991Y-13058460D02*
X12954467Y-13048936D01*
X12954467Y-13048936D02*
X12944943Y-13029888D01*
X12944943Y-13029888D02*
X12935420Y-12991793D01*
X12935420Y-12991793D02*
X12935420Y-12944174D01*
X12935420Y-12944174D02*
X12944943Y-12906079D01*
X12944943Y-12906079D02*
X12954467Y-12887031D01*
X12954467Y-12887031D02*
X12963991Y-12877508D01*
X12963991Y-12877508D02*
X12983039Y-12867984D01*
X13135420Y-13067984D02*
X13135420Y-12934650D01*
X13135420Y-12953698D02*
X13144943Y-12944174D01*
X13144943Y-12944174D02*
X13163991Y-12934650D01*
X13163991Y-12934650D02*
X13192563Y-12934650D01*
X13192563Y-12934650D02*
X13211610Y-12944174D01*
X13211610Y-12944174D02*
X13221134Y-12963222D01*
X13221134Y-12963222D02*
X13221134Y-13067984D01*
X13221134Y-12963222D02*
X13230658Y-12944174D01*
X13230658Y-12944174D02*
X13249705Y-12934650D01*
X13249705Y-12934650D02*
X13278277Y-12934650D01*
X13278277Y-12934650D02*
X13297324Y-12944174D01*
X13297324Y-12944174D02*
X13306848Y-12963222D01*
X13306848Y-12963222D02*
X13306848Y-13067984D01*
X13402086Y-13067984D02*
X13402086Y-12934650D01*
X13402086Y-12953698D02*
X13411610Y-12944174D01*
X13411610Y-12944174D02*
X13430658Y-12934650D01*
X13430658Y-12934650D02*
X13459229Y-12934650D01*
X13459229Y-12934650D02*
X13478277Y-12944174D01*
X13478277Y-12944174D02*
X13487801Y-12963222D01*
X13487801Y-12963222D02*
X13487801Y-13067984D01*
X13487801Y-12963222D02*
X13497324Y-12944174D01*
X13497324Y-12944174D02*
X13516372Y-12934650D01*
X13516372Y-12934650D02*
X13544943Y-12934650D01*
X13544943Y-12934650D02*
X13563991Y-12944174D01*
X13563991Y-12944174D02*
X13573515Y-12963222D01*
X13573515Y-12963222D02*
X13573515Y-13067984D01*
X13963991Y-12858460D02*
X13792563Y-13115603D01*
X14221134Y-12867984D02*
X14240182Y-12867984D01*
X14240182Y-12867984D02*
X14259229Y-12877508D01*
X14259229Y-12877508D02*
X14268753Y-12887031D01*
X14268753Y-12887031D02*
X14278277Y-12906079D01*
X14278277Y-12906079D02*
X14287801Y-12944174D01*
X14287801Y-12944174D02*
X14287801Y-12991793D01*
X14287801Y-12991793D02*
X14278277Y-13029888D01*
X14278277Y-13029888D02*
X14268753Y-13048936D01*
X14268753Y-13048936D02*
X14259229Y-13058460D01*
X14259229Y-13058460D02*
X14240182Y-13067984D01*
X14240182Y-13067984D02*
X14221134Y-13067984D01*
X14221134Y-13067984D02*
X14202086Y-13058460D01*
X14202086Y-13058460D02*
X14192563Y-13048936D01*
X14192563Y-13048936D02*
X14183039Y-13029888D01*
X14183039Y-13029888D02*
X14173515Y-12991793D01*
X14173515Y-12991793D02*
X14173515Y-12944174D01*
X14173515Y-12944174D02*
X14183039Y-12906079D01*
X14183039Y-12906079D02*
X14192563Y-12887031D01*
X14192563Y-12887031D02*
X14202086Y-12877508D01*
X14202086Y-12877508D02*
X14221134Y-12867984D01*
X14373515Y-13048936D02*
X14383039Y-13058460D01*
X14383039Y-13058460D02*
X14373515Y-13067984D01*
X14373515Y-13067984D02*
X14363991Y-13058460D01*
X14363991Y-13058460D02*
X14373515Y-13048936D01*
X14373515Y-13048936D02*
X14373515Y-13067984D01*
X14506848Y-12867984D02*
X14525896Y-12867984D01*
X14525896Y-12867984D02*
X14544944Y-12877508D01*
X14544944Y-12877508D02*
X14554467Y-12887031D01*
X14554467Y-12887031D02*
X14563991Y-12906079D01*
X14563991Y-12906079D02*
X14573515Y-12944174D01*
X14573515Y-12944174D02*
X14573515Y-12991793D01*
X14573515Y-12991793D02*
X14563991Y-13029888D01*
X14563991Y-13029888D02*
X14554467Y-13048936D01*
X14554467Y-13048936D02*
X14544944Y-13058460D01*
X14544944Y-13058460D02*
X14525896Y-13067984D01*
X14525896Y-13067984D02*
X14506848Y-13067984D01*
X14506848Y-13067984D02*
X14487801Y-13058460D01*
X14487801Y-13058460D02*
X14478277Y-13048936D01*
X14478277Y-13048936D02*
X14468753Y-13029888D01*
X14468753Y-13029888D02*
X14459229Y-12991793D01*
X14459229Y-12991793D02*
X14459229Y-12944174D01*
X14459229Y-12944174D02*
X14468753Y-12906079D01*
X14468753Y-12906079D02*
X14478277Y-12887031D01*
X14478277Y-12887031D02*
X14487801Y-12877508D01*
X14487801Y-12877508D02*
X14506848Y-12867984D01*
X14640182Y-12867984D02*
X14763991Y-12867984D01*
X14763991Y-12867984D02*
X14697325Y-12944174D01*
X14697325Y-12944174D02*
X14725896Y-12944174D01*
X14725896Y-12944174D02*
X14744944Y-12953698D01*
X14744944Y-12953698D02*
X14754467Y-12963222D01*
X14754467Y-12963222D02*
X14763991Y-12982269D01*
X14763991Y-12982269D02*
X14763991Y-13029888D01*
X14763991Y-13029888D02*
X14754467Y-13048936D01*
X14754467Y-13048936D02*
X14744944Y-13058460D01*
X14744944Y-13058460D02*
X14725896Y-13067984D01*
X14725896Y-13067984D02*
X14668753Y-13067984D01*
X14668753Y-13067984D02*
X14649706Y-13058460D01*
X14649706Y-13058460D02*
X14640182Y-13048936D01*
X14954467Y-13067984D02*
X14840182Y-13067984D01*
X14897325Y-13067984D02*
X14897325Y-12867984D01*
X14897325Y-12867984D02*
X14878277Y-12896555D01*
X14878277Y-12896555D02*
X14859229Y-12915603D01*
X14859229Y-12915603D02*
X14840182Y-12925127D01*
X15135420Y-12867984D02*
X15040182Y-12867984D01*
X15040182Y-12867984D02*
X15030658Y-12963222D01*
X15030658Y-12963222D02*
X15040182Y-12953698D01*
X15040182Y-12953698D02*
X15059229Y-12944174D01*
X15059229Y-12944174D02*
X15106848Y-12944174D01*
X15106848Y-12944174D02*
X15125896Y-12953698D01*
X15125896Y-12953698D02*
X15135420Y-12963222D01*
X15135420Y-12963222D02*
X15144944Y-12982269D01*
X15144944Y-12982269D02*
X15144944Y-13029888D01*
X15144944Y-13029888D02*
X15135420Y-13048936D01*
X15135420Y-13048936D02*
X15125896Y-13058460D01*
X15125896Y-13058460D02*
X15106848Y-13067984D01*
X15106848Y-13067984D02*
X15059229Y-13067984D01*
X15059229Y-13067984D02*
X15040182Y-13058460D01*
X15040182Y-13058460D02*
X15030658Y-13048936D01*
X15221134Y-12867984D02*
X15221134Y-12906079D01*
X15297325Y-12867984D02*
X15297325Y-12906079D01*
X15592563Y-13144174D02*
X15583039Y-13134650D01*
X15583039Y-13134650D02*
X15563991Y-13106079D01*
X15563991Y-13106079D02*
X15554468Y-13087031D01*
X15554468Y-13087031D02*
X15544944Y-13058460D01*
X15544944Y-13058460D02*
X15535420Y-13010841D01*
X15535420Y-13010841D02*
X15535420Y-12972746D01*
X15535420Y-12972746D02*
X15544944Y-12925127D01*
X15544944Y-12925127D02*
X15554468Y-12896555D01*
X15554468Y-12896555D02*
X15563991Y-12877508D01*
X15563991Y-12877508D02*
X15583039Y-12848936D01*
X15583039Y-12848936D02*
X15592563Y-12839412D01*
X15659229Y-12887031D02*
X15668753Y-12877508D01*
X15668753Y-12877508D02*
X15687801Y-12867984D01*
X15687801Y-12867984D02*
X15735420Y-12867984D01*
X15735420Y-12867984D02*
X15754468Y-12877508D01*
X15754468Y-12877508D02*
X15763991Y-12887031D01*
X15763991Y-12887031D02*
X15773515Y-12906079D01*
X15773515Y-12906079D02*
X15773515Y-12925127D01*
X15773515Y-12925127D02*
X15763991Y-12953698D01*
X15763991Y-12953698D02*
X15649706Y-13067984D01*
X15649706Y-13067984D02*
X15773515Y-13067984D01*
X16011610Y-13067984D02*
X16011610Y-12867984D01*
X16097325Y-13067984D02*
X16097325Y-12963222D01*
X16097325Y-12963222D02*
X16087801Y-12944174D01*
X16087801Y-12944174D02*
X16068753Y-12934650D01*
X16068753Y-12934650D02*
X16040182Y-12934650D01*
X16040182Y-12934650D02*
X16021134Y-12944174D01*
X16021134Y-12944174D02*
X16011610Y-12953698D01*
X16221134Y-13067984D02*
X16202087Y-13058460D01*
X16202087Y-13058460D02*
X16192563Y-13048936D01*
X16192563Y-13048936D02*
X16183039Y-13029888D01*
X16183039Y-13029888D02*
X16183039Y-12972746D01*
X16183039Y-12972746D02*
X16192563Y-12953698D01*
X16192563Y-12953698D02*
X16202087Y-12944174D01*
X16202087Y-12944174D02*
X16221134Y-12934650D01*
X16221134Y-12934650D02*
X16249706Y-12934650D01*
X16249706Y-12934650D02*
X16268753Y-12944174D01*
X16268753Y-12944174D02*
X16278277Y-12953698D01*
X16278277Y-12953698D02*
X16287801Y-12972746D01*
X16287801Y-12972746D02*
X16287801Y-13029888D01*
X16287801Y-13029888D02*
X16278277Y-13048936D01*
X16278277Y-13048936D02*
X16268753Y-13058460D01*
X16268753Y-13058460D02*
X16249706Y-13067984D01*
X16249706Y-13067984D02*
X16221134Y-13067984D01*
X16402087Y-13067984D02*
X16383039Y-13058460D01*
X16383039Y-13058460D02*
X16373515Y-13039412D01*
X16373515Y-13039412D02*
X16373515Y-12867984D01*
X16554468Y-13058460D02*
X16535420Y-13067984D01*
X16535420Y-13067984D02*
X16497325Y-13067984D01*
X16497325Y-13067984D02*
X16478277Y-13058460D01*
X16478277Y-13058460D02*
X16468753Y-13039412D01*
X16468753Y-13039412D02*
X16468753Y-12963222D01*
X16468753Y-12963222D02*
X16478277Y-12944174D01*
X16478277Y-12944174D02*
X16497325Y-12934650D01*
X16497325Y-12934650D02*
X16535420Y-12934650D01*
X16535420Y-12934650D02*
X16554468Y-12944174D01*
X16554468Y-12944174D02*
X16563991Y-12963222D01*
X16563991Y-12963222D02*
X16563991Y-12982269D01*
X16563991Y-12982269D02*
X16468753Y-13001317D01*
X16640182Y-13058460D02*
X16659230Y-13067984D01*
X16659230Y-13067984D02*
X16697325Y-13067984D01*
X16697325Y-13067984D02*
X16716372Y-13058460D01*
X16716372Y-13058460D02*
X16725896Y-13039412D01*
X16725896Y-13039412D02*
X16725896Y-13029888D01*
X16725896Y-13029888D02*
X16716372Y-13010841D01*
X16716372Y-13010841D02*
X16697325Y-13001317D01*
X16697325Y-13001317D02*
X16668753Y-13001317D01*
X16668753Y-13001317D02*
X16649706Y-12991793D01*
X16649706Y-12991793D02*
X16640182Y-12972746D01*
X16640182Y-12972746D02*
X16640182Y-12963222D01*
X16640182Y-12963222D02*
X16649706Y-12944174D01*
X16649706Y-12944174D02*
X16668753Y-12934650D01*
X16668753Y-12934650D02*
X16697325Y-12934650D01*
X16697325Y-12934650D02*
X16716372Y-12944174D01*
X16792563Y-13144174D02*
X16802087Y-13134650D01*
X16802087Y-13134650D02*
X16821134Y-13106079D01*
X16821134Y-13106079D02*
X16830658Y-13087031D01*
X16830658Y-13087031D02*
X16840182Y-13058460D01*
X16840182Y-13058460D02*
X16849706Y-13010841D01*
X16849706Y-13010841D02*
X16849706Y-12972746D01*
X16849706Y-12972746D02*
X16840182Y-12925127D01*
X16840182Y-12925127D02*
X16830658Y-12896555D01*
X16830658Y-12896555D02*
X16821134Y-12877508D01*
X16821134Y-12877508D02*
X16802087Y-12848936D01*
X16802087Y-12848936D02*
X16792563Y-12839412D01*
D12*
X11972500Y-13195500D02*
X11972500Y-13285500D01*
X11927500Y-13240500D02*
X12017500Y-13240500D01*
D11*
X12316372Y-13131984D02*
X12335420Y-13131984D01*
X12335420Y-13131984D02*
X12354467Y-13141508D01*
X12354467Y-13141508D02*
X12363991Y-13151031D01*
X12363991Y-13151031D02*
X12373515Y-13170079D01*
X12373515Y-13170079D02*
X12383039Y-13208174D01*
X12383039Y-13208174D02*
X12383039Y-13255793D01*
X12383039Y-13255793D02*
X12373515Y-13293888D01*
X12373515Y-13293888D02*
X12363991Y-13312936D01*
X12363991Y-13312936D02*
X12354467Y-13322460D01*
X12354467Y-13322460D02*
X12335420Y-13331984D01*
X12335420Y-13331984D02*
X12316372Y-13331984D01*
X12316372Y-13331984D02*
X12297324Y-13322460D01*
X12297324Y-13322460D02*
X12287801Y-13312936D01*
X12287801Y-13312936D02*
X12278277Y-13293888D01*
X12278277Y-13293888D02*
X12268753Y-13255793D01*
X12268753Y-13255793D02*
X12268753Y-13208174D01*
X12268753Y-13208174D02*
X12278277Y-13170079D01*
X12278277Y-13170079D02*
X12287801Y-13151031D01*
X12287801Y-13151031D02*
X12297324Y-13141508D01*
X12297324Y-13141508D02*
X12316372Y-13131984D01*
X12468753Y-13312936D02*
X12478277Y-13322460D01*
X12478277Y-13322460D02*
X12468753Y-13331984D01*
X12468753Y-13331984D02*
X12459229Y-13322460D01*
X12459229Y-13322460D02*
X12468753Y-13312936D01*
X12468753Y-13312936D02*
X12468753Y-13331984D01*
X12573515Y-13331984D02*
X12611610Y-13331984D01*
X12611610Y-13331984D02*
X12630658Y-13322460D01*
X12630658Y-13322460D02*
X12640182Y-13312936D01*
X12640182Y-13312936D02*
X12659229Y-13284365D01*
X12659229Y-13284365D02*
X12668753Y-13246269D01*
X12668753Y-13246269D02*
X12668753Y-13170079D01*
X12668753Y-13170079D02*
X12659229Y-13151031D01*
X12659229Y-13151031D02*
X12649705Y-13141508D01*
X12649705Y-13141508D02*
X12630658Y-13131984D01*
X12630658Y-13131984D02*
X12592562Y-13131984D01*
X12592562Y-13131984D02*
X12573515Y-13141508D01*
X12573515Y-13141508D02*
X12563991Y-13151031D01*
X12563991Y-13151031D02*
X12554467Y-13170079D01*
X12554467Y-13170079D02*
X12554467Y-13217698D01*
X12554467Y-13217698D02*
X12563991Y-13236746D01*
X12563991Y-13236746D02*
X12573515Y-13246269D01*
X12573515Y-13246269D02*
X12592562Y-13255793D01*
X12592562Y-13255793D02*
X12630658Y-13255793D01*
X12630658Y-13255793D02*
X12649705Y-13246269D01*
X12649705Y-13246269D02*
X12659229Y-13236746D01*
X12659229Y-13236746D02*
X12668753Y-13217698D01*
X12792562Y-13131984D02*
X12811610Y-13131984D01*
X12811610Y-13131984D02*
X12830658Y-13141508D01*
X12830658Y-13141508D02*
X12840182Y-13151031D01*
X12840182Y-13151031D02*
X12849705Y-13170079D01*
X12849705Y-13170079D02*
X12859229Y-13208174D01*
X12859229Y-13208174D02*
X12859229Y-13255793D01*
X12859229Y-13255793D02*
X12849705Y-13293888D01*
X12849705Y-13293888D02*
X12840182Y-13312936D01*
X12840182Y-13312936D02*
X12830658Y-13322460D01*
X12830658Y-13322460D02*
X12811610Y-13331984D01*
X12811610Y-13331984D02*
X12792562Y-13331984D01*
X12792562Y-13331984D02*
X12773515Y-13322460D01*
X12773515Y-13322460D02*
X12763991Y-13312936D01*
X12763991Y-13312936D02*
X12754467Y-13293888D01*
X12754467Y-13293888D02*
X12744943Y-13255793D01*
X12744943Y-13255793D02*
X12744943Y-13208174D01*
X12744943Y-13208174D02*
X12754467Y-13170079D01*
X12754467Y-13170079D02*
X12763991Y-13151031D01*
X12763991Y-13151031D02*
X12773515Y-13141508D01*
X12773515Y-13141508D02*
X12792562Y-13131984D01*
X12983039Y-13131984D02*
X13002086Y-13131984D01*
X13002086Y-13131984D02*
X13021134Y-13141508D01*
X13021134Y-13141508D02*
X13030658Y-13151031D01*
X13030658Y-13151031D02*
X13040182Y-13170079D01*
X13040182Y-13170079D02*
X13049705Y-13208174D01*
X13049705Y-13208174D02*
X13049705Y-13255793D01*
X13049705Y-13255793D02*
X13040182Y-13293888D01*
X13040182Y-13293888D02*
X13030658Y-13312936D01*
X13030658Y-13312936D02*
X13021134Y-13322460D01*
X13021134Y-13322460D02*
X13002086Y-13331984D01*
X13002086Y-13331984D02*
X12983039Y-13331984D01*
X12983039Y-13331984D02*
X12963991Y-13322460D01*
X12963991Y-13322460D02*
X12954467Y-13312936D01*
X12954467Y-13312936D02*
X12944943Y-13293888D01*
X12944943Y-13293888D02*
X12935420Y-13255793D01*
X12935420Y-13255793D02*
X12935420Y-13208174D01*
X12935420Y-13208174D02*
X12944943Y-13170079D01*
X12944943Y-13170079D02*
X12954467Y-13151031D01*
X12954467Y-13151031D02*
X12963991Y-13141508D01*
X12963991Y-13141508D02*
X12983039Y-13131984D01*
X13135420Y-13331984D02*
X13135420Y-13198650D01*
X13135420Y-13217698D02*
X13144943Y-13208174D01*
X13144943Y-13208174D02*
X13163991Y-13198650D01*
X13163991Y-13198650D02*
X13192563Y-13198650D01*
X13192563Y-13198650D02*
X13211610Y-13208174D01*
X13211610Y-13208174D02*
X13221134Y-13227222D01*
X13221134Y-13227222D02*
X13221134Y-13331984D01*
X13221134Y-13227222D02*
X13230658Y-13208174D01*
X13230658Y-13208174D02*
X13249705Y-13198650D01*
X13249705Y-13198650D02*
X13278277Y-13198650D01*
X13278277Y-13198650D02*
X13297324Y-13208174D01*
X13297324Y-13208174D02*
X13306848Y-13227222D01*
X13306848Y-13227222D02*
X13306848Y-13331984D01*
X13402086Y-13331984D02*
X13402086Y-13198650D01*
X13402086Y-13217698D02*
X13411610Y-13208174D01*
X13411610Y-13208174D02*
X13430658Y-13198650D01*
X13430658Y-13198650D02*
X13459229Y-13198650D01*
X13459229Y-13198650D02*
X13478277Y-13208174D01*
X13478277Y-13208174D02*
X13487801Y-13227222D01*
X13487801Y-13227222D02*
X13487801Y-13331984D01*
X13487801Y-13227222D02*
X13497324Y-13208174D01*
X13497324Y-13208174D02*
X13516372Y-13198650D01*
X13516372Y-13198650D02*
X13544943Y-13198650D01*
X13544943Y-13198650D02*
X13563991Y-13208174D01*
X13563991Y-13208174D02*
X13573515Y-13227222D01*
X13573515Y-13227222D02*
X13573515Y-13331984D01*
X13963991Y-13122460D02*
X13792563Y-13379603D01*
X14221134Y-13131984D02*
X14240182Y-13131984D01*
X14240182Y-13131984D02*
X14259229Y-13141508D01*
X14259229Y-13141508D02*
X14268753Y-13151031D01*
X14268753Y-13151031D02*
X14278277Y-13170079D01*
X14278277Y-13170079D02*
X14287801Y-13208174D01*
X14287801Y-13208174D02*
X14287801Y-13255793D01*
X14287801Y-13255793D02*
X14278277Y-13293888D01*
X14278277Y-13293888D02*
X14268753Y-13312936D01*
X14268753Y-13312936D02*
X14259229Y-13322460D01*
X14259229Y-13322460D02*
X14240182Y-13331984D01*
X14240182Y-13331984D02*
X14221134Y-13331984D01*
X14221134Y-13331984D02*
X14202086Y-13322460D01*
X14202086Y-13322460D02*
X14192563Y-13312936D01*
X14192563Y-13312936D02*
X14183039Y-13293888D01*
X14183039Y-13293888D02*
X14173515Y-13255793D01*
X14173515Y-13255793D02*
X14173515Y-13208174D01*
X14173515Y-13208174D02*
X14183039Y-13170079D01*
X14183039Y-13170079D02*
X14192563Y-13151031D01*
X14192563Y-13151031D02*
X14202086Y-13141508D01*
X14202086Y-13141508D02*
X14221134Y-13131984D01*
X14373515Y-13312936D02*
X14383039Y-13322460D01*
X14383039Y-13322460D02*
X14373515Y-13331984D01*
X14373515Y-13331984D02*
X14363991Y-13322460D01*
X14363991Y-13322460D02*
X14373515Y-13312936D01*
X14373515Y-13312936D02*
X14373515Y-13331984D01*
X14506848Y-13131984D02*
X14525896Y-13131984D01*
X14525896Y-13131984D02*
X14544944Y-13141508D01*
X14544944Y-13141508D02*
X14554467Y-13151031D01*
X14554467Y-13151031D02*
X14563991Y-13170079D01*
X14563991Y-13170079D02*
X14573515Y-13208174D01*
X14573515Y-13208174D02*
X14573515Y-13255793D01*
X14573515Y-13255793D02*
X14563991Y-13293888D01*
X14563991Y-13293888D02*
X14554467Y-13312936D01*
X14554467Y-13312936D02*
X14544944Y-13322460D01*
X14544944Y-13322460D02*
X14525896Y-13331984D01*
X14525896Y-13331984D02*
X14506848Y-13331984D01*
X14506848Y-13331984D02*
X14487801Y-13322460D01*
X14487801Y-13322460D02*
X14478277Y-13312936D01*
X14478277Y-13312936D02*
X14468753Y-13293888D01*
X14468753Y-13293888D02*
X14459229Y-13255793D01*
X14459229Y-13255793D02*
X14459229Y-13208174D01*
X14459229Y-13208174D02*
X14468753Y-13170079D01*
X14468753Y-13170079D02*
X14478277Y-13151031D01*
X14478277Y-13151031D02*
X14487801Y-13141508D01*
X14487801Y-13141508D02*
X14506848Y-13131984D01*
X14640182Y-13131984D02*
X14763991Y-13131984D01*
X14763991Y-13131984D02*
X14697325Y-13208174D01*
X14697325Y-13208174D02*
X14725896Y-13208174D01*
X14725896Y-13208174D02*
X14744944Y-13217698D01*
X14744944Y-13217698D02*
X14754467Y-13227222D01*
X14754467Y-13227222D02*
X14763991Y-13246269D01*
X14763991Y-13246269D02*
X14763991Y-13293888D01*
X14763991Y-13293888D02*
X14754467Y-13312936D01*
X14754467Y-13312936D02*
X14744944Y-13322460D01*
X14744944Y-13322460D02*
X14725896Y-13331984D01*
X14725896Y-13331984D02*
X14668753Y-13331984D01*
X14668753Y-13331984D02*
X14649706Y-13322460D01*
X14649706Y-13322460D02*
X14640182Y-13312936D01*
X14944944Y-13131984D02*
X14849706Y-13131984D01*
X14849706Y-13131984D02*
X14840182Y-13227222D01*
X14840182Y-13227222D02*
X14849706Y-13217698D01*
X14849706Y-13217698D02*
X14868753Y-13208174D01*
X14868753Y-13208174D02*
X14916372Y-13208174D01*
X14916372Y-13208174D02*
X14935420Y-13217698D01*
X14935420Y-13217698D02*
X14944944Y-13227222D01*
X14944944Y-13227222D02*
X14954467Y-13246269D01*
X14954467Y-13246269D02*
X14954467Y-13293888D01*
X14954467Y-13293888D02*
X14944944Y-13312936D01*
X14944944Y-13312936D02*
X14935420Y-13322460D01*
X14935420Y-13322460D02*
X14916372Y-13331984D01*
X14916372Y-13331984D02*
X14868753Y-13331984D01*
X14868753Y-13331984D02*
X14849706Y-13322460D01*
X14849706Y-13322460D02*
X14840182Y-13312936D01*
X15125896Y-13198650D02*
X15125896Y-13331984D01*
X15078277Y-13122460D02*
X15030658Y-13265317D01*
X15030658Y-13265317D02*
X15154467Y-13265317D01*
X15221134Y-13131984D02*
X15221134Y-13170079D01*
X15297325Y-13131984D02*
X15297325Y-13170079D01*
X15592563Y-13408174D02*
X15583039Y-13398650D01*
X15583039Y-13398650D02*
X15563991Y-13370079D01*
X15563991Y-13370079D02*
X15554468Y-13351031D01*
X15554468Y-13351031D02*
X15544944Y-13322460D01*
X15544944Y-13322460D02*
X15535420Y-13274841D01*
X15535420Y-13274841D02*
X15535420Y-13236746D01*
X15535420Y-13236746D02*
X15544944Y-13189127D01*
X15544944Y-13189127D02*
X15554468Y-13160555D01*
X15554468Y-13160555D02*
X15563991Y-13141508D01*
X15563991Y-13141508D02*
X15583039Y-13112936D01*
X15583039Y-13112936D02*
X15592563Y-13103412D01*
X15754468Y-13198650D02*
X15754468Y-13331984D01*
X15706848Y-13122460D02*
X15659229Y-13265317D01*
X15659229Y-13265317D02*
X15783039Y-13265317D01*
X16011610Y-13331984D02*
X16011610Y-13131984D01*
X16097325Y-13331984D02*
X16097325Y-13227222D01*
X16097325Y-13227222D02*
X16087801Y-13208174D01*
X16087801Y-13208174D02*
X16068753Y-13198650D01*
X16068753Y-13198650D02*
X16040182Y-13198650D01*
X16040182Y-13198650D02*
X16021134Y-13208174D01*
X16021134Y-13208174D02*
X16011610Y-13217698D01*
X16221134Y-13331984D02*
X16202087Y-13322460D01*
X16202087Y-13322460D02*
X16192563Y-13312936D01*
X16192563Y-13312936D02*
X16183039Y-13293888D01*
X16183039Y-13293888D02*
X16183039Y-13236746D01*
X16183039Y-13236746D02*
X16192563Y-13217698D01*
X16192563Y-13217698D02*
X16202087Y-13208174D01*
X16202087Y-13208174D02*
X16221134Y-13198650D01*
X16221134Y-13198650D02*
X16249706Y-13198650D01*
X16249706Y-13198650D02*
X16268753Y-13208174D01*
X16268753Y-13208174D02*
X16278277Y-13217698D01*
X16278277Y-13217698D02*
X16287801Y-13236746D01*
X16287801Y-13236746D02*
X16287801Y-13293888D01*
X16287801Y-13293888D02*
X16278277Y-13312936D01*
X16278277Y-13312936D02*
X16268753Y-13322460D01*
X16268753Y-13322460D02*
X16249706Y-13331984D01*
X16249706Y-13331984D02*
X16221134Y-13331984D01*
X16402087Y-13331984D02*
X16383039Y-13322460D01*
X16383039Y-13322460D02*
X16373515Y-13303412D01*
X16373515Y-13303412D02*
X16373515Y-13131984D01*
X16554468Y-13322460D02*
X16535420Y-13331984D01*
X16535420Y-13331984D02*
X16497325Y-13331984D01*
X16497325Y-13331984D02*
X16478277Y-13322460D01*
X16478277Y-13322460D02*
X16468753Y-13303412D01*
X16468753Y-13303412D02*
X16468753Y-13227222D01*
X16468753Y-13227222D02*
X16478277Y-13208174D01*
X16478277Y-13208174D02*
X16497325Y-13198650D01*
X16497325Y-13198650D02*
X16535420Y-13198650D01*
X16535420Y-13198650D02*
X16554468Y-13208174D01*
X16554468Y-13208174D02*
X16563991Y-13227222D01*
X16563991Y-13227222D02*
X16563991Y-13246269D01*
X16563991Y-13246269D02*
X16468753Y-13265317D01*
X16640182Y-13322460D02*
X16659230Y-13331984D01*
X16659230Y-13331984D02*
X16697325Y-13331984D01*
X16697325Y-13331984D02*
X16716372Y-13322460D01*
X16716372Y-13322460D02*
X16725896Y-13303412D01*
X16725896Y-13303412D02*
X16725896Y-13293888D01*
X16725896Y-13293888D02*
X16716372Y-13274841D01*
X16716372Y-13274841D02*
X16697325Y-13265317D01*
X16697325Y-13265317D02*
X16668753Y-13265317D01*
X16668753Y-13265317D02*
X16649706Y-13255793D01*
X16649706Y-13255793D02*
X16640182Y-13236746D01*
X16640182Y-13236746D02*
X16640182Y-13227222D01*
X16640182Y-13227222D02*
X16649706Y-13208174D01*
X16649706Y-13208174D02*
X16668753Y-13198650D01*
X16668753Y-13198650D02*
X16697325Y-13198650D01*
X16697325Y-13198650D02*
X16716372Y-13208174D01*
X16792563Y-13408174D02*
X16802087Y-13398650D01*
X16802087Y-13398650D02*
X16821134Y-13370079D01*
X16821134Y-13370079D02*
X16830658Y-13351031D01*
X16830658Y-13351031D02*
X16840182Y-13322460D01*
X16840182Y-13322460D02*
X16849706Y-13274841D01*
X16849706Y-13274841D02*
X16849706Y-13236746D01*
X16849706Y-13236746D02*
X16840182Y-13189127D01*
X16840182Y-13189127D02*
X16830658Y-13160555D01*
X16830658Y-13160555D02*
X16821134Y-13141508D01*
X16821134Y-13141508D02*
X16802087Y-13112936D01*
X16802087Y-13112936D02*
X16792563Y-13103412D01*
D12*
X12002856Y-13539856D02*
X12002856Y-13469144D01*
X11932144Y-13469144D01*
X11932144Y-13539856D01*
X12002856Y-13539856D01*
D11*
X12383039Y-13595984D02*
X12268753Y-13595984D01*
X12325896Y-13595984D02*
X12325896Y-13395984D01*
X12325896Y-13395984D02*
X12306848Y-13424555D01*
X12306848Y-13424555D02*
X12287801Y-13443603D01*
X12287801Y-13443603D02*
X12268753Y-13453127D01*
X12468753Y-13576936D02*
X12478277Y-13586460D01*
X12478277Y-13586460D02*
X12468753Y-13595984D01*
X12468753Y-13595984D02*
X12459229Y-13586460D01*
X12459229Y-13586460D02*
X12468753Y-13576936D01*
X12468753Y-13576936D02*
X12468753Y-13595984D01*
X12602086Y-13395984D02*
X12621134Y-13395984D01*
X12621134Y-13395984D02*
X12640182Y-13405508D01*
X12640182Y-13405508D02*
X12649705Y-13415031D01*
X12649705Y-13415031D02*
X12659229Y-13434079D01*
X12659229Y-13434079D02*
X12668753Y-13472174D01*
X12668753Y-13472174D02*
X12668753Y-13519793D01*
X12668753Y-13519793D02*
X12659229Y-13557888D01*
X12659229Y-13557888D02*
X12649705Y-13576936D01*
X12649705Y-13576936D02*
X12640182Y-13586460D01*
X12640182Y-13586460D02*
X12621134Y-13595984D01*
X12621134Y-13595984D02*
X12602086Y-13595984D01*
X12602086Y-13595984D02*
X12583039Y-13586460D01*
X12583039Y-13586460D02*
X12573515Y-13576936D01*
X12573515Y-13576936D02*
X12563991Y-13557888D01*
X12563991Y-13557888D02*
X12554467Y-13519793D01*
X12554467Y-13519793D02*
X12554467Y-13472174D01*
X12554467Y-13472174D02*
X12563991Y-13434079D01*
X12563991Y-13434079D02*
X12573515Y-13415031D01*
X12573515Y-13415031D02*
X12583039Y-13405508D01*
X12583039Y-13405508D02*
X12602086Y-13395984D01*
X12792562Y-13395984D02*
X12811610Y-13395984D01*
X12811610Y-13395984D02*
X12830658Y-13405508D01*
X12830658Y-13405508D02*
X12840182Y-13415031D01*
X12840182Y-13415031D02*
X12849705Y-13434079D01*
X12849705Y-13434079D02*
X12859229Y-13472174D01*
X12859229Y-13472174D02*
X12859229Y-13519793D01*
X12859229Y-13519793D02*
X12849705Y-13557888D01*
X12849705Y-13557888D02*
X12840182Y-13576936D01*
X12840182Y-13576936D02*
X12830658Y-13586460D01*
X12830658Y-13586460D02*
X12811610Y-13595984D01*
X12811610Y-13595984D02*
X12792562Y-13595984D01*
X12792562Y-13595984D02*
X12773515Y-13586460D01*
X12773515Y-13586460D02*
X12763991Y-13576936D01*
X12763991Y-13576936D02*
X12754467Y-13557888D01*
X12754467Y-13557888D02*
X12744943Y-13519793D01*
X12744943Y-13519793D02*
X12744943Y-13472174D01*
X12744943Y-13472174D02*
X12754467Y-13434079D01*
X12754467Y-13434079D02*
X12763991Y-13415031D01*
X12763991Y-13415031D02*
X12773515Y-13405508D01*
X12773515Y-13405508D02*
X12792562Y-13395984D01*
X12983039Y-13395984D02*
X13002086Y-13395984D01*
X13002086Y-13395984D02*
X13021134Y-13405508D01*
X13021134Y-13405508D02*
X13030658Y-13415031D01*
X13030658Y-13415031D02*
X13040182Y-13434079D01*
X13040182Y-13434079D02*
X13049705Y-13472174D01*
X13049705Y-13472174D02*
X13049705Y-13519793D01*
X13049705Y-13519793D02*
X13040182Y-13557888D01*
X13040182Y-13557888D02*
X13030658Y-13576936D01*
X13030658Y-13576936D02*
X13021134Y-13586460D01*
X13021134Y-13586460D02*
X13002086Y-13595984D01*
X13002086Y-13595984D02*
X12983039Y-13595984D01*
X12983039Y-13595984D02*
X12963991Y-13586460D01*
X12963991Y-13586460D02*
X12954467Y-13576936D01*
X12954467Y-13576936D02*
X12944943Y-13557888D01*
X12944943Y-13557888D02*
X12935420Y-13519793D01*
X12935420Y-13519793D02*
X12935420Y-13472174D01*
X12935420Y-13472174D02*
X12944943Y-13434079D01*
X12944943Y-13434079D02*
X12954467Y-13415031D01*
X12954467Y-13415031D02*
X12963991Y-13405508D01*
X12963991Y-13405508D02*
X12983039Y-13395984D01*
X13135420Y-13595984D02*
X13135420Y-13462650D01*
X13135420Y-13481698D02*
X13144943Y-13472174D01*
X13144943Y-13472174D02*
X13163991Y-13462650D01*
X13163991Y-13462650D02*
X13192563Y-13462650D01*
X13192563Y-13462650D02*
X13211610Y-13472174D01*
X13211610Y-13472174D02*
X13221134Y-13491222D01*
X13221134Y-13491222D02*
X13221134Y-13595984D01*
X13221134Y-13491222D02*
X13230658Y-13472174D01*
X13230658Y-13472174D02*
X13249705Y-13462650D01*
X13249705Y-13462650D02*
X13278277Y-13462650D01*
X13278277Y-13462650D02*
X13297324Y-13472174D01*
X13297324Y-13472174D02*
X13306848Y-13491222D01*
X13306848Y-13491222D02*
X13306848Y-13595984D01*
X13402086Y-13595984D02*
X13402086Y-13462650D01*
X13402086Y-13481698D02*
X13411610Y-13472174D01*
X13411610Y-13472174D02*
X13430658Y-13462650D01*
X13430658Y-13462650D02*
X13459229Y-13462650D01*
X13459229Y-13462650D02*
X13478277Y-13472174D01*
X13478277Y-13472174D02*
X13487801Y-13491222D01*
X13487801Y-13491222D02*
X13487801Y-13595984D01*
X13487801Y-13491222D02*
X13497324Y-13472174D01*
X13497324Y-13472174D02*
X13516372Y-13462650D01*
X13516372Y-13462650D02*
X13544943Y-13462650D01*
X13544943Y-13462650D02*
X13563991Y-13472174D01*
X13563991Y-13472174D02*
X13573515Y-13491222D01*
X13573515Y-13491222D02*
X13573515Y-13595984D01*
X13963991Y-13386460D02*
X13792563Y-13643603D01*
X14221134Y-13395984D02*
X14240182Y-13395984D01*
X14240182Y-13395984D02*
X14259229Y-13405508D01*
X14259229Y-13405508D02*
X14268753Y-13415031D01*
X14268753Y-13415031D02*
X14278277Y-13434079D01*
X14278277Y-13434079D02*
X14287801Y-13472174D01*
X14287801Y-13472174D02*
X14287801Y-13519793D01*
X14287801Y-13519793D02*
X14278277Y-13557888D01*
X14278277Y-13557888D02*
X14268753Y-13576936D01*
X14268753Y-13576936D02*
X14259229Y-13586460D01*
X14259229Y-13586460D02*
X14240182Y-13595984D01*
X14240182Y-13595984D02*
X14221134Y-13595984D01*
X14221134Y-13595984D02*
X14202086Y-13586460D01*
X14202086Y-13586460D02*
X14192563Y-13576936D01*
X14192563Y-13576936D02*
X14183039Y-13557888D01*
X14183039Y-13557888D02*
X14173515Y-13519793D01*
X14173515Y-13519793D02*
X14173515Y-13472174D01*
X14173515Y-13472174D02*
X14183039Y-13434079D01*
X14183039Y-13434079D02*
X14192563Y-13415031D01*
X14192563Y-13415031D02*
X14202086Y-13405508D01*
X14202086Y-13405508D02*
X14221134Y-13395984D01*
X14373515Y-13576936D02*
X14383039Y-13586460D01*
X14383039Y-13586460D02*
X14373515Y-13595984D01*
X14373515Y-13595984D02*
X14363991Y-13586460D01*
X14363991Y-13586460D02*
X14373515Y-13576936D01*
X14373515Y-13576936D02*
X14373515Y-13595984D01*
X14506848Y-13395984D02*
X14525896Y-13395984D01*
X14525896Y-13395984D02*
X14544944Y-13405508D01*
X14544944Y-13405508D02*
X14554467Y-13415031D01*
X14554467Y-13415031D02*
X14563991Y-13434079D01*
X14563991Y-13434079D02*
X14573515Y-13472174D01*
X14573515Y-13472174D02*
X14573515Y-13519793D01*
X14573515Y-13519793D02*
X14563991Y-13557888D01*
X14563991Y-13557888D02*
X14554467Y-13576936D01*
X14554467Y-13576936D02*
X14544944Y-13586460D01*
X14544944Y-13586460D02*
X14525896Y-13595984D01*
X14525896Y-13595984D02*
X14506848Y-13595984D01*
X14506848Y-13595984D02*
X14487801Y-13586460D01*
X14487801Y-13586460D02*
X14478277Y-13576936D01*
X14478277Y-13576936D02*
X14468753Y-13557888D01*
X14468753Y-13557888D02*
X14459229Y-13519793D01*
X14459229Y-13519793D02*
X14459229Y-13472174D01*
X14459229Y-13472174D02*
X14468753Y-13434079D01*
X14468753Y-13434079D02*
X14478277Y-13415031D01*
X14478277Y-13415031D02*
X14487801Y-13405508D01*
X14487801Y-13405508D02*
X14506848Y-13395984D01*
X14640182Y-13395984D02*
X14763991Y-13395984D01*
X14763991Y-13395984D02*
X14697325Y-13472174D01*
X14697325Y-13472174D02*
X14725896Y-13472174D01*
X14725896Y-13472174D02*
X14744944Y-13481698D01*
X14744944Y-13481698D02*
X14754467Y-13491222D01*
X14754467Y-13491222D02*
X14763991Y-13510269D01*
X14763991Y-13510269D02*
X14763991Y-13557888D01*
X14763991Y-13557888D02*
X14754467Y-13576936D01*
X14754467Y-13576936D02*
X14744944Y-13586460D01*
X14744944Y-13586460D02*
X14725896Y-13595984D01*
X14725896Y-13595984D02*
X14668753Y-13595984D01*
X14668753Y-13595984D02*
X14649706Y-13586460D01*
X14649706Y-13586460D02*
X14640182Y-13576936D01*
X14859229Y-13595984D02*
X14897325Y-13595984D01*
X14897325Y-13595984D02*
X14916372Y-13586460D01*
X14916372Y-13586460D02*
X14925896Y-13576936D01*
X14925896Y-13576936D02*
X14944944Y-13548365D01*
X14944944Y-13548365D02*
X14954467Y-13510269D01*
X14954467Y-13510269D02*
X14954467Y-13434079D01*
X14954467Y-13434079D02*
X14944944Y-13415031D01*
X14944944Y-13415031D02*
X14935420Y-13405508D01*
X14935420Y-13405508D02*
X14916372Y-13395984D01*
X14916372Y-13395984D02*
X14878277Y-13395984D01*
X14878277Y-13395984D02*
X14859229Y-13405508D01*
X14859229Y-13405508D02*
X14849706Y-13415031D01*
X14849706Y-13415031D02*
X14840182Y-13434079D01*
X14840182Y-13434079D02*
X14840182Y-13481698D01*
X14840182Y-13481698D02*
X14849706Y-13500746D01*
X14849706Y-13500746D02*
X14859229Y-13510269D01*
X14859229Y-13510269D02*
X14878277Y-13519793D01*
X14878277Y-13519793D02*
X14916372Y-13519793D01*
X14916372Y-13519793D02*
X14935420Y-13510269D01*
X14935420Y-13510269D02*
X14944944Y-13500746D01*
X14944944Y-13500746D02*
X14954467Y-13481698D01*
X15125896Y-13462650D02*
X15125896Y-13595984D01*
X15078277Y-13386460D02*
X15030658Y-13529317D01*
X15030658Y-13529317D02*
X15154467Y-13529317D01*
X15221134Y-13395984D02*
X15221134Y-13434079D01*
X15297325Y-13395984D02*
X15297325Y-13434079D01*
X15592563Y-13672174D02*
X15583039Y-13662650D01*
X15583039Y-13662650D02*
X15563991Y-13634079D01*
X15563991Y-13634079D02*
X15554468Y-13615031D01*
X15554468Y-13615031D02*
X15544944Y-13586460D01*
X15544944Y-13586460D02*
X15535420Y-13538841D01*
X15535420Y-13538841D02*
X15535420Y-13500746D01*
X15535420Y-13500746D02*
X15544944Y-13453127D01*
X15544944Y-13453127D02*
X15554468Y-13424555D01*
X15554468Y-13424555D02*
X15563991Y-13405508D01*
X15563991Y-13405508D02*
X15583039Y-13376936D01*
X15583039Y-13376936D02*
X15592563Y-13367412D01*
X15773515Y-13595984D02*
X15659229Y-13595984D01*
X15716372Y-13595984D02*
X15716372Y-13395984D01*
X15716372Y-13395984D02*
X15697325Y-13424555D01*
X15697325Y-13424555D02*
X15678277Y-13443603D01*
X15678277Y-13443603D02*
X15659229Y-13453127D01*
X15868753Y-13595984D02*
X15906848Y-13595984D01*
X15906848Y-13595984D02*
X15925896Y-13586460D01*
X15925896Y-13586460D02*
X15935420Y-13576936D01*
X15935420Y-13576936D02*
X15954468Y-13548365D01*
X15954468Y-13548365D02*
X15963991Y-13510269D01*
X15963991Y-13510269D02*
X15963991Y-13434079D01*
X15963991Y-13434079D02*
X15954468Y-13415031D01*
X15954468Y-13415031D02*
X15944944Y-13405508D01*
X15944944Y-13405508D02*
X15925896Y-13395984D01*
X15925896Y-13395984D02*
X15887801Y-13395984D01*
X15887801Y-13395984D02*
X15868753Y-13405508D01*
X15868753Y-13405508D02*
X15859229Y-13415031D01*
X15859229Y-13415031D02*
X15849706Y-13434079D01*
X15849706Y-13434079D02*
X15849706Y-13481698D01*
X15849706Y-13481698D02*
X15859229Y-13500746D01*
X15859229Y-13500746D02*
X15868753Y-13510269D01*
X15868753Y-13510269D02*
X15887801Y-13519793D01*
X15887801Y-13519793D02*
X15925896Y-13519793D01*
X15925896Y-13519793D02*
X15944944Y-13510269D01*
X15944944Y-13510269D02*
X15954468Y-13500746D01*
X15954468Y-13500746D02*
X15963991Y-13481698D01*
X16202087Y-13595984D02*
X16202087Y-13395984D01*
X16287801Y-13595984D02*
X16287801Y-13491222D01*
X16287801Y-13491222D02*
X16278277Y-13472174D01*
X16278277Y-13472174D02*
X16259230Y-13462650D01*
X16259230Y-13462650D02*
X16230658Y-13462650D01*
X16230658Y-13462650D02*
X16211610Y-13472174D01*
X16211610Y-13472174D02*
X16202087Y-13481698D01*
X16411610Y-13595984D02*
X16392563Y-13586460D01*
X16392563Y-13586460D02*
X16383039Y-13576936D01*
X16383039Y-13576936D02*
X16373515Y-13557888D01*
X16373515Y-13557888D02*
X16373515Y-13500746D01*
X16373515Y-13500746D02*
X16383039Y-13481698D01*
X16383039Y-13481698D02*
X16392563Y-13472174D01*
X16392563Y-13472174D02*
X16411610Y-13462650D01*
X16411610Y-13462650D02*
X16440182Y-13462650D01*
X16440182Y-13462650D02*
X16459230Y-13472174D01*
X16459230Y-13472174D02*
X16468753Y-13481698D01*
X16468753Y-13481698D02*
X16478277Y-13500746D01*
X16478277Y-13500746D02*
X16478277Y-13557888D01*
X16478277Y-13557888D02*
X16468753Y-13576936D01*
X16468753Y-13576936D02*
X16459230Y-13586460D01*
X16459230Y-13586460D02*
X16440182Y-13595984D01*
X16440182Y-13595984D02*
X16411610Y-13595984D01*
X16592563Y-13595984D02*
X16573515Y-13586460D01*
X16573515Y-13586460D02*
X16563991Y-13567412D01*
X16563991Y-13567412D02*
X16563991Y-13395984D01*
X16744944Y-13586460D02*
X16725896Y-13595984D01*
X16725896Y-13595984D02*
X16687801Y-13595984D01*
X16687801Y-13595984D02*
X16668753Y-13586460D01*
X16668753Y-13586460D02*
X16659230Y-13567412D01*
X16659230Y-13567412D02*
X16659230Y-13491222D01*
X16659230Y-13491222D02*
X16668753Y-13472174D01*
X16668753Y-13472174D02*
X16687801Y-13462650D01*
X16687801Y-13462650D02*
X16725896Y-13462650D01*
X16725896Y-13462650D02*
X16744944Y-13472174D01*
X16744944Y-13472174D02*
X16754468Y-13491222D01*
X16754468Y-13491222D02*
X16754468Y-13510269D01*
X16754468Y-13510269D02*
X16659230Y-13529317D01*
X16830658Y-13586460D02*
X16849706Y-13595984D01*
X16849706Y-13595984D02*
X16887801Y-13595984D01*
X16887801Y-13595984D02*
X16906849Y-13586460D01*
X16906849Y-13586460D02*
X16916373Y-13567412D01*
X16916373Y-13567412D02*
X16916373Y-13557888D01*
X16916373Y-13557888D02*
X16906849Y-13538841D01*
X16906849Y-13538841D02*
X16887801Y-13529317D01*
X16887801Y-13529317D02*
X16859230Y-13529317D01*
X16859230Y-13529317D02*
X16840182Y-13519793D01*
X16840182Y-13519793D02*
X16830658Y-13500746D01*
X16830658Y-13500746D02*
X16830658Y-13491222D01*
X16830658Y-13491222D02*
X16840182Y-13472174D01*
X16840182Y-13472174D02*
X16859230Y-13462650D01*
X16859230Y-13462650D02*
X16887801Y-13462650D01*
X16887801Y-13462650D02*
X16906849Y-13472174D01*
X17154468Y-13519793D02*
X17306849Y-13519793D01*
X17230658Y-13595984D02*
X17230658Y-13443603D01*
X17535420Y-13395984D02*
X17659230Y-13395984D01*
X17659230Y-13395984D02*
X17592563Y-13472174D01*
X17592563Y-13472174D02*
X17621135Y-13472174D01*
X17621135Y-13472174D02*
X17640182Y-13481698D01*
X17640182Y-13481698D02*
X17649706Y-13491222D01*
X17649706Y-13491222D02*
X17659230Y-13510269D01*
X17659230Y-13510269D02*
X17659230Y-13557888D01*
X17659230Y-13557888D02*
X17649706Y-13576936D01*
X17649706Y-13576936D02*
X17640182Y-13586460D01*
X17640182Y-13586460D02*
X17621135Y-13595984D01*
X17621135Y-13595984D02*
X17563992Y-13595984D01*
X17563992Y-13595984D02*
X17544944Y-13586460D01*
X17544944Y-13586460D02*
X17535420Y-13576936D01*
X17887801Y-13586460D02*
X17906849Y-13595984D01*
X17906849Y-13595984D02*
X17944944Y-13595984D01*
X17944944Y-13595984D02*
X17963992Y-13586460D01*
X17963992Y-13586460D02*
X17973516Y-13567412D01*
X17973516Y-13567412D02*
X17973516Y-13557888D01*
X17973516Y-13557888D02*
X17963992Y-13538841D01*
X17963992Y-13538841D02*
X17944944Y-13529317D01*
X17944944Y-13529317D02*
X17916373Y-13529317D01*
X17916373Y-13529317D02*
X17897325Y-13519793D01*
X17897325Y-13519793D02*
X17887801Y-13500746D01*
X17887801Y-13500746D02*
X17887801Y-13491222D01*
X17887801Y-13491222D02*
X17897325Y-13472174D01*
X17897325Y-13472174D02*
X17916373Y-13462650D01*
X17916373Y-13462650D02*
X17944944Y-13462650D01*
X17944944Y-13462650D02*
X17963992Y-13472174D01*
X18087801Y-13595984D02*
X18068754Y-13586460D01*
X18068754Y-13586460D02*
X18059230Y-13567412D01*
X18059230Y-13567412D02*
X18059230Y-13395984D01*
X18192563Y-13595984D02*
X18173516Y-13586460D01*
X18173516Y-13586460D02*
X18163992Y-13576936D01*
X18163992Y-13576936D02*
X18154468Y-13557888D01*
X18154468Y-13557888D02*
X18154468Y-13500746D01*
X18154468Y-13500746D02*
X18163992Y-13481698D01*
X18163992Y-13481698D02*
X18173516Y-13472174D01*
X18173516Y-13472174D02*
X18192563Y-13462650D01*
X18192563Y-13462650D02*
X18221135Y-13462650D01*
X18221135Y-13462650D02*
X18240182Y-13472174D01*
X18240182Y-13472174D02*
X18249706Y-13481698D01*
X18249706Y-13481698D02*
X18259230Y-13500746D01*
X18259230Y-13500746D02*
X18259230Y-13557888D01*
X18259230Y-13557888D02*
X18249706Y-13576936D01*
X18249706Y-13576936D02*
X18240182Y-13586460D01*
X18240182Y-13586460D02*
X18221135Y-13595984D01*
X18221135Y-13595984D02*
X18192563Y-13595984D01*
X18316373Y-13462650D02*
X18392563Y-13462650D01*
X18344944Y-13395984D02*
X18344944Y-13567412D01*
X18344944Y-13567412D02*
X18354468Y-13586460D01*
X18354468Y-13586460D02*
X18373516Y-13595984D01*
X18373516Y-13595984D02*
X18392563Y-13595984D01*
X18449706Y-13586460D02*
X18468754Y-13595984D01*
X18468754Y-13595984D02*
X18506849Y-13595984D01*
X18506849Y-13595984D02*
X18525897Y-13586460D01*
X18525897Y-13586460D02*
X18535420Y-13567412D01*
X18535420Y-13567412D02*
X18535420Y-13557888D01*
X18535420Y-13557888D02*
X18525897Y-13538841D01*
X18525897Y-13538841D02*
X18506849Y-13529317D01*
X18506849Y-13529317D02*
X18478277Y-13529317D01*
X18478277Y-13529317D02*
X18459230Y-13519793D01*
X18459230Y-13519793D02*
X18449706Y-13500746D01*
X18449706Y-13500746D02*
X18449706Y-13491222D01*
X18449706Y-13491222D02*
X18459230Y-13472174D01*
X18459230Y-13472174D02*
X18478277Y-13462650D01*
X18478277Y-13462650D02*
X18506849Y-13462650D01*
X18506849Y-13462650D02*
X18525897Y-13472174D01*
X18602087Y-13672174D02*
X18611611Y-13662650D01*
X18611611Y-13662650D02*
X18630658Y-13634079D01*
X18630658Y-13634079D02*
X18640182Y-13615031D01*
X18640182Y-13615031D02*
X18649706Y-13586460D01*
X18649706Y-13586460D02*
X18659230Y-13538841D01*
X18659230Y-13538841D02*
X18659230Y-13500746D01*
X18659230Y-13500746D02*
X18649706Y-13453127D01*
X18649706Y-13453127D02*
X18640182Y-13424555D01*
X18640182Y-13424555D02*
X18630658Y-13405508D01*
X18630658Y-13405508D02*
X18611611Y-13376936D01*
X18611611Y-13376936D02*
X18602087Y-13367412D01*
D13*
X11962500Y-13823500D02*
X12017500Y-13768500D01*
X11962500Y-13713500D01*
X11907500Y-13768500D01*
X11962500Y-13823500D01*
D11*
X12383039Y-13859984D02*
X12268753Y-13859984D01*
X12325896Y-13859984D02*
X12325896Y-13659984D01*
X12325896Y-13659984D02*
X12306848Y-13688555D01*
X12306848Y-13688555D02*
X12287801Y-13707603D01*
X12287801Y-13707603D02*
X12268753Y-13717127D01*
X12468753Y-13840936D02*
X12478277Y-13850460D01*
X12478277Y-13850460D02*
X12468753Y-13859984D01*
X12468753Y-13859984D02*
X12459229Y-13850460D01*
X12459229Y-13850460D02*
X12468753Y-13840936D01*
X12468753Y-13840936D02*
X12468753Y-13859984D01*
X12668753Y-13859984D02*
X12554467Y-13859984D01*
X12611610Y-13859984D02*
X12611610Y-13659984D01*
X12611610Y-13659984D02*
X12592562Y-13688555D01*
X12592562Y-13688555D02*
X12573515Y-13707603D01*
X12573515Y-13707603D02*
X12554467Y-13717127D01*
X12792562Y-13659984D02*
X12811610Y-13659984D01*
X12811610Y-13659984D02*
X12830658Y-13669508D01*
X12830658Y-13669508D02*
X12840182Y-13679031D01*
X12840182Y-13679031D02*
X12849705Y-13698079D01*
X12849705Y-13698079D02*
X12859229Y-13736174D01*
X12859229Y-13736174D02*
X12859229Y-13783793D01*
X12859229Y-13783793D02*
X12849705Y-13821888D01*
X12849705Y-13821888D02*
X12840182Y-13840936D01*
X12840182Y-13840936D02*
X12830658Y-13850460D01*
X12830658Y-13850460D02*
X12811610Y-13859984D01*
X12811610Y-13859984D02*
X12792562Y-13859984D01*
X12792562Y-13859984D02*
X12773515Y-13850460D01*
X12773515Y-13850460D02*
X12763991Y-13840936D01*
X12763991Y-13840936D02*
X12754467Y-13821888D01*
X12754467Y-13821888D02*
X12744943Y-13783793D01*
X12744943Y-13783793D02*
X12744943Y-13736174D01*
X12744943Y-13736174D02*
X12754467Y-13698079D01*
X12754467Y-13698079D02*
X12763991Y-13679031D01*
X12763991Y-13679031D02*
X12773515Y-13669508D01*
X12773515Y-13669508D02*
X12792562Y-13659984D01*
X12983039Y-13659984D02*
X13002086Y-13659984D01*
X13002086Y-13659984D02*
X13021134Y-13669508D01*
X13021134Y-13669508D02*
X13030658Y-13679031D01*
X13030658Y-13679031D02*
X13040182Y-13698079D01*
X13040182Y-13698079D02*
X13049705Y-13736174D01*
X13049705Y-13736174D02*
X13049705Y-13783793D01*
X13049705Y-13783793D02*
X13040182Y-13821888D01*
X13040182Y-13821888D02*
X13030658Y-13840936D01*
X13030658Y-13840936D02*
X13021134Y-13850460D01*
X13021134Y-13850460D02*
X13002086Y-13859984D01*
X13002086Y-13859984D02*
X12983039Y-13859984D01*
X12983039Y-13859984D02*
X12963991Y-13850460D01*
X12963991Y-13850460D02*
X12954467Y-13840936D01*
X12954467Y-13840936D02*
X12944943Y-13821888D01*
X12944943Y-13821888D02*
X12935420Y-13783793D01*
X12935420Y-13783793D02*
X12935420Y-13736174D01*
X12935420Y-13736174D02*
X12944943Y-13698079D01*
X12944943Y-13698079D02*
X12954467Y-13679031D01*
X12954467Y-13679031D02*
X12963991Y-13669508D01*
X12963991Y-13669508D02*
X12983039Y-13659984D01*
X13135420Y-13859984D02*
X13135420Y-13726650D01*
X13135420Y-13745698D02*
X13144943Y-13736174D01*
X13144943Y-13736174D02*
X13163991Y-13726650D01*
X13163991Y-13726650D02*
X13192563Y-13726650D01*
X13192563Y-13726650D02*
X13211610Y-13736174D01*
X13211610Y-13736174D02*
X13221134Y-13755222D01*
X13221134Y-13755222D02*
X13221134Y-13859984D01*
X13221134Y-13755222D02*
X13230658Y-13736174D01*
X13230658Y-13736174D02*
X13249705Y-13726650D01*
X13249705Y-13726650D02*
X13278277Y-13726650D01*
X13278277Y-13726650D02*
X13297324Y-13736174D01*
X13297324Y-13736174D02*
X13306848Y-13755222D01*
X13306848Y-13755222D02*
X13306848Y-13859984D01*
X13402086Y-13859984D02*
X13402086Y-13726650D01*
X13402086Y-13745698D02*
X13411610Y-13736174D01*
X13411610Y-13736174D02*
X13430658Y-13726650D01*
X13430658Y-13726650D02*
X13459229Y-13726650D01*
X13459229Y-13726650D02*
X13478277Y-13736174D01*
X13478277Y-13736174D02*
X13487801Y-13755222D01*
X13487801Y-13755222D02*
X13487801Y-13859984D01*
X13487801Y-13755222D02*
X13497324Y-13736174D01*
X13497324Y-13736174D02*
X13516372Y-13726650D01*
X13516372Y-13726650D02*
X13544943Y-13726650D01*
X13544943Y-13726650D02*
X13563991Y-13736174D01*
X13563991Y-13736174D02*
X13573515Y-13755222D01*
X13573515Y-13755222D02*
X13573515Y-13859984D01*
X13963991Y-13650460D02*
X13792563Y-13907603D01*
X14221134Y-13659984D02*
X14240182Y-13659984D01*
X14240182Y-13659984D02*
X14259229Y-13669508D01*
X14259229Y-13669508D02*
X14268753Y-13679031D01*
X14268753Y-13679031D02*
X14278277Y-13698079D01*
X14278277Y-13698079D02*
X14287801Y-13736174D01*
X14287801Y-13736174D02*
X14287801Y-13783793D01*
X14287801Y-13783793D02*
X14278277Y-13821888D01*
X14278277Y-13821888D02*
X14268753Y-13840936D01*
X14268753Y-13840936D02*
X14259229Y-13850460D01*
X14259229Y-13850460D02*
X14240182Y-13859984D01*
X14240182Y-13859984D02*
X14221134Y-13859984D01*
X14221134Y-13859984D02*
X14202086Y-13850460D01*
X14202086Y-13850460D02*
X14192563Y-13840936D01*
X14192563Y-13840936D02*
X14183039Y-13821888D01*
X14183039Y-13821888D02*
X14173515Y-13783793D01*
X14173515Y-13783793D02*
X14173515Y-13736174D01*
X14173515Y-13736174D02*
X14183039Y-13698079D01*
X14183039Y-13698079D02*
X14192563Y-13679031D01*
X14192563Y-13679031D02*
X14202086Y-13669508D01*
X14202086Y-13669508D02*
X14221134Y-13659984D01*
X14373515Y-13840936D02*
X14383039Y-13850460D01*
X14383039Y-13850460D02*
X14373515Y-13859984D01*
X14373515Y-13859984D02*
X14363991Y-13850460D01*
X14363991Y-13850460D02*
X14373515Y-13840936D01*
X14373515Y-13840936D02*
X14373515Y-13859984D01*
X14506848Y-13659984D02*
X14525896Y-13659984D01*
X14525896Y-13659984D02*
X14544944Y-13669508D01*
X14544944Y-13669508D02*
X14554467Y-13679031D01*
X14554467Y-13679031D02*
X14563991Y-13698079D01*
X14563991Y-13698079D02*
X14573515Y-13736174D01*
X14573515Y-13736174D02*
X14573515Y-13783793D01*
X14573515Y-13783793D02*
X14563991Y-13821888D01*
X14563991Y-13821888D02*
X14554467Y-13840936D01*
X14554467Y-13840936D02*
X14544944Y-13850460D01*
X14544944Y-13850460D02*
X14525896Y-13859984D01*
X14525896Y-13859984D02*
X14506848Y-13859984D01*
X14506848Y-13859984D02*
X14487801Y-13850460D01*
X14487801Y-13850460D02*
X14478277Y-13840936D01*
X14478277Y-13840936D02*
X14468753Y-13821888D01*
X14468753Y-13821888D02*
X14459229Y-13783793D01*
X14459229Y-13783793D02*
X14459229Y-13736174D01*
X14459229Y-13736174D02*
X14468753Y-13698079D01*
X14468753Y-13698079D02*
X14478277Y-13679031D01*
X14478277Y-13679031D02*
X14487801Y-13669508D01*
X14487801Y-13669508D02*
X14506848Y-13659984D01*
X14744944Y-13726650D02*
X14744944Y-13859984D01*
X14697325Y-13650460D02*
X14649706Y-13793317D01*
X14649706Y-13793317D02*
X14773515Y-13793317D01*
X14830658Y-13659984D02*
X14954467Y-13659984D01*
X14954467Y-13659984D02*
X14887801Y-13736174D01*
X14887801Y-13736174D02*
X14916372Y-13736174D01*
X14916372Y-13736174D02*
X14935420Y-13745698D01*
X14935420Y-13745698D02*
X14944944Y-13755222D01*
X14944944Y-13755222D02*
X14954467Y-13774269D01*
X14954467Y-13774269D02*
X14954467Y-13821888D01*
X14954467Y-13821888D02*
X14944944Y-13840936D01*
X14944944Y-13840936D02*
X14935420Y-13850460D01*
X14935420Y-13850460D02*
X14916372Y-13859984D01*
X14916372Y-13859984D02*
X14859229Y-13859984D01*
X14859229Y-13859984D02*
X14840182Y-13850460D01*
X14840182Y-13850460D02*
X14830658Y-13840936D01*
X15021134Y-13659984D02*
X15144944Y-13659984D01*
X15144944Y-13659984D02*
X15078277Y-13736174D01*
X15078277Y-13736174D02*
X15106848Y-13736174D01*
X15106848Y-13736174D02*
X15125896Y-13745698D01*
X15125896Y-13745698D02*
X15135420Y-13755222D01*
X15135420Y-13755222D02*
X15144944Y-13774269D01*
X15144944Y-13774269D02*
X15144944Y-13821888D01*
X15144944Y-13821888D02*
X15135420Y-13840936D01*
X15135420Y-13840936D02*
X15125896Y-13850460D01*
X15125896Y-13850460D02*
X15106848Y-13859984D01*
X15106848Y-13859984D02*
X15049706Y-13859984D01*
X15049706Y-13859984D02*
X15030658Y-13850460D01*
X15030658Y-13850460D02*
X15021134Y-13840936D01*
X15221134Y-13659984D02*
X15221134Y-13698079D01*
X15297325Y-13659984D02*
X15297325Y-13698079D01*
X15592563Y-13936174D02*
X15583039Y-13926650D01*
X15583039Y-13926650D02*
X15563991Y-13898079D01*
X15563991Y-13898079D02*
X15554468Y-13879031D01*
X15554468Y-13879031D02*
X15544944Y-13850460D01*
X15544944Y-13850460D02*
X15535420Y-13802841D01*
X15535420Y-13802841D02*
X15535420Y-13764746D01*
X15535420Y-13764746D02*
X15544944Y-13717127D01*
X15544944Y-13717127D02*
X15554468Y-13688555D01*
X15554468Y-13688555D02*
X15563991Y-13669508D01*
X15563991Y-13669508D02*
X15583039Y-13640936D01*
X15583039Y-13640936D02*
X15592563Y-13631412D01*
X15649706Y-13659984D02*
X15773515Y-13659984D01*
X15773515Y-13659984D02*
X15706848Y-13736174D01*
X15706848Y-13736174D02*
X15735420Y-13736174D01*
X15735420Y-13736174D02*
X15754468Y-13745698D01*
X15754468Y-13745698D02*
X15763991Y-13755222D01*
X15763991Y-13755222D02*
X15773515Y-13774269D01*
X15773515Y-13774269D02*
X15773515Y-13821888D01*
X15773515Y-13821888D02*
X15763991Y-13840936D01*
X15763991Y-13840936D02*
X15754468Y-13850460D01*
X15754468Y-13850460D02*
X15735420Y-13859984D01*
X15735420Y-13859984D02*
X15678277Y-13859984D01*
X15678277Y-13859984D02*
X15659229Y-13850460D01*
X15659229Y-13850460D02*
X15649706Y-13840936D01*
X16011610Y-13859984D02*
X16011610Y-13659984D01*
X16097325Y-13859984D02*
X16097325Y-13755222D01*
X16097325Y-13755222D02*
X16087801Y-13736174D01*
X16087801Y-13736174D02*
X16068753Y-13726650D01*
X16068753Y-13726650D02*
X16040182Y-13726650D01*
X16040182Y-13726650D02*
X16021134Y-13736174D01*
X16021134Y-13736174D02*
X16011610Y-13745698D01*
X16221134Y-13859984D02*
X16202087Y-13850460D01*
X16202087Y-13850460D02*
X16192563Y-13840936D01*
X16192563Y-13840936D02*
X16183039Y-13821888D01*
X16183039Y-13821888D02*
X16183039Y-13764746D01*
X16183039Y-13764746D02*
X16192563Y-13745698D01*
X16192563Y-13745698D02*
X16202087Y-13736174D01*
X16202087Y-13736174D02*
X16221134Y-13726650D01*
X16221134Y-13726650D02*
X16249706Y-13726650D01*
X16249706Y-13726650D02*
X16268753Y-13736174D01*
X16268753Y-13736174D02*
X16278277Y-13745698D01*
X16278277Y-13745698D02*
X16287801Y-13764746D01*
X16287801Y-13764746D02*
X16287801Y-13821888D01*
X16287801Y-13821888D02*
X16278277Y-13840936D01*
X16278277Y-13840936D02*
X16268753Y-13850460D01*
X16268753Y-13850460D02*
X16249706Y-13859984D01*
X16249706Y-13859984D02*
X16221134Y-13859984D01*
X16402087Y-13859984D02*
X16383039Y-13850460D01*
X16383039Y-13850460D02*
X16373515Y-13831412D01*
X16373515Y-13831412D02*
X16373515Y-13659984D01*
X16554468Y-13850460D02*
X16535420Y-13859984D01*
X16535420Y-13859984D02*
X16497325Y-13859984D01*
X16497325Y-13859984D02*
X16478277Y-13850460D01*
X16478277Y-13850460D02*
X16468753Y-13831412D01*
X16468753Y-13831412D02*
X16468753Y-13755222D01*
X16468753Y-13755222D02*
X16478277Y-13736174D01*
X16478277Y-13736174D02*
X16497325Y-13726650D01*
X16497325Y-13726650D02*
X16535420Y-13726650D01*
X16535420Y-13726650D02*
X16554468Y-13736174D01*
X16554468Y-13736174D02*
X16563991Y-13755222D01*
X16563991Y-13755222D02*
X16563991Y-13774269D01*
X16563991Y-13774269D02*
X16468753Y-13793317D01*
X16640182Y-13850460D02*
X16659230Y-13859984D01*
X16659230Y-13859984D02*
X16697325Y-13859984D01*
X16697325Y-13859984D02*
X16716372Y-13850460D01*
X16716372Y-13850460D02*
X16725896Y-13831412D01*
X16725896Y-13831412D02*
X16725896Y-13821888D01*
X16725896Y-13821888D02*
X16716372Y-13802841D01*
X16716372Y-13802841D02*
X16697325Y-13793317D01*
X16697325Y-13793317D02*
X16668753Y-13793317D01*
X16668753Y-13793317D02*
X16649706Y-13783793D01*
X16649706Y-13783793D02*
X16640182Y-13764746D01*
X16640182Y-13764746D02*
X16640182Y-13755222D01*
X16640182Y-13755222D02*
X16649706Y-13736174D01*
X16649706Y-13736174D02*
X16668753Y-13726650D01*
X16668753Y-13726650D02*
X16697325Y-13726650D01*
X16697325Y-13726650D02*
X16716372Y-13736174D01*
X16792563Y-13936174D02*
X16802087Y-13926650D01*
X16802087Y-13926650D02*
X16821134Y-13898079D01*
X16821134Y-13898079D02*
X16830658Y-13879031D01*
X16830658Y-13879031D02*
X16840182Y-13850460D01*
X16840182Y-13850460D02*
X16849706Y-13802841D01*
X16849706Y-13802841D02*
X16849706Y-13764746D01*
X16849706Y-13764746D02*
X16840182Y-13717127D01*
X16840182Y-13717127D02*
X16830658Y-13688555D01*
X16830658Y-13688555D02*
X16821134Y-13669508D01*
X16821134Y-13669508D02*
X16802087Y-13640936D01*
X16802087Y-13640936D02*
X16792563Y-13631412D01*
D14*
X11887500Y-13967500D02*
X12017500Y-14097500D01*
X12017500Y-13967500D02*
X11887500Y-14097500D01*
X12017500Y-14032500D02*
G75*
G02*
X11887500Y-14032500I-65000J0D01*
G01*
X11887500Y-14032500D02*
G75*
G02*
X12017500Y-14032500I65000J0D01*
G01*
D11*
X12383039Y-14123984D02*
X12268753Y-14123984D01*
X12325896Y-14123984D02*
X12325896Y-13923984D01*
X12325896Y-13923984D02*
X12306848Y-13952555D01*
X12306848Y-13952555D02*
X12287801Y-13971603D01*
X12287801Y-13971603D02*
X12268753Y-13981127D01*
X12468753Y-14104936D02*
X12478277Y-14114460D01*
X12478277Y-14114460D02*
X12468753Y-14123984D01*
X12468753Y-14123984D02*
X12459229Y-14114460D01*
X12459229Y-14114460D02*
X12468753Y-14104936D01*
X12468753Y-14104936D02*
X12468753Y-14123984D01*
X12544943Y-13923984D02*
X12668753Y-13923984D01*
X12668753Y-13923984D02*
X12602086Y-14000174D01*
X12602086Y-14000174D02*
X12630658Y-14000174D01*
X12630658Y-14000174D02*
X12649705Y-14009698D01*
X12649705Y-14009698D02*
X12659229Y-14019222D01*
X12659229Y-14019222D02*
X12668753Y-14038269D01*
X12668753Y-14038269D02*
X12668753Y-14085888D01*
X12668753Y-14085888D02*
X12659229Y-14104936D01*
X12659229Y-14104936D02*
X12649705Y-14114460D01*
X12649705Y-14114460D02*
X12630658Y-14123984D01*
X12630658Y-14123984D02*
X12573515Y-14123984D01*
X12573515Y-14123984D02*
X12554467Y-14114460D01*
X12554467Y-14114460D02*
X12544943Y-14104936D01*
X12792562Y-13923984D02*
X12811610Y-13923984D01*
X12811610Y-13923984D02*
X12830658Y-13933508D01*
X12830658Y-13933508D02*
X12840182Y-13943031D01*
X12840182Y-13943031D02*
X12849705Y-13962079D01*
X12849705Y-13962079D02*
X12859229Y-14000174D01*
X12859229Y-14000174D02*
X12859229Y-14047793D01*
X12859229Y-14047793D02*
X12849705Y-14085888D01*
X12849705Y-14085888D02*
X12840182Y-14104936D01*
X12840182Y-14104936D02*
X12830658Y-14114460D01*
X12830658Y-14114460D02*
X12811610Y-14123984D01*
X12811610Y-14123984D02*
X12792562Y-14123984D01*
X12792562Y-14123984D02*
X12773515Y-14114460D01*
X12773515Y-14114460D02*
X12763991Y-14104936D01*
X12763991Y-14104936D02*
X12754467Y-14085888D01*
X12754467Y-14085888D02*
X12744943Y-14047793D01*
X12744943Y-14047793D02*
X12744943Y-14000174D01*
X12744943Y-14000174D02*
X12754467Y-13962079D01*
X12754467Y-13962079D02*
X12763991Y-13943031D01*
X12763991Y-13943031D02*
X12773515Y-13933508D01*
X12773515Y-13933508D02*
X12792562Y-13923984D01*
X12983039Y-13923984D02*
X13002086Y-13923984D01*
X13002086Y-13923984D02*
X13021134Y-13933508D01*
X13021134Y-13933508D02*
X13030658Y-13943031D01*
X13030658Y-13943031D02*
X13040182Y-13962079D01*
X13040182Y-13962079D02*
X13049705Y-14000174D01*
X13049705Y-14000174D02*
X13049705Y-14047793D01*
X13049705Y-14047793D02*
X13040182Y-14085888D01*
X13040182Y-14085888D02*
X13030658Y-14104936D01*
X13030658Y-14104936D02*
X13021134Y-14114460D01*
X13021134Y-14114460D02*
X13002086Y-14123984D01*
X13002086Y-14123984D02*
X12983039Y-14123984D01*
X12983039Y-14123984D02*
X12963991Y-14114460D01*
X12963991Y-14114460D02*
X12954467Y-14104936D01*
X12954467Y-14104936D02*
X12944943Y-14085888D01*
X12944943Y-14085888D02*
X12935420Y-14047793D01*
X12935420Y-14047793D02*
X12935420Y-14000174D01*
X12935420Y-14000174D02*
X12944943Y-13962079D01*
X12944943Y-13962079D02*
X12954467Y-13943031D01*
X12954467Y-13943031D02*
X12963991Y-13933508D01*
X12963991Y-13933508D02*
X12983039Y-13923984D01*
X13135420Y-14123984D02*
X13135420Y-13990650D01*
X13135420Y-14009698D02*
X13144943Y-14000174D01*
X13144943Y-14000174D02*
X13163991Y-13990650D01*
X13163991Y-13990650D02*
X13192563Y-13990650D01*
X13192563Y-13990650D02*
X13211610Y-14000174D01*
X13211610Y-14000174D02*
X13221134Y-14019222D01*
X13221134Y-14019222D02*
X13221134Y-14123984D01*
X13221134Y-14019222D02*
X13230658Y-14000174D01*
X13230658Y-14000174D02*
X13249705Y-13990650D01*
X13249705Y-13990650D02*
X13278277Y-13990650D01*
X13278277Y-13990650D02*
X13297324Y-14000174D01*
X13297324Y-14000174D02*
X13306848Y-14019222D01*
X13306848Y-14019222D02*
X13306848Y-14123984D01*
X13402086Y-14123984D02*
X13402086Y-13990650D01*
X13402086Y-14009698D02*
X13411610Y-14000174D01*
X13411610Y-14000174D02*
X13430658Y-13990650D01*
X13430658Y-13990650D02*
X13459229Y-13990650D01*
X13459229Y-13990650D02*
X13478277Y-14000174D01*
X13478277Y-14000174D02*
X13487801Y-14019222D01*
X13487801Y-14019222D02*
X13487801Y-14123984D01*
X13487801Y-14019222D02*
X13497324Y-14000174D01*
X13497324Y-14000174D02*
X13516372Y-13990650D01*
X13516372Y-13990650D02*
X13544943Y-13990650D01*
X13544943Y-13990650D02*
X13563991Y-14000174D01*
X13563991Y-14000174D02*
X13573515Y-14019222D01*
X13573515Y-14019222D02*
X13573515Y-14123984D01*
X13963991Y-13914460D02*
X13792563Y-14171603D01*
X14221134Y-13923984D02*
X14240182Y-13923984D01*
X14240182Y-13923984D02*
X14259229Y-13933508D01*
X14259229Y-13933508D02*
X14268753Y-13943031D01*
X14268753Y-13943031D02*
X14278277Y-13962079D01*
X14278277Y-13962079D02*
X14287801Y-14000174D01*
X14287801Y-14000174D02*
X14287801Y-14047793D01*
X14287801Y-14047793D02*
X14278277Y-14085888D01*
X14278277Y-14085888D02*
X14268753Y-14104936D01*
X14268753Y-14104936D02*
X14259229Y-14114460D01*
X14259229Y-14114460D02*
X14240182Y-14123984D01*
X14240182Y-14123984D02*
X14221134Y-14123984D01*
X14221134Y-14123984D02*
X14202086Y-14114460D01*
X14202086Y-14114460D02*
X14192563Y-14104936D01*
X14192563Y-14104936D02*
X14183039Y-14085888D01*
X14183039Y-14085888D02*
X14173515Y-14047793D01*
X14173515Y-14047793D02*
X14173515Y-14000174D01*
X14173515Y-14000174D02*
X14183039Y-13962079D01*
X14183039Y-13962079D02*
X14192563Y-13943031D01*
X14192563Y-13943031D02*
X14202086Y-13933508D01*
X14202086Y-13933508D02*
X14221134Y-13923984D01*
X14373515Y-14104936D02*
X14383039Y-14114460D01*
X14383039Y-14114460D02*
X14373515Y-14123984D01*
X14373515Y-14123984D02*
X14363991Y-14114460D01*
X14363991Y-14114460D02*
X14373515Y-14104936D01*
X14373515Y-14104936D02*
X14373515Y-14123984D01*
X14506848Y-13923984D02*
X14525896Y-13923984D01*
X14525896Y-13923984D02*
X14544944Y-13933508D01*
X14544944Y-13933508D02*
X14554467Y-13943031D01*
X14554467Y-13943031D02*
X14563991Y-13962079D01*
X14563991Y-13962079D02*
X14573515Y-14000174D01*
X14573515Y-14000174D02*
X14573515Y-14047793D01*
X14573515Y-14047793D02*
X14563991Y-14085888D01*
X14563991Y-14085888D02*
X14554467Y-14104936D01*
X14554467Y-14104936D02*
X14544944Y-14114460D01*
X14544944Y-14114460D02*
X14525896Y-14123984D01*
X14525896Y-14123984D02*
X14506848Y-14123984D01*
X14506848Y-14123984D02*
X14487801Y-14114460D01*
X14487801Y-14114460D02*
X14478277Y-14104936D01*
X14478277Y-14104936D02*
X14468753Y-14085888D01*
X14468753Y-14085888D02*
X14459229Y-14047793D01*
X14459229Y-14047793D02*
X14459229Y-14000174D01*
X14459229Y-14000174D02*
X14468753Y-13962079D01*
X14468753Y-13962079D02*
X14478277Y-13943031D01*
X14478277Y-13943031D02*
X14487801Y-13933508D01*
X14487801Y-13933508D02*
X14506848Y-13923984D01*
X14754467Y-13923984D02*
X14659229Y-13923984D01*
X14659229Y-13923984D02*
X14649706Y-14019222D01*
X14649706Y-14019222D02*
X14659229Y-14009698D01*
X14659229Y-14009698D02*
X14678277Y-14000174D01*
X14678277Y-14000174D02*
X14725896Y-14000174D01*
X14725896Y-14000174D02*
X14744944Y-14009698D01*
X14744944Y-14009698D02*
X14754467Y-14019222D01*
X14754467Y-14019222D02*
X14763991Y-14038269D01*
X14763991Y-14038269D02*
X14763991Y-14085888D01*
X14763991Y-14085888D02*
X14754467Y-14104936D01*
X14754467Y-14104936D02*
X14744944Y-14114460D01*
X14744944Y-14114460D02*
X14725896Y-14123984D01*
X14725896Y-14123984D02*
X14678277Y-14123984D01*
X14678277Y-14123984D02*
X14659229Y-14114460D01*
X14659229Y-14114460D02*
X14649706Y-14104936D01*
X14954467Y-14123984D02*
X14840182Y-14123984D01*
X14897325Y-14123984D02*
X14897325Y-13923984D01*
X14897325Y-13923984D02*
X14878277Y-13952555D01*
X14878277Y-13952555D02*
X14859229Y-13971603D01*
X14859229Y-13971603D02*
X14840182Y-13981127D01*
X15030658Y-13943031D02*
X15040182Y-13933508D01*
X15040182Y-13933508D02*
X15059229Y-13923984D01*
X15059229Y-13923984D02*
X15106848Y-13923984D01*
X15106848Y-13923984D02*
X15125896Y-13933508D01*
X15125896Y-13933508D02*
X15135420Y-13943031D01*
X15135420Y-13943031D02*
X15144944Y-13962079D01*
X15144944Y-13962079D02*
X15144944Y-13981127D01*
X15144944Y-13981127D02*
X15135420Y-14009698D01*
X15135420Y-14009698D02*
X15021134Y-14123984D01*
X15021134Y-14123984D02*
X15144944Y-14123984D01*
X15221134Y-13923984D02*
X15221134Y-13962079D01*
X15297325Y-13923984D02*
X15297325Y-13962079D01*
X15592563Y-14200174D02*
X15583039Y-14190650D01*
X15583039Y-14190650D02*
X15563991Y-14162079D01*
X15563991Y-14162079D02*
X15554468Y-14143031D01*
X15554468Y-14143031D02*
X15544944Y-14114460D01*
X15544944Y-14114460D02*
X15535420Y-14066841D01*
X15535420Y-14066841D02*
X15535420Y-14028746D01*
X15535420Y-14028746D02*
X15544944Y-13981127D01*
X15544944Y-13981127D02*
X15554468Y-13952555D01*
X15554468Y-13952555D02*
X15563991Y-13933508D01*
X15563991Y-13933508D02*
X15583039Y-13904936D01*
X15583039Y-13904936D02*
X15592563Y-13895412D01*
X15659229Y-13943031D02*
X15668753Y-13933508D01*
X15668753Y-13933508D02*
X15687801Y-13923984D01*
X15687801Y-13923984D02*
X15735420Y-13923984D01*
X15735420Y-13923984D02*
X15754468Y-13933508D01*
X15754468Y-13933508D02*
X15763991Y-13943031D01*
X15763991Y-13943031D02*
X15773515Y-13962079D01*
X15773515Y-13962079D02*
X15773515Y-13981127D01*
X15773515Y-13981127D02*
X15763991Y-14009698D01*
X15763991Y-14009698D02*
X15649706Y-14123984D01*
X15649706Y-14123984D02*
X15773515Y-14123984D01*
X16011610Y-14123984D02*
X16011610Y-13923984D01*
X16097325Y-14123984D02*
X16097325Y-14019222D01*
X16097325Y-14019222D02*
X16087801Y-14000174D01*
X16087801Y-14000174D02*
X16068753Y-13990650D01*
X16068753Y-13990650D02*
X16040182Y-13990650D01*
X16040182Y-13990650D02*
X16021134Y-14000174D01*
X16021134Y-14000174D02*
X16011610Y-14009698D01*
X16221134Y-14123984D02*
X16202087Y-14114460D01*
X16202087Y-14114460D02*
X16192563Y-14104936D01*
X16192563Y-14104936D02*
X16183039Y-14085888D01*
X16183039Y-14085888D02*
X16183039Y-14028746D01*
X16183039Y-14028746D02*
X16192563Y-14009698D01*
X16192563Y-14009698D02*
X16202087Y-14000174D01*
X16202087Y-14000174D02*
X16221134Y-13990650D01*
X16221134Y-13990650D02*
X16249706Y-13990650D01*
X16249706Y-13990650D02*
X16268753Y-14000174D01*
X16268753Y-14000174D02*
X16278277Y-14009698D01*
X16278277Y-14009698D02*
X16287801Y-14028746D01*
X16287801Y-14028746D02*
X16287801Y-14085888D01*
X16287801Y-14085888D02*
X16278277Y-14104936D01*
X16278277Y-14104936D02*
X16268753Y-14114460D01*
X16268753Y-14114460D02*
X16249706Y-14123984D01*
X16249706Y-14123984D02*
X16221134Y-14123984D01*
X16402087Y-14123984D02*
X16383039Y-14114460D01*
X16383039Y-14114460D02*
X16373515Y-14095412D01*
X16373515Y-14095412D02*
X16373515Y-13923984D01*
X16554468Y-14114460D02*
X16535420Y-14123984D01*
X16535420Y-14123984D02*
X16497325Y-14123984D01*
X16497325Y-14123984D02*
X16478277Y-14114460D01*
X16478277Y-14114460D02*
X16468753Y-14095412D01*
X16468753Y-14095412D02*
X16468753Y-14019222D01*
X16468753Y-14019222D02*
X16478277Y-14000174D01*
X16478277Y-14000174D02*
X16497325Y-13990650D01*
X16497325Y-13990650D02*
X16535420Y-13990650D01*
X16535420Y-13990650D02*
X16554468Y-14000174D01*
X16554468Y-14000174D02*
X16563991Y-14019222D01*
X16563991Y-14019222D02*
X16563991Y-14038269D01*
X16563991Y-14038269D02*
X16468753Y-14057317D01*
X16640182Y-14114460D02*
X16659230Y-14123984D01*
X16659230Y-14123984D02*
X16697325Y-14123984D01*
X16697325Y-14123984D02*
X16716372Y-14114460D01*
X16716372Y-14114460D02*
X16725896Y-14095412D01*
X16725896Y-14095412D02*
X16725896Y-14085888D01*
X16725896Y-14085888D02*
X16716372Y-14066841D01*
X16716372Y-14066841D02*
X16697325Y-14057317D01*
X16697325Y-14057317D02*
X16668753Y-14057317D01*
X16668753Y-14057317D02*
X16649706Y-14047793D01*
X16649706Y-14047793D02*
X16640182Y-14028746D01*
X16640182Y-14028746D02*
X16640182Y-14019222D01*
X16640182Y-14019222D02*
X16649706Y-14000174D01*
X16649706Y-14000174D02*
X16668753Y-13990650D01*
X16668753Y-13990650D02*
X16697325Y-13990650D01*
X16697325Y-13990650D02*
X16716372Y-14000174D01*
X16792563Y-14200174D02*
X16802087Y-14190650D01*
X16802087Y-14190650D02*
X16821134Y-14162079D01*
X16821134Y-14162079D02*
X16830658Y-14143031D01*
X16830658Y-14143031D02*
X16840182Y-14114460D01*
X16840182Y-14114460D02*
X16849706Y-14066841D01*
X16849706Y-14066841D02*
X16849706Y-14028746D01*
X16849706Y-14028746D02*
X16840182Y-13981127D01*
X16840182Y-13981127D02*
X16830658Y-13952555D01*
X16830658Y-13952555D02*
X16821134Y-13933508D01*
X16821134Y-13933508D02*
X16802087Y-13904936D01*
X16802087Y-13904936D02*
X16792563Y-13895412D01*
X11817500Y-14196500D02*
X12017500Y-14396500D01*
X12017500Y-14196500D02*
X11817500Y-14396500D01*
X11917500Y-14196500D02*
X11917500Y-14396500D01*
X11817500Y-14296500D02*
X12017500Y-14296500D01*
X12268753Y-14207031D02*
X12278277Y-14197508D01*
X12278277Y-14197508D02*
X12297324Y-14187984D01*
X12297324Y-14187984D02*
X12344943Y-14187984D01*
X12344943Y-14187984D02*
X12363991Y-14197508D01*
X12363991Y-14197508D02*
X12373515Y-14207031D01*
X12373515Y-14207031D02*
X12383039Y-14226079D01*
X12383039Y-14226079D02*
X12383039Y-14245127D01*
X12383039Y-14245127D02*
X12373515Y-14273698D01*
X12373515Y-14273698D02*
X12259229Y-14387984D01*
X12259229Y-14387984D02*
X12383039Y-14387984D01*
X12468753Y-14368936D02*
X12478277Y-14378460D01*
X12478277Y-14378460D02*
X12468753Y-14387984D01*
X12468753Y-14387984D02*
X12459229Y-14378460D01*
X12459229Y-14378460D02*
X12468753Y-14368936D01*
X12468753Y-14368936D02*
X12468753Y-14387984D01*
X12554467Y-14207031D02*
X12563991Y-14197508D01*
X12563991Y-14197508D02*
X12583039Y-14187984D01*
X12583039Y-14187984D02*
X12630658Y-14187984D01*
X12630658Y-14187984D02*
X12649705Y-14197508D01*
X12649705Y-14197508D02*
X12659229Y-14207031D01*
X12659229Y-14207031D02*
X12668753Y-14226079D01*
X12668753Y-14226079D02*
X12668753Y-14245127D01*
X12668753Y-14245127D02*
X12659229Y-14273698D01*
X12659229Y-14273698D02*
X12544943Y-14387984D01*
X12544943Y-14387984D02*
X12668753Y-14387984D01*
X12792562Y-14187984D02*
X12811610Y-14187984D01*
X12811610Y-14187984D02*
X12830658Y-14197508D01*
X12830658Y-14197508D02*
X12840182Y-14207031D01*
X12840182Y-14207031D02*
X12849705Y-14226079D01*
X12849705Y-14226079D02*
X12859229Y-14264174D01*
X12859229Y-14264174D02*
X12859229Y-14311793D01*
X12859229Y-14311793D02*
X12849705Y-14349888D01*
X12849705Y-14349888D02*
X12840182Y-14368936D01*
X12840182Y-14368936D02*
X12830658Y-14378460D01*
X12830658Y-14378460D02*
X12811610Y-14387984D01*
X12811610Y-14387984D02*
X12792562Y-14387984D01*
X12792562Y-14387984D02*
X12773515Y-14378460D01*
X12773515Y-14378460D02*
X12763991Y-14368936D01*
X12763991Y-14368936D02*
X12754467Y-14349888D01*
X12754467Y-14349888D02*
X12744943Y-14311793D01*
X12744943Y-14311793D02*
X12744943Y-14264174D01*
X12744943Y-14264174D02*
X12754467Y-14226079D01*
X12754467Y-14226079D02*
X12763991Y-14207031D01*
X12763991Y-14207031D02*
X12773515Y-14197508D01*
X12773515Y-14197508D02*
X12792562Y-14187984D01*
X12983039Y-14187984D02*
X13002086Y-14187984D01*
X13002086Y-14187984D02*
X13021134Y-14197508D01*
X13021134Y-14197508D02*
X13030658Y-14207031D01*
X13030658Y-14207031D02*
X13040182Y-14226079D01*
X13040182Y-14226079D02*
X13049705Y-14264174D01*
X13049705Y-14264174D02*
X13049705Y-14311793D01*
X13049705Y-14311793D02*
X13040182Y-14349888D01*
X13040182Y-14349888D02*
X13030658Y-14368936D01*
X13030658Y-14368936D02*
X13021134Y-14378460D01*
X13021134Y-14378460D02*
X13002086Y-14387984D01*
X13002086Y-14387984D02*
X12983039Y-14387984D01*
X12983039Y-14387984D02*
X12963991Y-14378460D01*
X12963991Y-14378460D02*
X12954467Y-14368936D01*
X12954467Y-14368936D02*
X12944943Y-14349888D01*
X12944943Y-14349888D02*
X12935420Y-14311793D01*
X12935420Y-14311793D02*
X12935420Y-14264174D01*
X12935420Y-14264174D02*
X12944943Y-14226079D01*
X12944943Y-14226079D02*
X12954467Y-14207031D01*
X12954467Y-14207031D02*
X12963991Y-14197508D01*
X12963991Y-14197508D02*
X12983039Y-14187984D01*
X13135420Y-14387984D02*
X13135420Y-14254650D01*
X13135420Y-14273698D02*
X13144943Y-14264174D01*
X13144943Y-14264174D02*
X13163991Y-14254650D01*
X13163991Y-14254650D02*
X13192563Y-14254650D01*
X13192563Y-14254650D02*
X13211610Y-14264174D01*
X13211610Y-14264174D02*
X13221134Y-14283222D01*
X13221134Y-14283222D02*
X13221134Y-14387984D01*
X13221134Y-14283222D02*
X13230658Y-14264174D01*
X13230658Y-14264174D02*
X13249705Y-14254650D01*
X13249705Y-14254650D02*
X13278277Y-14254650D01*
X13278277Y-14254650D02*
X13297324Y-14264174D01*
X13297324Y-14264174D02*
X13306848Y-14283222D01*
X13306848Y-14283222D02*
X13306848Y-14387984D01*
X13402086Y-14387984D02*
X13402086Y-14254650D01*
X13402086Y-14273698D02*
X13411610Y-14264174D01*
X13411610Y-14264174D02*
X13430658Y-14254650D01*
X13430658Y-14254650D02*
X13459229Y-14254650D01*
X13459229Y-14254650D02*
X13478277Y-14264174D01*
X13478277Y-14264174D02*
X13487801Y-14283222D01*
X13487801Y-14283222D02*
X13487801Y-14387984D01*
X13487801Y-14283222D02*
X13497324Y-14264174D01*
X13497324Y-14264174D02*
X13516372Y-14254650D01*
X13516372Y-14254650D02*
X13544943Y-14254650D01*
X13544943Y-14254650D02*
X13563991Y-14264174D01*
X13563991Y-14264174D02*
X13573515Y-14283222D01*
X13573515Y-14283222D02*
X13573515Y-14387984D01*
X13963991Y-14178460D02*
X13792563Y-14435603D01*
X14221134Y-14187984D02*
X14240182Y-14187984D01*
X14240182Y-14187984D02*
X14259229Y-14197508D01*
X14259229Y-14197508D02*
X14268753Y-14207031D01*
X14268753Y-14207031D02*
X14278277Y-14226079D01*
X14278277Y-14226079D02*
X14287801Y-14264174D01*
X14287801Y-14264174D02*
X14287801Y-14311793D01*
X14287801Y-14311793D02*
X14278277Y-14349888D01*
X14278277Y-14349888D02*
X14268753Y-14368936D01*
X14268753Y-14368936D02*
X14259229Y-14378460D01*
X14259229Y-14378460D02*
X14240182Y-14387984D01*
X14240182Y-14387984D02*
X14221134Y-14387984D01*
X14221134Y-14387984D02*
X14202086Y-14378460D01*
X14202086Y-14378460D02*
X14192563Y-14368936D01*
X14192563Y-14368936D02*
X14183039Y-14349888D01*
X14183039Y-14349888D02*
X14173515Y-14311793D01*
X14173515Y-14311793D02*
X14173515Y-14264174D01*
X14173515Y-14264174D02*
X14183039Y-14226079D01*
X14183039Y-14226079D02*
X14192563Y-14207031D01*
X14192563Y-14207031D02*
X14202086Y-14197508D01*
X14202086Y-14197508D02*
X14221134Y-14187984D01*
X14373515Y-14368936D02*
X14383039Y-14378460D01*
X14383039Y-14378460D02*
X14373515Y-14387984D01*
X14373515Y-14387984D02*
X14363991Y-14378460D01*
X14363991Y-14378460D02*
X14373515Y-14368936D01*
X14373515Y-14368936D02*
X14373515Y-14387984D01*
X14506848Y-14187984D02*
X14525896Y-14187984D01*
X14525896Y-14187984D02*
X14544944Y-14197508D01*
X14544944Y-14197508D02*
X14554467Y-14207031D01*
X14554467Y-14207031D02*
X14563991Y-14226079D01*
X14563991Y-14226079D02*
X14573515Y-14264174D01*
X14573515Y-14264174D02*
X14573515Y-14311793D01*
X14573515Y-14311793D02*
X14563991Y-14349888D01*
X14563991Y-14349888D02*
X14554467Y-14368936D01*
X14554467Y-14368936D02*
X14544944Y-14378460D01*
X14544944Y-14378460D02*
X14525896Y-14387984D01*
X14525896Y-14387984D02*
X14506848Y-14387984D01*
X14506848Y-14387984D02*
X14487801Y-14378460D01*
X14487801Y-14378460D02*
X14478277Y-14368936D01*
X14478277Y-14368936D02*
X14468753Y-14349888D01*
X14468753Y-14349888D02*
X14459229Y-14311793D01*
X14459229Y-14311793D02*
X14459229Y-14264174D01*
X14459229Y-14264174D02*
X14468753Y-14226079D01*
X14468753Y-14226079D02*
X14478277Y-14207031D01*
X14478277Y-14207031D02*
X14487801Y-14197508D01*
X14487801Y-14197508D02*
X14506848Y-14187984D01*
X14687801Y-14273698D02*
X14668753Y-14264174D01*
X14668753Y-14264174D02*
X14659229Y-14254650D01*
X14659229Y-14254650D02*
X14649706Y-14235603D01*
X14649706Y-14235603D02*
X14649706Y-14226079D01*
X14649706Y-14226079D02*
X14659229Y-14207031D01*
X14659229Y-14207031D02*
X14668753Y-14197508D01*
X14668753Y-14197508D02*
X14687801Y-14187984D01*
X14687801Y-14187984D02*
X14725896Y-14187984D01*
X14725896Y-14187984D02*
X14744944Y-14197508D01*
X14744944Y-14197508D02*
X14754467Y-14207031D01*
X14754467Y-14207031D02*
X14763991Y-14226079D01*
X14763991Y-14226079D02*
X14763991Y-14235603D01*
X14763991Y-14235603D02*
X14754467Y-14254650D01*
X14754467Y-14254650D02*
X14744944Y-14264174D01*
X14744944Y-14264174D02*
X14725896Y-14273698D01*
X14725896Y-14273698D02*
X14687801Y-14273698D01*
X14687801Y-14273698D02*
X14668753Y-14283222D01*
X14668753Y-14283222D02*
X14659229Y-14292746D01*
X14659229Y-14292746D02*
X14649706Y-14311793D01*
X14649706Y-14311793D02*
X14649706Y-14349888D01*
X14649706Y-14349888D02*
X14659229Y-14368936D01*
X14659229Y-14368936D02*
X14668753Y-14378460D01*
X14668753Y-14378460D02*
X14687801Y-14387984D01*
X14687801Y-14387984D02*
X14725896Y-14387984D01*
X14725896Y-14387984D02*
X14744944Y-14378460D01*
X14744944Y-14378460D02*
X14754467Y-14368936D01*
X14754467Y-14368936D02*
X14763991Y-14349888D01*
X14763991Y-14349888D02*
X14763991Y-14311793D01*
X14763991Y-14311793D02*
X14754467Y-14292746D01*
X14754467Y-14292746D02*
X14744944Y-14283222D01*
X14744944Y-14283222D02*
X14725896Y-14273698D01*
X14935420Y-14187984D02*
X14897325Y-14187984D01*
X14897325Y-14187984D02*
X14878277Y-14197508D01*
X14878277Y-14197508D02*
X14868753Y-14207031D01*
X14868753Y-14207031D02*
X14849706Y-14235603D01*
X14849706Y-14235603D02*
X14840182Y-14273698D01*
X14840182Y-14273698D02*
X14840182Y-14349888D01*
X14840182Y-14349888D02*
X14849706Y-14368936D01*
X14849706Y-14368936D02*
X14859229Y-14378460D01*
X14859229Y-14378460D02*
X14878277Y-14387984D01*
X14878277Y-14387984D02*
X14916372Y-14387984D01*
X14916372Y-14387984D02*
X14935420Y-14378460D01*
X14935420Y-14378460D02*
X14944944Y-14368936D01*
X14944944Y-14368936D02*
X14954467Y-14349888D01*
X14954467Y-14349888D02*
X14954467Y-14302269D01*
X14954467Y-14302269D02*
X14944944Y-14283222D01*
X14944944Y-14283222D02*
X14935420Y-14273698D01*
X14935420Y-14273698D02*
X14916372Y-14264174D01*
X14916372Y-14264174D02*
X14878277Y-14264174D01*
X14878277Y-14264174D02*
X14859229Y-14273698D01*
X14859229Y-14273698D02*
X14849706Y-14283222D01*
X14849706Y-14283222D02*
X14840182Y-14302269D01*
X15125896Y-14187984D02*
X15087801Y-14187984D01*
X15087801Y-14187984D02*
X15068753Y-14197508D01*
X15068753Y-14197508D02*
X15059229Y-14207031D01*
X15059229Y-14207031D02*
X15040182Y-14235603D01*
X15040182Y-14235603D02*
X15030658Y-14273698D01*
X15030658Y-14273698D02*
X15030658Y-14349888D01*
X15030658Y-14349888D02*
X15040182Y-14368936D01*
X15040182Y-14368936D02*
X15049706Y-14378460D01*
X15049706Y-14378460D02*
X15068753Y-14387984D01*
X15068753Y-14387984D02*
X15106848Y-14387984D01*
X15106848Y-14387984D02*
X15125896Y-14378460D01*
X15125896Y-14378460D02*
X15135420Y-14368936D01*
X15135420Y-14368936D02*
X15144944Y-14349888D01*
X15144944Y-14349888D02*
X15144944Y-14302269D01*
X15144944Y-14302269D02*
X15135420Y-14283222D01*
X15135420Y-14283222D02*
X15125896Y-14273698D01*
X15125896Y-14273698D02*
X15106848Y-14264174D01*
X15106848Y-14264174D02*
X15068753Y-14264174D01*
X15068753Y-14264174D02*
X15049706Y-14273698D01*
X15049706Y-14273698D02*
X15040182Y-14283222D01*
X15040182Y-14283222D02*
X15030658Y-14302269D01*
X15221134Y-14187984D02*
X15221134Y-14226079D01*
X15297325Y-14187984D02*
X15297325Y-14226079D01*
X15592563Y-14464174D02*
X15583039Y-14454650D01*
X15583039Y-14454650D02*
X15563991Y-14426079D01*
X15563991Y-14426079D02*
X15554468Y-14407031D01*
X15554468Y-14407031D02*
X15544944Y-14378460D01*
X15544944Y-14378460D02*
X15535420Y-14330841D01*
X15535420Y-14330841D02*
X15535420Y-14292746D01*
X15535420Y-14292746D02*
X15544944Y-14245127D01*
X15544944Y-14245127D02*
X15554468Y-14216555D01*
X15554468Y-14216555D02*
X15563991Y-14197508D01*
X15563991Y-14197508D02*
X15583039Y-14168936D01*
X15583039Y-14168936D02*
X15592563Y-14159412D01*
X15649706Y-14187984D02*
X15773515Y-14187984D01*
X15773515Y-14187984D02*
X15706848Y-14264174D01*
X15706848Y-14264174D02*
X15735420Y-14264174D01*
X15735420Y-14264174D02*
X15754468Y-14273698D01*
X15754468Y-14273698D02*
X15763991Y-14283222D01*
X15763991Y-14283222D02*
X15773515Y-14302269D01*
X15773515Y-14302269D02*
X15773515Y-14349888D01*
X15773515Y-14349888D02*
X15763991Y-14368936D01*
X15763991Y-14368936D02*
X15754468Y-14378460D01*
X15754468Y-14378460D02*
X15735420Y-14387984D01*
X15735420Y-14387984D02*
X15678277Y-14387984D01*
X15678277Y-14387984D02*
X15659229Y-14378460D01*
X15659229Y-14378460D02*
X15649706Y-14368936D01*
X16011610Y-14387984D02*
X16011610Y-14187984D01*
X16097325Y-14387984D02*
X16097325Y-14283222D01*
X16097325Y-14283222D02*
X16087801Y-14264174D01*
X16087801Y-14264174D02*
X16068753Y-14254650D01*
X16068753Y-14254650D02*
X16040182Y-14254650D01*
X16040182Y-14254650D02*
X16021134Y-14264174D01*
X16021134Y-14264174D02*
X16011610Y-14273698D01*
X16221134Y-14387984D02*
X16202087Y-14378460D01*
X16202087Y-14378460D02*
X16192563Y-14368936D01*
X16192563Y-14368936D02*
X16183039Y-14349888D01*
X16183039Y-14349888D02*
X16183039Y-14292746D01*
X16183039Y-14292746D02*
X16192563Y-14273698D01*
X16192563Y-14273698D02*
X16202087Y-14264174D01*
X16202087Y-14264174D02*
X16221134Y-14254650D01*
X16221134Y-14254650D02*
X16249706Y-14254650D01*
X16249706Y-14254650D02*
X16268753Y-14264174D01*
X16268753Y-14264174D02*
X16278277Y-14273698D01*
X16278277Y-14273698D02*
X16287801Y-14292746D01*
X16287801Y-14292746D02*
X16287801Y-14349888D01*
X16287801Y-14349888D02*
X16278277Y-14368936D01*
X16278277Y-14368936D02*
X16268753Y-14378460D01*
X16268753Y-14378460D02*
X16249706Y-14387984D01*
X16249706Y-14387984D02*
X16221134Y-14387984D01*
X16402087Y-14387984D02*
X16383039Y-14378460D01*
X16383039Y-14378460D02*
X16373515Y-14359412D01*
X16373515Y-14359412D02*
X16373515Y-14187984D01*
X16554468Y-14378460D02*
X16535420Y-14387984D01*
X16535420Y-14387984D02*
X16497325Y-14387984D01*
X16497325Y-14387984D02*
X16478277Y-14378460D01*
X16478277Y-14378460D02*
X16468753Y-14359412D01*
X16468753Y-14359412D02*
X16468753Y-14283222D01*
X16468753Y-14283222D02*
X16478277Y-14264174D01*
X16478277Y-14264174D02*
X16497325Y-14254650D01*
X16497325Y-14254650D02*
X16535420Y-14254650D01*
X16535420Y-14254650D02*
X16554468Y-14264174D01*
X16554468Y-14264174D02*
X16563991Y-14283222D01*
X16563991Y-14283222D02*
X16563991Y-14302269D01*
X16563991Y-14302269D02*
X16468753Y-14321317D01*
X16640182Y-14378460D02*
X16659230Y-14387984D01*
X16659230Y-14387984D02*
X16697325Y-14387984D01*
X16697325Y-14387984D02*
X16716372Y-14378460D01*
X16716372Y-14378460D02*
X16725896Y-14359412D01*
X16725896Y-14359412D02*
X16725896Y-14349888D01*
X16725896Y-14349888D02*
X16716372Y-14330841D01*
X16716372Y-14330841D02*
X16697325Y-14321317D01*
X16697325Y-14321317D02*
X16668753Y-14321317D01*
X16668753Y-14321317D02*
X16649706Y-14311793D01*
X16649706Y-14311793D02*
X16640182Y-14292746D01*
X16640182Y-14292746D02*
X16640182Y-14283222D01*
X16640182Y-14283222D02*
X16649706Y-14264174D01*
X16649706Y-14264174D02*
X16668753Y-14254650D01*
X16668753Y-14254650D02*
X16697325Y-14254650D01*
X16697325Y-14254650D02*
X16716372Y-14264174D01*
X16792563Y-14464174D02*
X16802087Y-14454650D01*
X16802087Y-14454650D02*
X16821134Y-14426079D01*
X16821134Y-14426079D02*
X16830658Y-14407031D01*
X16830658Y-14407031D02*
X16840182Y-14378460D01*
X16840182Y-14378460D02*
X16849706Y-14330841D01*
X16849706Y-14330841D02*
X16849706Y-14292746D01*
X16849706Y-14292746D02*
X16840182Y-14245127D01*
X16840182Y-14245127D02*
X16830658Y-14216555D01*
X16830658Y-14216555D02*
X16821134Y-14197508D01*
X16821134Y-14197508D02*
X16802087Y-14168936D01*
X16802087Y-14168936D02*
X16792563Y-14159412D01*
M02*
