%TF.GenerationSoftware,KiCad,Pcbnew,8.0.5*%
%TF.CreationDate,2024-11-04T19:37:20-07:00*%
%TF.ProjectId,ProjectPCB,50726f6a-6563-4745-9043-422e6b696361,rev?*%
%TF.SameCoordinates,Original*%
%TF.FileFunction,Drillmap*%
%TF.FilePolarity,Positive*%
%FSLAX45Y45*%
G04 Gerber Fmt 4.5, Leading zero omitted, Abs format (unit mm)*
G04 Created by KiCad (PCBNEW 8.0.5) date 2024-11-04 19:37:20*
%MOMM*%
%LPD*%
G01*
G04 APERTURE LIST*
%ADD10C,0.050000*%
%ADD11C,0.200000*%
G04 APERTURE END LIST*
D10*
X12020000Y-8220000D02*
X16130000Y-8220000D01*
X16130000Y-12070000D01*
X12020000Y-12070000D01*
X12020000Y-8220000D01*
D11*
X12278277Y-12383984D02*
X12278277Y-12183984D01*
X12278277Y-12183984D02*
X12325896Y-12183984D01*
X12325896Y-12183984D02*
X12354467Y-12193508D01*
X12354467Y-12193508D02*
X12373515Y-12212555D01*
X12373515Y-12212555D02*
X12383039Y-12231603D01*
X12383039Y-12231603D02*
X12392562Y-12269698D01*
X12392562Y-12269698D02*
X12392562Y-12298269D01*
X12392562Y-12298269D02*
X12383039Y-12336365D01*
X12383039Y-12336365D02*
X12373515Y-12355412D01*
X12373515Y-12355412D02*
X12354467Y-12374460D01*
X12354467Y-12374460D02*
X12325896Y-12383984D01*
X12325896Y-12383984D02*
X12278277Y-12383984D01*
X12478277Y-12383984D02*
X12478277Y-12250650D01*
X12478277Y-12288746D02*
X12487801Y-12269698D01*
X12487801Y-12269698D02*
X12497324Y-12260174D01*
X12497324Y-12260174D02*
X12516372Y-12250650D01*
X12516372Y-12250650D02*
X12535420Y-12250650D01*
X12602086Y-12383984D02*
X12602086Y-12250650D01*
X12602086Y-12183984D02*
X12592562Y-12193508D01*
X12592562Y-12193508D02*
X12602086Y-12203031D01*
X12602086Y-12203031D02*
X12611610Y-12193508D01*
X12611610Y-12193508D02*
X12602086Y-12183984D01*
X12602086Y-12183984D02*
X12602086Y-12203031D01*
X12725896Y-12383984D02*
X12706848Y-12374460D01*
X12706848Y-12374460D02*
X12697324Y-12355412D01*
X12697324Y-12355412D02*
X12697324Y-12183984D01*
X12830658Y-12383984D02*
X12811610Y-12374460D01*
X12811610Y-12374460D02*
X12802086Y-12355412D01*
X12802086Y-12355412D02*
X12802086Y-12183984D01*
X13059229Y-12383984D02*
X13059229Y-12183984D01*
X13059229Y-12183984D02*
X13125896Y-12326841D01*
X13125896Y-12326841D02*
X13192562Y-12183984D01*
X13192562Y-12183984D02*
X13192562Y-12383984D01*
X13373515Y-12383984D02*
X13373515Y-12279222D01*
X13373515Y-12279222D02*
X13363991Y-12260174D01*
X13363991Y-12260174D02*
X13344943Y-12250650D01*
X13344943Y-12250650D02*
X13306848Y-12250650D01*
X13306848Y-12250650D02*
X13287801Y-12260174D01*
X13373515Y-12374460D02*
X13354467Y-12383984D01*
X13354467Y-12383984D02*
X13306848Y-12383984D01*
X13306848Y-12383984D02*
X13287801Y-12374460D01*
X13287801Y-12374460D02*
X13278277Y-12355412D01*
X13278277Y-12355412D02*
X13278277Y-12336365D01*
X13278277Y-12336365D02*
X13287801Y-12317317D01*
X13287801Y-12317317D02*
X13306848Y-12307793D01*
X13306848Y-12307793D02*
X13354467Y-12307793D01*
X13354467Y-12307793D02*
X13373515Y-12298269D01*
X13468753Y-12250650D02*
X13468753Y-12450650D01*
X13468753Y-12260174D02*
X13487801Y-12250650D01*
X13487801Y-12250650D02*
X13525896Y-12250650D01*
X13525896Y-12250650D02*
X13544943Y-12260174D01*
X13544943Y-12260174D02*
X13554467Y-12269698D01*
X13554467Y-12269698D02*
X13563991Y-12288746D01*
X13563991Y-12288746D02*
X13563991Y-12345888D01*
X13563991Y-12345888D02*
X13554467Y-12364936D01*
X13554467Y-12364936D02*
X13544943Y-12374460D01*
X13544943Y-12374460D02*
X13525896Y-12383984D01*
X13525896Y-12383984D02*
X13487801Y-12383984D01*
X13487801Y-12383984D02*
X13468753Y-12374460D01*
X13649705Y-12364936D02*
X13659229Y-12374460D01*
X13659229Y-12374460D02*
X13649705Y-12383984D01*
X13649705Y-12383984D02*
X13640182Y-12374460D01*
X13640182Y-12374460D02*
X13649705Y-12364936D01*
X13649705Y-12364936D02*
X13649705Y-12383984D01*
X13649705Y-12260174D02*
X13659229Y-12269698D01*
X13659229Y-12269698D02*
X13649705Y-12279222D01*
X13649705Y-12279222D02*
X13640182Y-12269698D01*
X13640182Y-12269698D02*
X13649705Y-12260174D01*
X13649705Y-12260174D02*
X13649705Y-12279222D01*
M02*
