%TF.GenerationSoftware,KiCad,Pcbnew,8.0.5*%
%TF.CreationDate,2024-11-04T19:37:10-07:00*%
%TF.ProjectId,ProjectPCB,50726f6a-6563-4745-9043-422e6b696361,rev?*%
%TF.SameCoordinates,Original*%
%TF.FileFunction,Copper,L3,Inr*%
%TF.FilePolarity,Positive*%
%FSLAX46Y46*%
G04 Gerber Fmt 4.6, Leading zero omitted, Abs format (unit mm)*
G04 Created by KiCad (PCBNEW 8.0.5) date 2024-11-04 19:37:10*
%MOMM*%
%LPD*%
G01*
G04 APERTURE LIST*
%TA.AperFunction,ComponentPad*%
%ADD10C,3.800000*%
%TD*%
%TA.AperFunction,ComponentPad*%
%ADD11O,5.000000X2.500000*%
%TD*%
%TA.AperFunction,ComponentPad*%
%ADD12O,4.500000X2.250000*%
%TD*%
%TA.AperFunction,ComponentPad*%
%ADD13O,2.250000X4.500000*%
%TD*%
%TA.AperFunction,ComponentPad*%
%ADD14R,1.700000X1.700000*%
%TD*%
%TA.AperFunction,ComponentPad*%
%ADD15O,1.700000X1.700000*%
%TD*%
%TA.AperFunction,ComponentPad*%
%ADD16R,2.250000X2.250000*%
%TD*%
%TA.AperFunction,ComponentPad*%
%ADD17C,2.250000*%
%TD*%
%TA.AperFunction,ComponentPad*%
%ADD18R,1.600000X1.600000*%
%TD*%
%TA.AperFunction,ComponentPad*%
%ADD19O,1.600000X1.600000*%
%TD*%
%TA.AperFunction,ComponentPad*%
%ADD20R,1.905000X2.000000*%
%TD*%
%TA.AperFunction,ComponentPad*%
%ADD21O,1.905000X2.000000*%
%TD*%
%TA.AperFunction,ComponentPad*%
%ADD22R,1.800000X1.800000*%
%TD*%
%TA.AperFunction,ComponentPad*%
%ADD23C,1.800000*%
%TD*%
%TA.AperFunction,ViaPad*%
%ADD24C,0.600000*%
%TD*%
G04 APERTURE END LIST*
D10*
%TO.N,GND*%
%TO.C,H3*%
X158000000Y-86000000D03*
%TD*%
%TO.N,GND*%
%TO.C,H2*%
X133200000Y-117200000D03*
%TD*%
%TO.N,GND*%
%TO.C,H1*%
X124000000Y-86000000D03*
%TD*%
D11*
%TO.N,Net-(SW2-A)*%
%TO.C,J5*%
X126000000Y-106000000D03*
D12*
%TO.N,GND*%
X126000000Y-112000000D03*
D13*
X130700000Y-109000000D03*
%TD*%
D14*
%TO.N,Net-(J3-Pin_1)*%
%TO.C,J3*%
X157500000Y-106000000D03*
D15*
%TO.N,Net-(J3-Pin_2)*%
X157500000Y-103460000D03*
%TO.N,GND*%
X157500000Y-100920000D03*
%TD*%
D16*
%TO.N,Net-(J1-Pin_5)*%
%TO.C,SW1*%
X153250000Y-112500000D03*
D17*
%TO.N,GND*%
X153250000Y-119000000D03*
%TD*%
D18*
%TO.N,Net-(SW2-A)*%
%TO.C,SW2*%
X123660000Y-101000000D03*
D19*
%TO.N,Net-(SW2-B)*%
X131280000Y-101000000D03*
%TD*%
D14*
%TO.N,Net-(J1-Pin_1)*%
%TO.C,J1*%
X148375000Y-112975000D03*
D15*
%TO.N,+5V*%
X148375000Y-115515000D03*
%TO.N,unconnected-(J1-Pin_3-Pad3)*%
X145835000Y-112975000D03*
%TO.N,GND*%
X145835000Y-115515000D03*
%TO.N,Net-(J1-Pin_5)*%
X143295000Y-112975000D03*
%TO.N,GND*%
X143295000Y-115515000D03*
%TO.N,Net-(J1-Pin_7)*%
X140755000Y-112975000D03*
%TO.N,GND*%
X140755000Y-115515000D03*
%TO.N,Net-(J1-Pin_9)*%
X138215000Y-112975000D03*
%TO.N,GND*%
X138215000Y-115515000D03*
%TD*%
D20*
%TO.N,Net-(SW2-B)*%
%TO.C,U2*%
X124920000Y-96500000D03*
D21*
%TO.N,GND*%
X127460000Y-96500000D03*
%TO.N,+5V*%
X130000000Y-96500000D03*
%TD*%
D14*
%TO.N,+5V*%
%TO.C,J2*%
X157500000Y-115500000D03*
D15*
%TO.N,Net-(J2-Pin_2)*%
X157500000Y-112960000D03*
%TO.N,GND*%
X157500000Y-110420000D03*
%TD*%
D22*
%TO.N,GND*%
%TO.C,D2*%
X153000000Y-85225000D03*
D23*
%TO.N,Net-(D2-A)*%
X153000000Y-87765000D03*
%TD*%
D22*
%TO.N,GND*%
%TO.C,D1*%
X148000000Y-85185000D03*
D23*
%TO.N,Net-(D1-A)*%
X148000000Y-87725000D03*
%TD*%
D14*
%TO.N,Net-(J4-Pin_1)*%
%TO.C,J4*%
X157500000Y-91420000D03*
D15*
%TO.N,+5V*%
X157500000Y-93960000D03*
%TO.N,GND*%
X157500000Y-96500000D03*
%TD*%
D24*
%TO.N,GND*%
X141500000Y-95500000D03*
X143400000Y-108000000D03*
%TO.N,+5V*%
X141400000Y-108000000D03*
X143500000Y-95500000D03*
X153400000Y-99600000D03*
X153500000Y-109500000D03*
%TO.N,Net-(J2-Pin_2)*%
X147500000Y-108000000D03*
%TD*%
%TA.AperFunction,Conductor*%
%TO.N,+5V*%
G36*
X160742539Y-82720185D02*
G01*
X160788294Y-82772989D01*
X160799500Y-82824500D01*
X160799500Y-120075500D01*
X160779815Y-120142539D01*
X160727011Y-120188294D01*
X160675500Y-120199500D01*
X154632181Y-120199500D01*
X154565142Y-120179815D01*
X154519387Y-120127011D01*
X154509443Y-120057853D01*
X154537890Y-119994969D01*
X154569122Y-119958400D01*
X154569121Y-119958400D01*
X154569123Y-119958399D01*
X154702809Y-119740243D01*
X154800722Y-119503860D01*
X154860452Y-119255070D01*
X154880526Y-119000000D01*
X154860452Y-118744930D01*
X154800722Y-118496140D01*
X154800720Y-118496135D01*
X154702811Y-118259760D01*
X154702809Y-118259757D01*
X154569124Y-118041603D01*
X154569121Y-118041598D01*
X154509319Y-117971579D01*
X154402956Y-117847044D01*
X154296591Y-117756200D01*
X154208401Y-117680878D01*
X154208396Y-117680875D01*
X153990242Y-117547190D01*
X153990239Y-117547188D01*
X153753864Y-117449279D01*
X153753860Y-117449278D01*
X153505070Y-117389548D01*
X153505067Y-117389547D01*
X153505064Y-117389547D01*
X153250000Y-117369474D01*
X152994935Y-117389547D01*
X152994931Y-117389547D01*
X152994930Y-117389548D01*
X152870535Y-117419413D01*
X152746135Y-117449279D01*
X152509760Y-117547188D01*
X152509757Y-117547190D01*
X152291603Y-117680875D01*
X152291598Y-117680878D01*
X152097044Y-117847044D01*
X151930878Y-118041598D01*
X151930875Y-118041603D01*
X151797190Y-118259757D01*
X151797188Y-118259760D01*
X151699279Y-118496135D01*
X151639547Y-118744935D01*
X151619474Y-119000000D01*
X151639547Y-119255064D01*
X151699279Y-119503864D01*
X151797188Y-119740239D01*
X151797190Y-119740242D01*
X151930875Y-119958396D01*
X151930877Y-119958400D01*
X151962110Y-119994969D01*
X151990680Y-120058730D01*
X151980243Y-120127816D01*
X151934112Y-120180292D01*
X151867819Y-120199500D01*
X120824500Y-120199500D01*
X120757461Y-120179815D01*
X120711706Y-120127011D01*
X120700500Y-120075500D01*
X120700500Y-117199994D01*
X130794754Y-117199994D01*
X130794754Y-117200005D01*
X130813718Y-117501446D01*
X130813719Y-117501453D01*
X130870320Y-117798164D01*
X130963659Y-118085431D01*
X130963661Y-118085436D01*
X131092265Y-118358732D01*
X131092268Y-118358738D01*
X131254111Y-118613763D01*
X131446652Y-118846505D01*
X131666836Y-119053272D01*
X131666846Y-119053280D01*
X131911193Y-119230808D01*
X131911198Y-119230810D01*
X131911205Y-119230816D01*
X132175896Y-119376332D01*
X132175901Y-119376334D01*
X132175903Y-119376335D01*
X132175904Y-119376336D01*
X132456734Y-119487524D01*
X132456737Y-119487525D01*
X132554259Y-119512564D01*
X132749302Y-119562642D01*
X132896039Y-119581179D01*
X133048963Y-119600499D01*
X133048969Y-119600499D01*
X133048973Y-119600500D01*
X133048975Y-119600500D01*
X133351025Y-119600500D01*
X133351027Y-119600500D01*
X133351032Y-119600499D01*
X133351036Y-119600499D01*
X133430591Y-119590448D01*
X133650698Y-119562642D01*
X133943262Y-119487525D01*
X133943265Y-119487524D01*
X134224095Y-119376336D01*
X134224096Y-119376335D01*
X134224094Y-119376335D01*
X134224104Y-119376332D01*
X134488795Y-119230816D01*
X134733162Y-119053274D01*
X134953349Y-118846504D01*
X135145885Y-118613768D01*
X135307733Y-118358736D01*
X135436341Y-118085430D01*
X135529681Y-117798160D01*
X135586280Y-117501457D01*
X135605246Y-117200000D01*
X135586280Y-116898543D01*
X135529681Y-116601840D01*
X135436341Y-116314570D01*
X135307733Y-116041264D01*
X135267893Y-115978486D01*
X135145888Y-115786236D01*
X135116253Y-115750413D01*
X134953349Y-115553496D01*
X134733162Y-115346726D01*
X134733159Y-115346724D01*
X134733153Y-115346719D01*
X134488806Y-115169191D01*
X134488799Y-115169186D01*
X134488795Y-115169184D01*
X134224104Y-115023668D01*
X134224101Y-115023666D01*
X134224096Y-115023664D01*
X134224095Y-115023663D01*
X133943265Y-114912475D01*
X133943262Y-114912474D01*
X133650695Y-114837357D01*
X133351036Y-114799500D01*
X133351027Y-114799500D01*
X133048973Y-114799500D01*
X133048963Y-114799500D01*
X132749304Y-114837357D01*
X132456737Y-114912474D01*
X132456734Y-114912475D01*
X132175904Y-115023663D01*
X132175903Y-115023664D01*
X131911205Y-115169184D01*
X131911193Y-115169191D01*
X131666846Y-115346719D01*
X131666836Y-115346727D01*
X131446652Y-115553494D01*
X131254111Y-115786236D01*
X131092268Y-116041261D01*
X131092265Y-116041267D01*
X130963661Y-116314563D01*
X130963659Y-116314568D01*
X130870320Y-116601835D01*
X130813719Y-116898546D01*
X130813718Y-116898553D01*
X130794754Y-117199994D01*
X120700500Y-117199994D01*
X120700500Y-111872070D01*
X123249500Y-111872070D01*
X123249500Y-112127929D01*
X123289526Y-112380640D01*
X123368588Y-112623972D01*
X123368589Y-112623975D01*
X123484750Y-112851950D01*
X123635132Y-113058935D01*
X123635136Y-113058940D01*
X123816059Y-113239863D01*
X123816064Y-113239867D01*
X123996607Y-113371038D01*
X124023053Y-113390252D01*
X124118065Y-113438663D01*
X124251024Y-113506410D01*
X124251027Y-113506411D01*
X124372693Y-113545942D01*
X124494361Y-113585474D01*
X124747070Y-113625500D01*
X124747071Y-113625500D01*
X127252929Y-113625500D01*
X127252930Y-113625500D01*
X127505639Y-113585474D01*
X127748975Y-113506410D01*
X127976947Y-113390252D01*
X128183942Y-113239862D01*
X128364862Y-113058942D01*
X128425850Y-112974999D01*
X136859341Y-112974999D01*
X136859341Y-112975000D01*
X136879936Y-113210403D01*
X136879938Y-113210413D01*
X136941094Y-113438655D01*
X136941096Y-113438659D01*
X136941097Y-113438663D01*
X136945000Y-113447032D01*
X137040965Y-113652830D01*
X137040967Y-113652834D01*
X137149281Y-113807521D01*
X137176501Y-113846396D01*
X137176506Y-113846402D01*
X137343597Y-114013493D01*
X137343603Y-114013498D01*
X137529158Y-114143425D01*
X137572783Y-114198002D01*
X137579977Y-114267500D01*
X137548454Y-114329855D01*
X137529158Y-114346575D01*
X137343597Y-114476505D01*
X137176505Y-114643597D01*
X137040965Y-114837169D01*
X137040964Y-114837171D01*
X136941098Y-115051335D01*
X136941094Y-115051344D01*
X136879938Y-115279586D01*
X136879936Y-115279596D01*
X136859341Y-115514999D01*
X136859341Y-115515000D01*
X136879936Y-115750403D01*
X136879938Y-115750413D01*
X136941094Y-115978655D01*
X136941096Y-115978659D01*
X136941097Y-115978663D01*
X137021004Y-116150023D01*
X137040965Y-116192830D01*
X137040967Y-116192834D01*
X137126203Y-116314563D01*
X137176505Y-116386401D01*
X137343599Y-116553495D01*
X137398713Y-116592086D01*
X137537165Y-116689032D01*
X137537167Y-116689033D01*
X137537170Y-116689035D01*
X137751337Y-116788903D01*
X137751343Y-116788904D01*
X137751344Y-116788905D01*
X137806285Y-116803626D01*
X137979592Y-116850063D01*
X138167918Y-116866539D01*
X138214999Y-116870659D01*
X138215000Y-116870659D01*
X138215001Y-116870659D01*
X138254234Y-116867226D01*
X138450408Y-116850063D01*
X138678663Y-116788903D01*
X138892830Y-116689035D01*
X139086401Y-116553495D01*
X139253495Y-116386401D01*
X139383425Y-116200842D01*
X139438002Y-116157217D01*
X139507500Y-116150023D01*
X139569855Y-116181546D01*
X139586575Y-116200842D01*
X139716500Y-116386395D01*
X139716505Y-116386401D01*
X139883599Y-116553495D01*
X139938713Y-116592086D01*
X140077165Y-116689032D01*
X140077167Y-116689033D01*
X140077170Y-116689035D01*
X140291337Y-116788903D01*
X140291343Y-116788904D01*
X140291344Y-116788905D01*
X140346285Y-116803626D01*
X140519592Y-116850063D01*
X140707918Y-116866539D01*
X140754999Y-116870659D01*
X140755000Y-116870659D01*
X140755001Y-116870659D01*
X140794234Y-116867226D01*
X140990408Y-116850063D01*
X141218663Y-116788903D01*
X141432830Y-116689035D01*
X141626401Y-116553495D01*
X141793495Y-116386401D01*
X141923425Y-116200842D01*
X141978002Y-116157217D01*
X142047500Y-116150023D01*
X142109855Y-116181546D01*
X142126575Y-116200842D01*
X142256500Y-116386395D01*
X142256505Y-116386401D01*
X142423599Y-116553495D01*
X142478713Y-116592086D01*
X142617165Y-116689032D01*
X142617167Y-116689033D01*
X142617170Y-116689035D01*
X142831337Y-116788903D01*
X142831343Y-116788904D01*
X142831344Y-116788905D01*
X142886285Y-116803626D01*
X143059592Y-116850063D01*
X143247918Y-116866539D01*
X143294999Y-116870659D01*
X143295000Y-116870659D01*
X143295001Y-116870659D01*
X143334234Y-116867226D01*
X143530408Y-116850063D01*
X143758663Y-116788903D01*
X143972830Y-116689035D01*
X144166401Y-116553495D01*
X144333495Y-116386401D01*
X144463425Y-116200842D01*
X144518002Y-116157217D01*
X144587500Y-116150023D01*
X144649855Y-116181546D01*
X144666575Y-116200842D01*
X144796500Y-116386395D01*
X144796505Y-116386401D01*
X144963599Y-116553495D01*
X145018713Y-116592086D01*
X145157165Y-116689032D01*
X145157167Y-116689033D01*
X145157170Y-116689035D01*
X145371337Y-116788903D01*
X145371343Y-116788904D01*
X145371344Y-116788905D01*
X145426285Y-116803626D01*
X145599592Y-116850063D01*
X145787918Y-116866539D01*
X145834999Y-116870659D01*
X145835000Y-116870659D01*
X145835001Y-116870659D01*
X145874234Y-116867226D01*
X146070408Y-116850063D01*
X146298663Y-116788903D01*
X146512830Y-116689035D01*
X146706401Y-116553495D01*
X146873495Y-116386401D01*
X147003730Y-116200405D01*
X147058307Y-116156781D01*
X147127805Y-116149587D01*
X147190160Y-116181110D01*
X147206879Y-116200405D01*
X147336890Y-116386078D01*
X147503917Y-116553105D01*
X147697421Y-116688600D01*
X147911507Y-116788429D01*
X147911516Y-116788433D01*
X148125000Y-116845634D01*
X148125000Y-115948012D01*
X148182007Y-115980925D01*
X148309174Y-116015000D01*
X148440826Y-116015000D01*
X148567993Y-115980925D01*
X148625000Y-115948012D01*
X148625000Y-116845633D01*
X148838483Y-116788433D01*
X148838492Y-116788429D01*
X149052578Y-116688600D01*
X149246082Y-116553105D01*
X149413105Y-116386082D01*
X149548600Y-116192578D01*
X149648429Y-115978492D01*
X149648432Y-115978486D01*
X149705636Y-115765000D01*
X148808012Y-115765000D01*
X148840925Y-115707993D01*
X148875000Y-115580826D01*
X148875000Y-115449174D01*
X148840925Y-115322007D01*
X148808012Y-115265000D01*
X149705636Y-115265000D01*
X149705635Y-115264999D01*
X149648432Y-115051513D01*
X149648429Y-115051507D01*
X149548600Y-114837422D01*
X149548599Y-114837420D01*
X149413113Y-114643926D01*
X149413108Y-114643920D01*
X149291053Y-114521865D01*
X149257568Y-114460542D01*
X149262552Y-114390850D01*
X149304424Y-114334917D01*
X149335400Y-114318002D01*
X149467331Y-114268796D01*
X149582546Y-114182546D01*
X149668796Y-114067331D01*
X149719091Y-113932483D01*
X149725500Y-113872873D01*
X149725499Y-112077128D01*
X149719091Y-112017517D01*
X149717810Y-112014083D01*
X149668797Y-111882671D01*
X149668793Y-111882664D01*
X149582547Y-111767455D01*
X149582544Y-111767452D01*
X149467335Y-111681206D01*
X149467328Y-111681202D01*
X149332482Y-111630908D01*
X149332483Y-111630908D01*
X149272883Y-111624501D01*
X149272881Y-111624500D01*
X149272873Y-111624500D01*
X149272864Y-111624500D01*
X147477129Y-111624500D01*
X147477123Y-111624501D01*
X147417516Y-111630908D01*
X147282671Y-111681202D01*
X147282664Y-111681206D01*
X147167455Y-111767452D01*
X147167452Y-111767455D01*
X147081206Y-111882664D01*
X147081203Y-111882669D01*
X147032189Y-112014083D01*
X146990317Y-112070016D01*
X146924853Y-112094433D01*
X146856580Y-112079581D01*
X146828326Y-112058430D01*
X146706402Y-111936506D01*
X146706395Y-111936501D01*
X146512834Y-111800967D01*
X146512830Y-111800965D01*
X146456837Y-111774855D01*
X146298663Y-111701097D01*
X146298659Y-111701096D01*
X146298655Y-111701094D01*
X146070413Y-111639938D01*
X146070403Y-111639936D01*
X145835001Y-111619341D01*
X145834999Y-111619341D01*
X145599596Y-111639936D01*
X145599586Y-111639938D01*
X145371344Y-111701094D01*
X145371335Y-111701098D01*
X145157171Y-111800964D01*
X145157169Y-111800965D01*
X144963597Y-111936505D01*
X144796505Y-112103597D01*
X144666575Y-112289158D01*
X144611998Y-112332783D01*
X144542500Y-112339977D01*
X144480145Y-112308454D01*
X144463425Y-112289158D01*
X144333494Y-112103597D01*
X144166402Y-111936506D01*
X144166395Y-111936501D01*
X143972834Y-111800967D01*
X143972830Y-111800965D01*
X143916837Y-111774855D01*
X143758663Y-111701097D01*
X143758659Y-111701096D01*
X143758655Y-111701094D01*
X143530413Y-111639938D01*
X143530403Y-111639936D01*
X143295001Y-111619341D01*
X143294999Y-111619341D01*
X143059596Y-111639936D01*
X143059586Y-111639938D01*
X142831344Y-111701094D01*
X142831335Y-111701098D01*
X142617171Y-111800964D01*
X142617169Y-111800965D01*
X142423597Y-111936505D01*
X142256505Y-112103597D01*
X142126575Y-112289158D01*
X142071998Y-112332783D01*
X142002500Y-112339977D01*
X141940145Y-112308454D01*
X141923425Y-112289158D01*
X141793494Y-112103597D01*
X141626402Y-111936506D01*
X141626395Y-111936501D01*
X141432834Y-111800967D01*
X141432830Y-111800965D01*
X141376837Y-111774855D01*
X141218663Y-111701097D01*
X141218659Y-111701096D01*
X141218655Y-111701094D01*
X140990413Y-111639938D01*
X140990403Y-111639936D01*
X140755001Y-111619341D01*
X140754999Y-111619341D01*
X140519596Y-111639936D01*
X140519586Y-111639938D01*
X140291344Y-111701094D01*
X140291335Y-111701098D01*
X140077171Y-111800964D01*
X140077169Y-111800965D01*
X139883597Y-111936505D01*
X139716505Y-112103597D01*
X139586575Y-112289158D01*
X139531998Y-112332783D01*
X139462500Y-112339977D01*
X139400145Y-112308454D01*
X139383425Y-112289158D01*
X139253494Y-112103597D01*
X139086402Y-111936506D01*
X139086395Y-111936501D01*
X138892834Y-111800967D01*
X138892830Y-111800965D01*
X138836837Y-111774855D01*
X138678663Y-111701097D01*
X138678659Y-111701096D01*
X138678655Y-111701094D01*
X138450413Y-111639938D01*
X138450403Y-111639936D01*
X138215001Y-111619341D01*
X138214999Y-111619341D01*
X137979596Y-111639936D01*
X137979586Y-111639938D01*
X137751344Y-111701094D01*
X137751335Y-111701098D01*
X137537171Y-111800964D01*
X137537169Y-111800965D01*
X137343597Y-111936505D01*
X137176505Y-112103597D01*
X137040965Y-112297169D01*
X137040964Y-112297171D01*
X136941098Y-112511335D01*
X136941094Y-112511344D01*
X136879938Y-112739586D01*
X136879936Y-112739596D01*
X136859341Y-112974999D01*
X128425850Y-112974999D01*
X128515252Y-112851947D01*
X128631410Y-112623975D01*
X128710474Y-112380639D01*
X128750500Y-112127930D01*
X128750500Y-111872070D01*
X128710474Y-111619361D01*
X128631410Y-111376025D01*
X128631410Y-111376024D01*
X128576122Y-111267517D01*
X128515252Y-111148053D01*
X128478763Y-111097830D01*
X128364867Y-110941064D01*
X128364863Y-110941059D01*
X128183940Y-110760136D01*
X128183935Y-110760132D01*
X127976950Y-110609750D01*
X127976949Y-110609749D01*
X127976947Y-110609748D01*
X127903910Y-110572533D01*
X127748975Y-110493589D01*
X127748972Y-110493588D01*
X127505640Y-110414526D01*
X127379284Y-110394513D01*
X127252930Y-110374500D01*
X124747070Y-110374500D01*
X124662833Y-110387842D01*
X124494359Y-110414526D01*
X124251027Y-110493588D01*
X124251024Y-110493589D01*
X124023049Y-110609750D01*
X123816064Y-110760132D01*
X123816059Y-110760136D01*
X123635136Y-110941059D01*
X123635132Y-110941064D01*
X123484750Y-111148049D01*
X123368589Y-111376024D01*
X123368588Y-111376027D01*
X123289526Y-111619359D01*
X123249500Y-111872070D01*
X120700500Y-111872070D01*
X120700500Y-105885258D01*
X122999500Y-105885258D01*
X122999500Y-106114741D01*
X123022512Y-106289526D01*
X123029452Y-106342238D01*
X123036513Y-106368589D01*
X123088842Y-106563887D01*
X123176650Y-106775876D01*
X123176657Y-106775890D01*
X123291392Y-106974617D01*
X123431081Y-107156661D01*
X123431089Y-107156670D01*
X123593330Y-107318911D01*
X123593338Y-107318918D01*
X123775382Y-107458607D01*
X123775385Y-107458608D01*
X123775388Y-107458611D01*
X123974112Y-107573344D01*
X123974117Y-107573346D01*
X123974123Y-107573349D01*
X124065480Y-107611190D01*
X124186113Y-107661158D01*
X124407762Y-107720548D01*
X124635266Y-107750500D01*
X124635273Y-107750500D01*
X127364727Y-107750500D01*
X127364734Y-107750500D01*
X127390787Y-107747070D01*
X129074500Y-107747070D01*
X129074500Y-110252929D01*
X129114526Y-110505640D01*
X129193588Y-110748972D01*
X129193589Y-110748975D01*
X129309750Y-110976950D01*
X129460132Y-111183935D01*
X129460136Y-111183940D01*
X129641059Y-111364863D01*
X129641064Y-111364867D01*
X129769933Y-111458495D01*
X129848053Y-111515252D01*
X129991663Y-111588425D01*
X130076024Y-111631410D01*
X130076027Y-111631411D01*
X130197693Y-111670942D01*
X130319361Y-111710474D01*
X130572070Y-111750500D01*
X130572071Y-111750500D01*
X130827929Y-111750500D01*
X130827930Y-111750500D01*
X131080639Y-111710474D01*
X131323975Y-111631410D01*
X131551947Y-111515252D01*
X131758942Y-111364862D01*
X131796669Y-111327135D01*
X151624500Y-111327135D01*
X151624500Y-113672870D01*
X151624501Y-113672876D01*
X151630908Y-113732483D01*
X151681202Y-113867328D01*
X151681206Y-113867335D01*
X151767452Y-113982544D01*
X151767455Y-113982547D01*
X151882664Y-114068793D01*
X151882671Y-114068797D01*
X152017517Y-114119091D01*
X152017516Y-114119091D01*
X152024444Y-114119835D01*
X152077127Y-114125500D01*
X154422872Y-114125499D01*
X154482483Y-114119091D01*
X154617331Y-114068796D01*
X154732546Y-113982546D01*
X154818796Y-113867331D01*
X154869091Y-113732483D01*
X154875500Y-113672873D01*
X154875499Y-111327128D01*
X154869091Y-111267517D01*
X154824532Y-111148049D01*
X154818797Y-111132671D01*
X154818793Y-111132664D01*
X154732547Y-111017455D01*
X154732544Y-111017452D01*
X154617335Y-110931206D01*
X154617328Y-110931202D01*
X154482482Y-110880908D01*
X154482483Y-110880908D01*
X154422883Y-110874501D01*
X154422881Y-110874500D01*
X154422873Y-110874500D01*
X154422864Y-110874500D01*
X152077129Y-110874500D01*
X152077123Y-110874501D01*
X152017516Y-110880908D01*
X151882671Y-110931202D01*
X151882664Y-110931206D01*
X151767455Y-111017452D01*
X151767452Y-111017455D01*
X151681206Y-111132664D01*
X151681202Y-111132671D01*
X151630908Y-111267517D01*
X151624501Y-111327116D01*
X151624501Y-111327123D01*
X151624500Y-111327135D01*
X131796669Y-111327135D01*
X131939862Y-111183942D01*
X132090252Y-110976947D01*
X132206410Y-110748975D01*
X132285474Y-110505639D01*
X132299038Y-110419999D01*
X156144341Y-110419999D01*
X156144341Y-110420000D01*
X156164936Y-110655403D01*
X156164938Y-110655413D01*
X156226094Y-110883655D01*
X156226096Y-110883659D01*
X156226097Y-110883663D01*
X156325965Y-111097830D01*
X156325967Y-111097834D01*
X156461501Y-111291395D01*
X156461506Y-111291402D01*
X156628597Y-111458493D01*
X156628603Y-111458498D01*
X156814158Y-111588425D01*
X156857783Y-111643002D01*
X156864977Y-111712500D01*
X156833454Y-111774855D01*
X156814158Y-111791575D01*
X156628597Y-111921505D01*
X156461505Y-112088597D01*
X156325965Y-112282169D01*
X156325964Y-112282171D01*
X156226098Y-112496335D01*
X156226094Y-112496344D01*
X156164938Y-112724586D01*
X156164936Y-112724596D01*
X156144341Y-112959999D01*
X156144341Y-112960000D01*
X156164936Y-113195403D01*
X156164938Y-113195413D01*
X156226094Y-113423655D01*
X156226096Y-113423659D01*
X156226097Y-113423663D01*
X156301551Y-113585474D01*
X156325965Y-113637830D01*
X156325967Y-113637834D01*
X156434281Y-113792521D01*
X156461501Y-113831396D01*
X156461506Y-113831402D01*
X156583818Y-113953714D01*
X156617303Y-114015037D01*
X156612319Y-114084729D01*
X156570447Y-114140662D01*
X156539471Y-114157577D01*
X156407912Y-114206646D01*
X156407906Y-114206649D01*
X156292812Y-114292809D01*
X156292809Y-114292812D01*
X156206649Y-114407906D01*
X156206645Y-114407913D01*
X156156403Y-114542620D01*
X156156401Y-114542627D01*
X156150000Y-114602155D01*
X156150000Y-115250000D01*
X157066988Y-115250000D01*
X157034075Y-115307007D01*
X157000000Y-115434174D01*
X157000000Y-115565826D01*
X157034075Y-115692993D01*
X157066988Y-115750000D01*
X156150000Y-115750000D01*
X156150000Y-116397844D01*
X156156401Y-116457372D01*
X156156403Y-116457379D01*
X156206645Y-116592086D01*
X156206649Y-116592093D01*
X156292809Y-116707187D01*
X156292812Y-116707190D01*
X156407906Y-116793350D01*
X156407913Y-116793354D01*
X156542620Y-116843596D01*
X156542627Y-116843598D01*
X156602155Y-116849999D01*
X156602172Y-116850000D01*
X157250000Y-116850000D01*
X157250000Y-115933012D01*
X157307007Y-115965925D01*
X157434174Y-116000000D01*
X157565826Y-116000000D01*
X157692993Y-115965925D01*
X157750000Y-115933012D01*
X157750000Y-116850000D01*
X158397828Y-116850000D01*
X158397844Y-116849999D01*
X158457372Y-116843598D01*
X158457379Y-116843596D01*
X158592086Y-116793354D01*
X158592093Y-116793350D01*
X158707187Y-116707190D01*
X158707190Y-116707187D01*
X158793350Y-116592093D01*
X158793354Y-116592086D01*
X158843596Y-116457379D01*
X158843598Y-116457372D01*
X158849999Y-116397844D01*
X158850000Y-116397827D01*
X158850000Y-115750000D01*
X157933012Y-115750000D01*
X157965925Y-115692993D01*
X158000000Y-115565826D01*
X158000000Y-115434174D01*
X157965925Y-115307007D01*
X157933012Y-115250000D01*
X158850000Y-115250000D01*
X158850000Y-114602172D01*
X158849999Y-114602155D01*
X158843598Y-114542627D01*
X158843596Y-114542620D01*
X158793354Y-114407913D01*
X158793350Y-114407906D01*
X158707190Y-114292812D01*
X158707187Y-114292809D01*
X158592093Y-114206649D01*
X158592088Y-114206646D01*
X158460528Y-114157577D01*
X158404595Y-114115705D01*
X158380178Y-114050241D01*
X158395030Y-113981968D01*
X158416175Y-113953720D01*
X158538495Y-113831401D01*
X158674035Y-113637830D01*
X158773903Y-113423663D01*
X158835063Y-113195408D01*
X158855659Y-112960000D01*
X158835063Y-112724592D01*
X158777922Y-112511335D01*
X158773905Y-112496344D01*
X158773904Y-112496343D01*
X158773903Y-112496337D01*
X158674035Y-112282171D01*
X158538495Y-112088599D01*
X158538494Y-112088597D01*
X158371402Y-111921506D01*
X158371396Y-111921501D01*
X158185842Y-111791575D01*
X158142217Y-111736998D01*
X158135023Y-111667500D01*
X158166546Y-111605145D01*
X158185842Y-111588425D01*
X158208026Y-111572891D01*
X158371401Y-111458495D01*
X158538495Y-111291401D01*
X158674035Y-111097830D01*
X158773903Y-110883663D01*
X158835063Y-110655408D01*
X158855659Y-110420000D01*
X158835063Y-110184592D01*
X158773903Y-109956337D01*
X158674035Y-109742171D01*
X158538495Y-109548599D01*
X158538494Y-109548597D01*
X158371402Y-109381506D01*
X158371395Y-109381501D01*
X158177834Y-109245967D01*
X158177830Y-109245965D01*
X158177828Y-109245964D01*
X157963663Y-109146097D01*
X157963659Y-109146096D01*
X157963655Y-109146094D01*
X157735413Y-109084938D01*
X157735403Y-109084936D01*
X157500001Y-109064341D01*
X157499999Y-109064341D01*
X157264596Y-109084936D01*
X157264586Y-109084938D01*
X157036344Y-109146094D01*
X157036335Y-109146098D01*
X156822171Y-109245964D01*
X156822169Y-109245965D01*
X156628597Y-109381505D01*
X156461505Y-109548597D01*
X156325965Y-109742169D01*
X156325964Y-109742171D01*
X156226098Y-109956335D01*
X156226094Y-109956344D01*
X156164938Y-110184586D01*
X156164936Y-110184596D01*
X156144341Y-110419999D01*
X132299038Y-110419999D01*
X132325500Y-110252930D01*
X132325500Y-107999996D01*
X142594435Y-107999996D01*
X142594435Y-108000003D01*
X142614630Y-108179249D01*
X142614631Y-108179254D01*
X142674211Y-108349523D01*
X142770184Y-108502262D01*
X142897738Y-108629816D01*
X143050478Y-108725789D01*
X143220745Y-108785368D01*
X143220750Y-108785369D01*
X143399996Y-108805565D01*
X143400000Y-108805565D01*
X143400004Y-108805565D01*
X143579249Y-108785369D01*
X143579252Y-108785368D01*
X143579255Y-108785368D01*
X143749522Y-108725789D01*
X143902262Y-108629816D01*
X144029816Y-108502262D01*
X144125789Y-108349522D01*
X144185368Y-108179255D01*
X144205565Y-108000000D01*
X144205565Y-107999996D01*
X146694435Y-107999996D01*
X146694435Y-108000003D01*
X146714630Y-108179249D01*
X146714631Y-108179254D01*
X146774211Y-108349523D01*
X146870184Y-108502262D01*
X146997738Y-108629816D01*
X147150478Y-108725789D01*
X147320745Y-108785368D01*
X147320750Y-108785369D01*
X147499996Y-108805565D01*
X147500000Y-108805565D01*
X147500004Y-108805565D01*
X147679249Y-108785369D01*
X147679252Y-108785368D01*
X147679255Y-108785368D01*
X147849522Y-108725789D01*
X148002262Y-108629816D01*
X148129816Y-108502262D01*
X148225789Y-108349522D01*
X148285368Y-108179255D01*
X148305565Y-108000000D01*
X148285368Y-107820745D01*
X148225789Y-107650478D01*
X148129816Y-107497738D01*
X148002262Y-107370184D01*
X147970932Y-107350498D01*
X147849523Y-107274211D01*
X147679254Y-107214631D01*
X147679249Y-107214630D01*
X147500004Y-107194435D01*
X147499996Y-107194435D01*
X147320750Y-107214630D01*
X147320745Y-107214631D01*
X147150476Y-107274211D01*
X146997737Y-107370184D01*
X146870184Y-107497737D01*
X146774211Y-107650476D01*
X146714631Y-107820745D01*
X146714630Y-107820750D01*
X146694435Y-107999996D01*
X144205565Y-107999996D01*
X144185368Y-107820745D01*
X144125789Y-107650478D01*
X144029816Y-107497738D01*
X143902262Y-107370184D01*
X143870932Y-107350498D01*
X143749523Y-107274211D01*
X143579254Y-107214631D01*
X143579249Y-107214630D01*
X143400004Y-107194435D01*
X143399996Y-107194435D01*
X143220750Y-107214630D01*
X143220745Y-107214631D01*
X143050476Y-107274211D01*
X142897737Y-107370184D01*
X142770184Y-107497737D01*
X142674211Y-107650476D01*
X142614631Y-107820745D01*
X142614630Y-107820750D01*
X142594435Y-107999996D01*
X132325500Y-107999996D01*
X132325500Y-107747070D01*
X132285474Y-107494361D01*
X132238731Y-107350499D01*
X132206411Y-107251027D01*
X132206410Y-107251024D01*
X132166185Y-107172080D01*
X132090252Y-107023053D01*
X131999302Y-106897870D01*
X131939867Y-106816064D01*
X131939863Y-106816059D01*
X131758940Y-106635136D01*
X131758935Y-106635132D01*
X131551950Y-106484750D01*
X131551949Y-106484749D01*
X131551947Y-106484748D01*
X131478910Y-106447533D01*
X131323975Y-106368589D01*
X131323972Y-106368588D01*
X131080640Y-106289526D01*
X130954284Y-106269513D01*
X130827930Y-106249500D01*
X130572070Y-106249500D01*
X130487833Y-106262842D01*
X130319359Y-106289526D01*
X130076027Y-106368588D01*
X130076024Y-106368589D01*
X129848049Y-106484750D01*
X129641064Y-106635132D01*
X129641059Y-106635136D01*
X129460136Y-106816059D01*
X129460132Y-106816064D01*
X129309750Y-107023049D01*
X129193589Y-107251024D01*
X129193588Y-107251027D01*
X129114526Y-107494359D01*
X129074500Y-107747070D01*
X127390787Y-107747070D01*
X127592238Y-107720548D01*
X127813887Y-107661158D01*
X128025888Y-107573344D01*
X128224612Y-107458611D01*
X128406661Y-107318919D01*
X128406665Y-107318914D01*
X128406670Y-107318911D01*
X128568911Y-107156670D01*
X128568914Y-107156665D01*
X128568919Y-107156661D01*
X128708611Y-106974612D01*
X128823344Y-106775888D01*
X128911158Y-106563887D01*
X128970548Y-106342238D01*
X129000500Y-106114734D01*
X129000500Y-105885266D01*
X128970548Y-105657762D01*
X128911158Y-105436113D01*
X128823344Y-105224112D01*
X128708611Y-105025388D01*
X128708608Y-105025385D01*
X128708607Y-105025382D01*
X128568918Y-104843338D01*
X128568911Y-104843330D01*
X128406670Y-104681089D01*
X128406661Y-104681081D01*
X128224617Y-104541392D01*
X128025890Y-104426657D01*
X128025876Y-104426650D01*
X127813887Y-104338842D01*
X127786094Y-104331395D01*
X127592238Y-104279452D01*
X127554215Y-104274446D01*
X127364741Y-104249500D01*
X127364734Y-104249500D01*
X124635266Y-104249500D01*
X124635258Y-104249500D01*
X124418715Y-104278009D01*
X124407762Y-104279452D01*
X124314076Y-104304554D01*
X124186112Y-104338842D01*
X123974123Y-104426650D01*
X123974109Y-104426657D01*
X123775382Y-104541392D01*
X123593338Y-104681081D01*
X123431081Y-104843338D01*
X123291392Y-105025382D01*
X123176657Y-105224109D01*
X123176650Y-105224123D01*
X123088842Y-105436112D01*
X123029453Y-105657759D01*
X123029451Y-105657770D01*
X122999500Y-105885258D01*
X120700500Y-105885258D01*
X120700500Y-100152135D01*
X122359500Y-100152135D01*
X122359500Y-101847870D01*
X122359501Y-101847876D01*
X122365908Y-101907483D01*
X122416202Y-102042328D01*
X122416206Y-102042335D01*
X122502452Y-102157544D01*
X122502455Y-102157547D01*
X122617664Y-102243793D01*
X122617671Y-102243797D01*
X122752517Y-102294091D01*
X122752516Y-102294091D01*
X122759444Y-102294835D01*
X122812127Y-102300500D01*
X124507872Y-102300499D01*
X124567483Y-102294091D01*
X124702331Y-102243796D01*
X124817546Y-102157546D01*
X124903796Y-102042331D01*
X124954091Y-101907483D01*
X124960500Y-101847873D01*
X124960499Y-100999998D01*
X129974532Y-100999998D01*
X129974532Y-101000001D01*
X129994364Y-101226686D01*
X129994366Y-101226697D01*
X130053258Y-101446488D01*
X130053261Y-101446497D01*
X130149431Y-101652732D01*
X130149432Y-101652734D01*
X130279954Y-101839141D01*
X130440858Y-102000045D01*
X130440861Y-102000047D01*
X130627266Y-102130568D01*
X130833504Y-102226739D01*
X131053308Y-102285635D01*
X131215230Y-102299801D01*
X131279998Y-102305468D01*
X131280000Y-102305468D01*
X131280002Y-102305468D01*
X131336807Y-102300498D01*
X131506692Y-102285635D01*
X131726496Y-102226739D01*
X131932734Y-102130568D01*
X132119139Y-102000047D01*
X132280047Y-101839139D01*
X132410568Y-101652734D01*
X132506739Y-101446496D01*
X132565635Y-101226692D01*
X132585468Y-101000000D01*
X132578469Y-100919999D01*
X156144341Y-100919999D01*
X156144341Y-100920000D01*
X156164936Y-101155403D01*
X156164938Y-101155413D01*
X156226094Y-101383655D01*
X156226096Y-101383659D01*
X156226097Y-101383663D01*
X156255393Y-101446488D01*
X156325965Y-101597830D01*
X156325967Y-101597834D01*
X156461501Y-101791395D01*
X156461506Y-101791402D01*
X156628597Y-101958493D01*
X156628603Y-101958498D01*
X156814158Y-102088425D01*
X156857783Y-102143002D01*
X156864977Y-102212500D01*
X156833454Y-102274855D01*
X156814158Y-102291575D01*
X156628597Y-102421505D01*
X156461505Y-102588597D01*
X156325965Y-102782169D01*
X156325964Y-102782171D01*
X156226098Y-102996335D01*
X156226094Y-102996344D01*
X156164938Y-103224586D01*
X156164936Y-103224596D01*
X156144341Y-103459999D01*
X156144341Y-103460000D01*
X156164936Y-103695403D01*
X156164938Y-103695413D01*
X156226094Y-103923655D01*
X156226096Y-103923659D01*
X156226097Y-103923663D01*
X156325965Y-104137830D01*
X156325967Y-104137834D01*
X156404157Y-104249500D01*
X156461501Y-104331396D01*
X156461506Y-104331402D01*
X156583430Y-104453326D01*
X156616915Y-104514649D01*
X156611931Y-104584341D01*
X156570059Y-104640274D01*
X156539083Y-104657189D01*
X156407669Y-104706203D01*
X156407664Y-104706206D01*
X156292455Y-104792452D01*
X156292452Y-104792455D01*
X156206206Y-104907664D01*
X156206202Y-104907671D01*
X156155908Y-105042517D01*
X156149501Y-105102116D01*
X156149501Y-105102123D01*
X156149500Y-105102135D01*
X156149500Y-106897870D01*
X156149501Y-106897876D01*
X156155908Y-106957483D01*
X156206202Y-107092328D01*
X156206206Y-107092335D01*
X156292452Y-107207544D01*
X156292455Y-107207547D01*
X156407664Y-107293793D01*
X156407671Y-107293797D01*
X156542517Y-107344091D01*
X156542516Y-107344091D01*
X156549444Y-107344835D01*
X156602127Y-107350500D01*
X158397872Y-107350499D01*
X158457483Y-107344091D01*
X158592331Y-107293796D01*
X158707546Y-107207546D01*
X158793796Y-107092331D01*
X158844091Y-106957483D01*
X158850500Y-106897873D01*
X158850499Y-105102128D01*
X158844091Y-105042517D01*
X158837702Y-105025388D01*
X158793797Y-104907671D01*
X158793793Y-104907664D01*
X158707547Y-104792455D01*
X158707544Y-104792452D01*
X158592335Y-104706206D01*
X158592328Y-104706202D01*
X158460917Y-104657189D01*
X158404983Y-104615318D01*
X158380566Y-104549853D01*
X158395418Y-104481580D01*
X158416563Y-104453332D01*
X158538495Y-104331401D01*
X158674035Y-104137830D01*
X158773903Y-103923663D01*
X158835063Y-103695408D01*
X158855659Y-103460000D01*
X158835063Y-103224592D01*
X158773903Y-102996337D01*
X158674035Y-102782171D01*
X158538495Y-102588599D01*
X158538494Y-102588597D01*
X158371402Y-102421506D01*
X158371396Y-102421501D01*
X158185842Y-102291575D01*
X158142217Y-102236998D01*
X158135023Y-102167500D01*
X158166546Y-102105145D01*
X158185842Y-102088425D01*
X158251675Y-102042328D01*
X158371401Y-101958495D01*
X158538495Y-101791401D01*
X158674035Y-101597830D01*
X158773903Y-101383663D01*
X158835063Y-101155408D01*
X158855659Y-100920000D01*
X158835063Y-100684592D01*
X158773903Y-100456337D01*
X158674035Y-100242171D01*
X158617102Y-100160861D01*
X158538494Y-100048597D01*
X158371402Y-99881506D01*
X158371395Y-99881501D01*
X158354157Y-99869431D01*
X158315632Y-99842455D01*
X158177834Y-99745967D01*
X158177830Y-99745965D01*
X158110066Y-99714366D01*
X157963663Y-99646097D01*
X157963659Y-99646096D01*
X157963655Y-99646094D01*
X157735413Y-99584938D01*
X157735403Y-99584936D01*
X157500001Y-99564341D01*
X157499999Y-99564341D01*
X157264596Y-99584936D01*
X157264586Y-99584938D01*
X157036344Y-99646094D01*
X157036335Y-99646098D01*
X156822171Y-99745964D01*
X156822169Y-99745965D01*
X156628597Y-99881505D01*
X156461505Y-100048597D01*
X156325965Y-100242169D01*
X156325964Y-100242171D01*
X156226098Y-100456335D01*
X156226094Y-100456344D01*
X156164938Y-100684586D01*
X156164936Y-100684596D01*
X156144341Y-100919999D01*
X132578469Y-100919999D01*
X132565635Y-100773308D01*
X132506739Y-100553504D01*
X132410568Y-100347266D01*
X132280047Y-100160861D01*
X132280045Y-100160858D01*
X132119141Y-99999954D01*
X131932734Y-99869432D01*
X131932732Y-99869431D01*
X131726497Y-99773261D01*
X131726488Y-99773258D01*
X131506697Y-99714366D01*
X131506693Y-99714365D01*
X131506692Y-99714365D01*
X131506691Y-99714364D01*
X131506686Y-99714364D01*
X131280002Y-99694532D01*
X131279998Y-99694532D01*
X131053313Y-99714364D01*
X131053302Y-99714366D01*
X130833511Y-99773258D01*
X130833502Y-99773261D01*
X130627267Y-99869431D01*
X130627265Y-99869432D01*
X130440858Y-99999954D01*
X130279954Y-100160858D01*
X130149432Y-100347265D01*
X130149431Y-100347267D01*
X130053261Y-100553502D01*
X130053258Y-100553511D01*
X129994366Y-100773302D01*
X129994364Y-100773313D01*
X129974532Y-100999998D01*
X124960499Y-100999998D01*
X124960499Y-100152128D01*
X124954091Y-100092517D01*
X124919567Y-99999954D01*
X124903797Y-99957671D01*
X124903793Y-99957664D01*
X124817547Y-99842455D01*
X124817544Y-99842452D01*
X124702335Y-99756206D01*
X124702328Y-99756202D01*
X124567482Y-99705908D01*
X124567483Y-99705908D01*
X124507883Y-99699501D01*
X124507881Y-99699500D01*
X124507873Y-99699500D01*
X124507864Y-99699500D01*
X122812129Y-99699500D01*
X122812123Y-99699501D01*
X122752516Y-99705908D01*
X122617671Y-99756202D01*
X122617664Y-99756206D01*
X122502455Y-99842452D01*
X122502452Y-99842455D01*
X122416206Y-99957664D01*
X122416202Y-99957671D01*
X122365908Y-100092517D01*
X122359501Y-100152116D01*
X122359501Y-100152123D01*
X122359500Y-100152135D01*
X120700500Y-100152135D01*
X120700500Y-95452135D01*
X123467000Y-95452135D01*
X123467000Y-97547870D01*
X123467001Y-97547876D01*
X123473408Y-97607483D01*
X123523702Y-97742328D01*
X123523706Y-97742335D01*
X123609952Y-97857544D01*
X123609955Y-97857547D01*
X123725164Y-97943793D01*
X123725171Y-97943797D01*
X123860017Y-97994091D01*
X123860016Y-97994091D01*
X123866944Y-97994835D01*
X123919627Y-98000500D01*
X125920372Y-98000499D01*
X125979983Y-97994091D01*
X126114831Y-97943796D01*
X126230046Y-97857546D01*
X126316296Y-97742331D01*
X126326690Y-97714460D01*
X126368560Y-97658527D01*
X126434023Y-97634108D01*
X126502297Y-97648958D01*
X126515746Y-97657465D01*
X126698462Y-97790217D01*
X126830599Y-97857544D01*
X126902244Y-97894049D01*
X127119751Y-97964721D01*
X127119752Y-97964721D01*
X127119755Y-97964722D01*
X127345646Y-98000500D01*
X127345647Y-98000500D01*
X127574353Y-98000500D01*
X127574354Y-98000500D01*
X127800245Y-97964722D01*
X127800248Y-97964721D01*
X127800249Y-97964721D01*
X128017755Y-97894049D01*
X128017755Y-97894048D01*
X128017758Y-97894048D01*
X128221538Y-97790217D01*
X128406566Y-97655786D01*
X128568286Y-97494066D01*
X128629992Y-97409134D01*
X128685319Y-97366470D01*
X128754932Y-97360491D01*
X128816727Y-97393096D01*
X128830626Y-97409135D01*
X128892097Y-97493741D01*
X128892097Y-97493742D01*
X129053757Y-97655402D01*
X129238723Y-97789788D01*
X129442429Y-97893582D01*
X129659871Y-97964234D01*
X129750000Y-97978509D01*
X129750000Y-96990747D01*
X129787708Y-97012518D01*
X129927591Y-97050000D01*
X130072409Y-97050000D01*
X130212292Y-97012518D01*
X130250000Y-96990747D01*
X130250000Y-97978508D01*
X130340128Y-97964234D01*
X130557570Y-97893582D01*
X130761276Y-97789788D01*
X130946242Y-97655402D01*
X131107902Y-97493742D01*
X131242288Y-97308776D01*
X131346082Y-97105070D01*
X131416734Y-96887628D01*
X131438532Y-96750000D01*
X130490748Y-96750000D01*
X130512518Y-96712292D01*
X130550000Y-96572409D01*
X130550000Y-96499999D01*
X156144341Y-96499999D01*
X156144341Y-96500000D01*
X156164936Y-96735403D01*
X156164938Y-96735413D01*
X156226094Y-96963655D01*
X156226096Y-96963659D01*
X156226097Y-96963663D01*
X156292124Y-97105258D01*
X156325965Y-97177830D01*
X156325967Y-97177834D01*
X156417654Y-97308776D01*
X156461505Y-97371401D01*
X156628599Y-97538495D01*
X156725384Y-97606265D01*
X156822165Y-97674032D01*
X156822167Y-97674033D01*
X156822170Y-97674035D01*
X157036337Y-97773903D01*
X157264592Y-97835063D01*
X157452918Y-97851539D01*
X157499999Y-97855659D01*
X157500000Y-97855659D01*
X157500001Y-97855659D01*
X157539234Y-97852226D01*
X157735408Y-97835063D01*
X157963663Y-97773903D01*
X158177830Y-97674035D01*
X158371401Y-97538495D01*
X158538495Y-97371401D01*
X158674035Y-97177830D01*
X158773903Y-96963663D01*
X158835063Y-96735408D01*
X158855659Y-96500000D01*
X158835063Y-96264592D01*
X158773903Y-96036337D01*
X158674035Y-95822171D01*
X158573961Y-95679249D01*
X158538494Y-95628597D01*
X158371402Y-95461506D01*
X158371401Y-95461505D01*
X158185405Y-95331269D01*
X158141781Y-95276692D01*
X158134588Y-95207193D01*
X158166110Y-95144839D01*
X158185405Y-95128119D01*
X158371082Y-94998105D01*
X158538105Y-94831082D01*
X158673600Y-94637578D01*
X158773429Y-94423492D01*
X158773432Y-94423486D01*
X158830636Y-94210000D01*
X157933012Y-94210000D01*
X157965925Y-94152993D01*
X158000000Y-94025826D01*
X158000000Y-93894174D01*
X157965925Y-93767007D01*
X157933012Y-93710000D01*
X158830636Y-93710000D01*
X158830635Y-93709999D01*
X158773432Y-93496513D01*
X158773429Y-93496507D01*
X158673600Y-93282422D01*
X158673599Y-93282420D01*
X158538113Y-93088926D01*
X158538108Y-93088920D01*
X158416053Y-92966865D01*
X158382568Y-92905542D01*
X158387552Y-92835850D01*
X158429424Y-92779917D01*
X158460400Y-92763002D01*
X158592331Y-92713796D01*
X158707546Y-92627546D01*
X158793796Y-92512331D01*
X158844091Y-92377483D01*
X158850500Y-92317873D01*
X158850499Y-90522128D01*
X158844091Y-90462517D01*
X158793796Y-90327669D01*
X158793795Y-90327668D01*
X158793793Y-90327664D01*
X158707547Y-90212455D01*
X158707544Y-90212452D01*
X158592335Y-90126206D01*
X158592328Y-90126202D01*
X158457482Y-90075908D01*
X158457483Y-90075908D01*
X158397883Y-90069501D01*
X158397881Y-90069500D01*
X158397873Y-90069500D01*
X158397864Y-90069500D01*
X156602129Y-90069500D01*
X156602123Y-90069501D01*
X156542516Y-90075908D01*
X156407671Y-90126202D01*
X156407664Y-90126206D01*
X156292455Y-90212452D01*
X156292452Y-90212455D01*
X156206206Y-90327664D01*
X156206202Y-90327671D01*
X156155908Y-90462517D01*
X156149501Y-90522116D01*
X156149501Y-90522123D01*
X156149500Y-90522135D01*
X156149500Y-92317870D01*
X156149501Y-92317876D01*
X156155908Y-92377483D01*
X156206202Y-92512328D01*
X156206206Y-92512335D01*
X156292452Y-92627544D01*
X156292455Y-92627547D01*
X156407664Y-92713793D01*
X156407671Y-92713797D01*
X156407674Y-92713798D01*
X156539598Y-92763002D01*
X156595531Y-92804873D01*
X156619949Y-92870337D01*
X156605098Y-92938610D01*
X156583947Y-92966865D01*
X156461886Y-93088926D01*
X156326400Y-93282420D01*
X156326399Y-93282422D01*
X156226570Y-93496507D01*
X156226567Y-93496513D01*
X156169364Y-93709999D01*
X156169364Y-93710000D01*
X157066988Y-93710000D01*
X157034075Y-93767007D01*
X157000000Y-93894174D01*
X157000000Y-94025826D01*
X157034075Y-94152993D01*
X157066988Y-94210000D01*
X156169364Y-94210000D01*
X156226567Y-94423486D01*
X156226570Y-94423492D01*
X156326399Y-94637578D01*
X156461894Y-94831082D01*
X156628917Y-94998105D01*
X156814595Y-95128119D01*
X156858219Y-95182696D01*
X156865412Y-95252195D01*
X156833890Y-95314549D01*
X156814595Y-95331269D01*
X156628594Y-95461508D01*
X156461505Y-95628597D01*
X156325965Y-95822169D01*
X156325964Y-95822171D01*
X156226098Y-96036335D01*
X156226094Y-96036344D01*
X156164938Y-96264586D01*
X156164936Y-96264596D01*
X156144341Y-96499999D01*
X130550000Y-96499999D01*
X130550000Y-96427591D01*
X130512518Y-96287708D01*
X130490748Y-96250000D01*
X131438532Y-96250000D01*
X131416734Y-96112371D01*
X131346082Y-95894929D01*
X131242288Y-95691223D01*
X131107902Y-95506257D01*
X131101641Y-95499996D01*
X140694435Y-95499996D01*
X140694435Y-95500003D01*
X140714630Y-95679249D01*
X140714631Y-95679254D01*
X140774211Y-95849523D01*
X140860897Y-95987482D01*
X140870184Y-96002262D01*
X140997738Y-96129816D01*
X141150478Y-96225789D01*
X141261371Y-96264592D01*
X141320745Y-96285368D01*
X141320750Y-96285369D01*
X141499996Y-96305565D01*
X141500000Y-96305565D01*
X141500004Y-96305565D01*
X141679249Y-96285369D01*
X141679252Y-96285368D01*
X141679255Y-96285368D01*
X141849522Y-96225789D01*
X142002262Y-96129816D01*
X142129816Y-96002262D01*
X142225789Y-95849522D01*
X142285368Y-95679255D01*
X142285369Y-95679249D01*
X142305565Y-95500003D01*
X142305565Y-95499996D01*
X142285369Y-95320750D01*
X142285368Y-95320745D01*
X142278135Y-95300074D01*
X142225789Y-95150478D01*
X142197811Y-95105952D01*
X142134950Y-95005909D01*
X142129816Y-94997738D01*
X142002262Y-94870184D01*
X141940032Y-94831082D01*
X141849523Y-94774211D01*
X141679254Y-94714631D01*
X141679249Y-94714630D01*
X141500004Y-94694435D01*
X141499996Y-94694435D01*
X141320750Y-94714630D01*
X141320745Y-94714631D01*
X141150476Y-94774211D01*
X140997737Y-94870184D01*
X140870184Y-94997737D01*
X140774211Y-95150476D01*
X140714631Y-95320745D01*
X140714630Y-95320750D01*
X140694435Y-95499996D01*
X131101641Y-95499996D01*
X130946242Y-95344597D01*
X130761276Y-95210211D01*
X130557568Y-95106417D01*
X130340124Y-95035765D01*
X130250000Y-95021490D01*
X130250000Y-96009252D01*
X130212292Y-95987482D01*
X130072409Y-95950000D01*
X129927591Y-95950000D01*
X129787708Y-95987482D01*
X129750000Y-96009252D01*
X129750000Y-95021490D01*
X129749999Y-95021490D01*
X129659875Y-95035765D01*
X129442431Y-95106417D01*
X129238723Y-95210211D01*
X129053757Y-95344597D01*
X128892097Y-95506257D01*
X128830627Y-95590864D01*
X128775297Y-95633529D01*
X128705684Y-95639508D01*
X128643889Y-95606902D01*
X128629991Y-95590864D01*
X128568286Y-95505934D01*
X128406566Y-95344214D01*
X128221538Y-95209783D01*
X128133523Y-95164937D01*
X128017755Y-95105950D01*
X127800248Y-95035278D01*
X127614812Y-95005908D01*
X127574354Y-94999500D01*
X127345646Y-94999500D01*
X127305188Y-95005908D01*
X127119753Y-95035278D01*
X127119750Y-95035278D01*
X126902244Y-95105950D01*
X126698461Y-95209783D01*
X126515759Y-95342525D01*
X126449952Y-95366005D01*
X126381898Y-95350180D01*
X126333203Y-95300074D01*
X126326690Y-95285538D01*
X126316296Y-95257669D01*
X126316293Y-95257664D01*
X126230047Y-95142455D01*
X126230044Y-95142452D01*
X126114835Y-95056206D01*
X126114828Y-95056202D01*
X125979982Y-95005908D01*
X125979983Y-95005908D01*
X125920383Y-94999501D01*
X125920381Y-94999500D01*
X125920373Y-94999500D01*
X125920364Y-94999500D01*
X123919629Y-94999500D01*
X123919623Y-94999501D01*
X123860016Y-95005908D01*
X123725171Y-95056202D01*
X123725164Y-95056206D01*
X123609955Y-95142452D01*
X123609952Y-95142455D01*
X123523706Y-95257664D01*
X123523702Y-95257671D01*
X123473408Y-95392517D01*
X123467001Y-95452116D01*
X123467000Y-95452135D01*
X120700500Y-95452135D01*
X120700500Y-85999994D01*
X121594754Y-85999994D01*
X121594754Y-86000005D01*
X121613718Y-86301446D01*
X121613719Y-86301453D01*
X121626286Y-86367331D01*
X121666681Y-86579091D01*
X121670320Y-86598164D01*
X121763659Y-86885431D01*
X121763661Y-86885436D01*
X121892265Y-87158732D01*
X121892268Y-87158738D01*
X122054111Y-87413763D01*
X122054114Y-87413767D01*
X122054115Y-87413768D01*
X122120236Y-87493695D01*
X122246652Y-87646505D01*
X122466836Y-87853272D01*
X122466846Y-87853280D01*
X122711193Y-88030808D01*
X122711198Y-88030810D01*
X122711205Y-88030816D01*
X122975896Y-88176332D01*
X122975901Y-88176334D01*
X122975903Y-88176335D01*
X122975904Y-88176336D01*
X123256734Y-88287524D01*
X123256737Y-88287525D01*
X123354259Y-88312564D01*
X123549302Y-88362642D01*
X123696039Y-88381179D01*
X123848963Y-88400499D01*
X123848969Y-88400499D01*
X123848973Y-88400500D01*
X123848975Y-88400500D01*
X124151025Y-88400500D01*
X124151027Y-88400500D01*
X124151032Y-88400499D01*
X124151036Y-88400499D01*
X124230591Y-88390448D01*
X124450698Y-88362642D01*
X124743262Y-88287525D01*
X124910528Y-88221300D01*
X125024095Y-88176336D01*
X125024096Y-88176335D01*
X125024094Y-88176335D01*
X125024104Y-88176332D01*
X125288795Y-88030816D01*
X125533162Y-87853274D01*
X125669767Y-87724993D01*
X146594700Y-87724993D01*
X146594700Y-87725006D01*
X146613864Y-87956297D01*
X146613866Y-87956308D01*
X146670842Y-88181300D01*
X146764075Y-88393848D01*
X146891016Y-88588147D01*
X146891019Y-88588151D01*
X146891021Y-88588153D01*
X147048216Y-88758913D01*
X147048219Y-88758915D01*
X147048222Y-88758918D01*
X147231365Y-88901464D01*
X147231371Y-88901468D01*
X147231374Y-88901470D01*
X147435497Y-89011936D01*
X147549487Y-89051068D01*
X147655015Y-89087297D01*
X147655017Y-89087297D01*
X147655019Y-89087298D01*
X147883951Y-89125500D01*
X147883952Y-89125500D01*
X148116048Y-89125500D01*
X148116049Y-89125500D01*
X148344981Y-89087298D01*
X148564503Y-89011936D01*
X148768626Y-88901470D01*
X148951784Y-88758913D01*
X149108979Y-88588153D01*
X149235924Y-88393849D01*
X149329157Y-88181300D01*
X149386134Y-87956305D01*
X149394671Y-87853280D01*
X149401987Y-87764993D01*
X151594700Y-87764993D01*
X151594700Y-87765006D01*
X151613864Y-87996297D01*
X151613866Y-87996308D01*
X151670842Y-88221300D01*
X151764075Y-88433848D01*
X151891016Y-88628147D01*
X151891019Y-88628151D01*
X151891021Y-88628153D01*
X152048216Y-88798913D01*
X152048219Y-88798915D01*
X152048222Y-88798918D01*
X152231365Y-88941464D01*
X152231371Y-88941468D01*
X152231374Y-88941470D01*
X152435497Y-89051936D01*
X152538500Y-89087297D01*
X152655015Y-89127297D01*
X152655017Y-89127297D01*
X152655019Y-89127298D01*
X152883951Y-89165500D01*
X152883952Y-89165500D01*
X153116048Y-89165500D01*
X153116049Y-89165500D01*
X153344981Y-89127298D01*
X153564503Y-89051936D01*
X153768626Y-88941470D01*
X153951784Y-88798913D01*
X154108979Y-88628153D01*
X154235924Y-88433849D01*
X154329157Y-88221300D01*
X154386134Y-87996305D01*
X154386135Y-87996297D01*
X154405300Y-87765006D01*
X154405300Y-87764993D01*
X154386135Y-87533702D01*
X154386133Y-87533691D01*
X154329157Y-87308699D01*
X154235924Y-87096151D01*
X154108983Y-86901852D01*
X154108980Y-86901849D01*
X154108979Y-86901847D01*
X154014195Y-86798884D01*
X153983275Y-86736232D01*
X153991135Y-86666806D01*
X154035283Y-86612651D01*
X154062095Y-86598722D01*
X154142326Y-86568798D01*
X154142326Y-86568797D01*
X154142331Y-86568796D01*
X154257546Y-86482546D01*
X154343796Y-86367331D01*
X154394091Y-86232483D01*
X154400500Y-86172873D01*
X154400500Y-85999994D01*
X155594754Y-85999994D01*
X155594754Y-86000005D01*
X155613718Y-86301446D01*
X155613719Y-86301453D01*
X155626286Y-86367331D01*
X155666681Y-86579091D01*
X155670320Y-86598164D01*
X155763659Y-86885431D01*
X155763661Y-86885436D01*
X155892265Y-87158732D01*
X155892268Y-87158738D01*
X156054111Y-87413763D01*
X156054114Y-87413767D01*
X156054115Y-87413768D01*
X156120236Y-87493695D01*
X156246652Y-87646505D01*
X156466836Y-87853272D01*
X156466846Y-87853280D01*
X156711193Y-88030808D01*
X156711198Y-88030810D01*
X156711205Y-88030816D01*
X156975896Y-88176332D01*
X156975901Y-88176334D01*
X156975903Y-88176335D01*
X156975904Y-88176336D01*
X157256734Y-88287524D01*
X157256737Y-88287525D01*
X157354259Y-88312564D01*
X157549302Y-88362642D01*
X157696039Y-88381179D01*
X157848963Y-88400499D01*
X157848969Y-88400499D01*
X157848973Y-88400500D01*
X157848975Y-88400500D01*
X158151025Y-88400500D01*
X158151027Y-88400500D01*
X158151032Y-88400499D01*
X158151036Y-88400499D01*
X158230591Y-88390448D01*
X158450698Y-88362642D01*
X158743262Y-88287525D01*
X158910528Y-88221300D01*
X159024095Y-88176336D01*
X159024096Y-88176335D01*
X159024094Y-88176335D01*
X159024104Y-88176332D01*
X159288795Y-88030816D01*
X159533162Y-87853274D01*
X159753349Y-87646504D01*
X159945885Y-87413768D01*
X160107733Y-87158736D01*
X160236341Y-86885430D01*
X160329681Y-86598160D01*
X160386280Y-86301457D01*
X160386281Y-86301446D01*
X160405246Y-86000005D01*
X160405246Y-85999994D01*
X160386281Y-85698553D01*
X160386280Y-85698546D01*
X160386280Y-85698543D01*
X160329681Y-85401840D01*
X160236341Y-85114570D01*
X160107733Y-84841264D01*
X159945885Y-84586232D01*
X159753349Y-84353496D01*
X159533162Y-84146726D01*
X159533159Y-84146724D01*
X159533153Y-84146719D01*
X159288806Y-83969191D01*
X159288799Y-83969186D01*
X159288795Y-83969184D01*
X159024104Y-83823668D01*
X159024101Y-83823666D01*
X159024096Y-83823664D01*
X159024095Y-83823663D01*
X158743265Y-83712475D01*
X158743262Y-83712474D01*
X158450695Y-83637357D01*
X158151036Y-83599500D01*
X158151027Y-83599500D01*
X157848973Y-83599500D01*
X157848963Y-83599500D01*
X157549304Y-83637357D01*
X157256737Y-83712474D01*
X157256734Y-83712475D01*
X156975904Y-83823663D01*
X156975903Y-83823664D01*
X156711205Y-83969184D01*
X156711193Y-83969191D01*
X156466846Y-84146719D01*
X156466836Y-84146727D01*
X156246652Y-84353494D01*
X156054111Y-84586236D01*
X155892268Y-84841261D01*
X155892265Y-84841267D01*
X155763661Y-85114563D01*
X155763659Y-85114568D01*
X155670320Y-85401835D01*
X155613719Y-85698546D01*
X155613718Y-85698553D01*
X155594754Y-85999994D01*
X154400500Y-85999994D01*
X154400499Y-84277128D01*
X154394091Y-84217517D01*
X154343796Y-84082669D01*
X154343795Y-84082668D01*
X154343793Y-84082664D01*
X154257547Y-83967455D01*
X154257544Y-83967452D01*
X154142335Y-83881206D01*
X154142328Y-83881202D01*
X154007482Y-83830908D01*
X154007483Y-83830908D01*
X153947883Y-83824501D01*
X153947881Y-83824500D01*
X153947873Y-83824500D01*
X153947864Y-83824500D01*
X152052129Y-83824500D01*
X152052123Y-83824501D01*
X151992516Y-83830908D01*
X151857671Y-83881202D01*
X151857664Y-83881206D01*
X151742455Y-83967452D01*
X151742452Y-83967455D01*
X151656206Y-84082664D01*
X151656202Y-84082671D01*
X151605908Y-84217517D01*
X151599501Y-84277116D01*
X151599501Y-84277123D01*
X151599500Y-84277135D01*
X151599500Y-86172870D01*
X151599501Y-86172876D01*
X151605908Y-86232483D01*
X151656202Y-86367328D01*
X151656206Y-86367335D01*
X151742452Y-86482544D01*
X151742455Y-86482547D01*
X151857664Y-86568793D01*
X151857673Y-86568798D01*
X151937904Y-86598722D01*
X151993838Y-86640593D01*
X152018256Y-86706057D01*
X152003405Y-86774330D01*
X151985802Y-86798886D01*
X151891019Y-86901849D01*
X151764075Y-87096151D01*
X151670842Y-87308699D01*
X151613866Y-87533691D01*
X151613864Y-87533702D01*
X151594700Y-87764993D01*
X149401987Y-87764993D01*
X149405300Y-87725006D01*
X149405300Y-87724993D01*
X149386135Y-87493702D01*
X149386133Y-87493691D01*
X149329157Y-87268699D01*
X149235924Y-87056151D01*
X149108983Y-86861852D01*
X149108980Y-86861849D01*
X149108979Y-86861847D01*
X149014195Y-86758884D01*
X148983275Y-86696232D01*
X148991135Y-86626806D01*
X149035283Y-86572651D01*
X149062095Y-86558722D01*
X149142326Y-86528798D01*
X149142326Y-86528797D01*
X149142331Y-86528796D01*
X149257546Y-86442546D01*
X149343796Y-86327331D01*
X149394091Y-86192483D01*
X149400500Y-86132873D01*
X149400499Y-84237128D01*
X149394091Y-84177517D01*
X149343796Y-84042669D01*
X149343795Y-84042668D01*
X149343793Y-84042664D01*
X149257547Y-83927455D01*
X149257544Y-83927452D01*
X149142335Y-83841206D01*
X149142328Y-83841202D01*
X149007482Y-83790908D01*
X149007483Y-83790908D01*
X148947883Y-83784501D01*
X148947881Y-83784500D01*
X148947873Y-83784500D01*
X148947864Y-83784500D01*
X147052129Y-83784500D01*
X147052123Y-83784501D01*
X146992516Y-83790908D01*
X146857671Y-83841202D01*
X146857664Y-83841206D01*
X146742455Y-83927452D01*
X146742452Y-83927455D01*
X146656206Y-84042664D01*
X146656202Y-84042671D01*
X146605908Y-84177517D01*
X146601608Y-84217516D01*
X146599501Y-84237123D01*
X146599500Y-84237135D01*
X146599500Y-86132870D01*
X146599501Y-86132876D01*
X146605908Y-86192483D01*
X146656202Y-86327328D01*
X146656206Y-86327335D01*
X146742452Y-86442544D01*
X146742455Y-86442547D01*
X146857664Y-86528793D01*
X146857673Y-86528798D01*
X146937904Y-86558722D01*
X146993838Y-86600593D01*
X147018256Y-86666057D01*
X147003405Y-86734330D01*
X146985802Y-86758886D01*
X146891019Y-86861849D01*
X146764075Y-87056151D01*
X146670842Y-87268699D01*
X146613866Y-87493691D01*
X146613864Y-87493702D01*
X146594700Y-87724993D01*
X125669767Y-87724993D01*
X125753349Y-87646504D01*
X125945885Y-87413768D01*
X126107733Y-87158736D01*
X126236341Y-86885430D01*
X126329681Y-86598160D01*
X126386280Y-86301457D01*
X126386281Y-86301446D01*
X126405246Y-86000005D01*
X126405246Y-85999994D01*
X126386281Y-85698553D01*
X126386280Y-85698546D01*
X126386280Y-85698543D01*
X126329681Y-85401840D01*
X126236341Y-85114570D01*
X126107733Y-84841264D01*
X125945885Y-84586232D01*
X125753349Y-84353496D01*
X125533162Y-84146726D01*
X125533159Y-84146724D01*
X125533153Y-84146719D01*
X125288806Y-83969191D01*
X125288799Y-83969186D01*
X125288795Y-83969184D01*
X125024104Y-83823668D01*
X125024101Y-83823666D01*
X125024096Y-83823664D01*
X125024095Y-83823663D01*
X124743265Y-83712475D01*
X124743262Y-83712474D01*
X124450695Y-83637357D01*
X124151036Y-83599500D01*
X124151027Y-83599500D01*
X123848973Y-83599500D01*
X123848963Y-83599500D01*
X123549304Y-83637357D01*
X123256737Y-83712474D01*
X123256734Y-83712475D01*
X122975904Y-83823663D01*
X122975903Y-83823664D01*
X122711205Y-83969184D01*
X122711193Y-83969191D01*
X122466846Y-84146719D01*
X122466836Y-84146727D01*
X122246652Y-84353494D01*
X122054111Y-84586236D01*
X121892268Y-84841261D01*
X121892265Y-84841267D01*
X121763661Y-85114563D01*
X121763659Y-85114568D01*
X121670320Y-85401835D01*
X121613719Y-85698546D01*
X121613718Y-85698553D01*
X121594754Y-85999994D01*
X120700500Y-85999994D01*
X120700500Y-82824500D01*
X120720185Y-82757461D01*
X120772989Y-82711706D01*
X120824500Y-82700500D01*
X160675500Y-82700500D01*
X160742539Y-82720185D01*
G37*
%TD.AperFunction*%
%TD*%
M02*
