M48
; DRILL file {KiCad 8.0.5} date 2024-11-04T19:37:19-0700
; FORMAT={-:-/ absolute / inch / decimal}
; #@! TF.CreationDate,2024-11-04T19:37:19-07:00
; #@! TF.GenerationSoftware,Kicad,Pcbnew,8.0.5
; #@! TF.FileFunction,Plated,1,4,PTH
FMAT,2
INCH
; #@! TA.AperFunction,Plated,PTH,ViaDrill
T1C0.0118
; #@! TA.AperFunction,Plated,PTH,ComponentDrill
T2C0.0315
; #@! TA.AperFunction,Plated,PTH,ComponentDrill
T3C0.0354
; #@! TA.AperFunction,Plated,PTH,ComponentDrill
T4C0.0394
; #@! TA.AperFunction,Plated,PTH,ComponentDrill
T5C0.0433
; #@! TA.AperFunction,Plated,PTH,ComponentDrill
T6C0.0512
; #@! TA.AperFunction,Plated,PTH,ComponentDrill
T7C0.0866
%
G90
G05
T1
X5.5669Y-4.252
X5.5709Y-3.7598
X5.6457Y-4.252
X5.6496Y-3.7598
X5.8071Y-4.252
X6.0394Y-3.9213
X6.0433Y-4.311
T2
X4.8685Y-3.9764
X5.1685Y-3.9764
T3
X5.8268Y-3.3537
X5.8268Y-3.4537
X6.0236Y-3.3553
X6.0236Y-3.4553
T4
X5.4415Y-4.4478
X5.4415Y-4.5478
X5.5415Y-4.4478
X5.5415Y-4.5478
X5.6415Y-4.4478
X5.6415Y-4.5478
X5.7415Y-4.4478
X5.7415Y-4.5478
X5.8415Y-4.4478
X5.8415Y-4.5478
X6.2008Y-3.5992
X6.2008Y-3.6992
X6.2008Y-3.7992
X6.2008Y-3.9732
X6.2008Y-4.0732
X6.2008Y-4.1732
X6.2008Y-4.3472
X6.2008Y-4.4472
X6.2008Y-4.5472
T5
X4.9181Y-3.7992
X5.0181Y-3.7992
X5.1181Y-3.7992
T6
X6.0335Y-4.4291
X6.0335Y-4.685
T7
X4.8819Y-3.3858
X5.2441Y-4.6142
X6.2205Y-3.3858
T4
G00X5.0098Y-4.1732
M15
G01X4.9114Y-4.1732
M16
G05
G00X5.0Y-4.4094
M15
G01X4.9213Y-4.4094
M16
G05
G00X5.1457Y-4.252
M15
G01X5.1457Y-4.3307
M16
G05
M30
